SplineFontDB: 2.0
FontName: FreeSans
FullName: Free Sans
FamilyName: FreeSans
Weight: Medium
Copyright: Copyleft 2002, 2003, 2005, 2008 Free Software Foundation.
Version: $Revision: 1.185 $
ItalicAngle: 0
UnderlinePosition: -151
UnderlineWidth: 50
Ascent: 800
Descent: 200
LayerCount: 2
Layer: 0 0 "Back" 
Layer: 1 0 "Fore" 
NeedsXUIDChange: 1
FSType: 0
OS2Version: 0
OS2_WeightWidthSlopeOnly: 0
OS2_UseTypoMetrics: 0
CreationTime: 1203284335
ModificationTime: 1212050144
PfmFamily: 33
TTFWeight: 400
TTFWidth: 5
LineGap: 90
VLineGap: 0
Panose: 2 11 5 4 2 2 2 2 2 4
OS2TypoAscent: 0
OS2TypoAOffset: 1
OS2TypoDescent: 0
OS2TypoDOffset: 1
OS2TypoLinegap: 0
OS2WinAscent: 900
OS2WinAOffset: 0
OS2WinDescent: 300
OS2WinDOffset: 0
HheadAscent: 900
HheadAOffset: 0
HheadDescent: -300
HheadDOffset: 0
OS2SubXSize: 650
OS2SubYSize: 699
OS2SubXOff: 47
OS2SubYOff: 140
OS2SupXSize: 650
OS2SupYSize: 699
OS2SupXOff: -163
OS2SupYOff: 479
OS2StrikeYSize: 49
OS2StrikeYPos: 258
OS2Vendor: 'GNU '
Lookup: 1 0 0 "'init' Initial Forms in Bengali"  {"'init' Initial Forms in Bengali subtable"  } ['init' ('beng' <'dflt' > 'bng2' <'dflt' > ) ]
Lookup: 4 0 0 "'nukt' Nukta Forms in Gujarati"  {"'nukt' Nukta Forms in Gujarati subtable"  } ['nukt' ('gujr' <'dflt' > 'gjr2' <'dflt' > ) ]
Lookup: 4 0 0 "'nukt' Nukta Forms in Devanagari"  {"'nukt' Nukta Forms in Devanagari subtable"  } ['nukt' ('deva' <'dflt' > 'dev2' <'dflt' > ) ]
Lookup: 4 0 0 "'nukt' Nukta Forms in Gurmukhi"  {"'nukt' Nukta Forms in Gurmukhi subtable"  } ['nukt' ('guru' <'dflt' > 'gur2' <'dflt' > ) ]
Lookup: 4 0 0 "'akhn' Akhand in Gujarati"  {"'akhn' Akhand in Gujarati subtable"  } ['akhn' ('gujr' <'dflt' > 'gjr2' <'dflt' > ) ]
Lookup: 4 0 0 "'akhn' Akhand in Devanagari"  {"'akhn' Akhand in Devanagari subtable"  } ['akhn' ('deva' <'dflt' > 'dev2' <'dflt' > ) ]
Lookup: 4 0 0 "'akhn' Akhand in Bengali"  {"'akhn' Akhand in Bengali subtable"  } ['akhn' ('beng' <'dflt' > 'bng2' <'dflt' > ) ]

StartChar: exclam
Encoding: 33 33 1
Width: 278
Flags: MW
LayerCount: 2
Fore
SplineSet
208 729 m 1
 208 391 l 1
 186 168 l 1
 147 168 l 1
 125 391 l 1
 125 729 l 1
 208 729 l 1
208 104 m 1
 208 0 l 1
 124 0 l 1
 124 104 l 1
 208 104 l 1
EndSplineSet
Validated: 3073
EndChar

StartChar: quotedbl
Encoding: 34 34 2
Width: 355
Flags: MW
LayerCount: 2
Fore
SplineSet
52 709 m 1
 145 709 l 1
 145 598 l 1
 118 464 l 1
 79 464 l 1
 52 598 l 1
 52 709 l 1
212 709 m 1
 305 709 l 1
 305 598 l 1
 278 464 l 1
 239 464 l 1
 212 598 l 1
 212 709 l 1
EndSplineSet
Validated: 3073
EndChar

StartChar: numbersign
Encoding: 35 35 3
Width: 556
Flags: MW
LayerCount: 2
Fore
SplineSet
485 697 m 1
 449 501 l 1
 542 501 l 1
 542 433 l 1
 436 433 l 1
 405 259 l 1
 510 259 l 1
 510 191 l 1
 393 191 l 1
 354 -20 l 1
 278 -20 l 1
 316 191 l 1
 192 191 l 1
 153 -20 l 1
 77 -20 l 1
 115 191 l 1
 14 191 l 1
 14 259 l 1
 128 259 l 1
 159 433 l 1
 51 433 l 1
 51 501 l 1
 172 501 l 1
 208 697 l 1
 284 697 l 1
 248 501 l 1
 373 501 l 1
 408 697 l 1
 485 697 l 1
360 433 m 1
 236 433 l 1
 204 259 l 1
 329 259 l 1
 360 433 l 1
EndSplineSet
Validated: 3073
EndChar

StartChar: dollar
Encoding: 36 36 4
Width: 556
Flags: MW
LayerCount: 2
Fore
SplineSet
518 195 m 0
 518 68 443 -13 302 -23 c 1
 302 -126 l 1
 243 -126 l 1
 243 -23 l 1
 108 -14 33 62 33 191 c 0
 33 196 33 202 33 208 c 1
 112 208 l 1
 118 140 122 62 243 46 c 1
 243 318 l 1
 170 340 143 351 117 370 c 0
 70 404 46 453 46 516 c 0
 46 630 115 700 243 716 c 1
 243 770 l 1
 302 770 l 1
 302 716 l 1
 423 707 496 633 496 519 c 1
 417 519 l 1
 416 592 369 643 302 646 c 1
 302 397 l 1
 362 379 518 357 518 195 c 0
243 405 m 1
 243 645 l 1
 169 635 127 592 127 526 c 0
 127 465 164 426 243 405 c 1
302 46 m 1
 395 57 436 114 436 183 c 0
 436 249 404 279 302 309 c 1
 302 46 l 1
EndSplineSet
Validated: 3073
EndChar

StartChar: percent
Encoding: 37 37 5
Width: 889
Flags: MW
LayerCount: 2
Fore
SplineSet
199 685 m 0
 295 685 370 609 370 512 c 0
 370 420 293 343 200 343 c 0
 106 343 29 420 29 514 c 0
 29 608 106 685 199 685 c 0
199 615 m 0
 144 615 98 570 98 514 c 0
 98 459 144 413 200 413 c 0
 255 413 301 458 301 513 c 0
 301 570 256 615 199 615 c 0
609 709 m 1
 675 709 l 1
 280 -20 l 1
 214 -20 l 1
 609 709 l 1
688 322 m 0
 784 322 859 246 859 150 c 0
 859 58 781 -19 689 -19 c 0
 595 -19 518 58 518 152 c 0
 518 245 595 322 688 322 c 0
688 252 m 0
 633 252 587 207 587 152 c 0
 587 96 633 51 689 51 c 0
 744 51 790 96 790 150 c 0
 790 207 745 252 688 252 c 0
EndSplineSet
Validated: 3073
EndChar

StartChar: ampersand
Encoding: 38 38 6
Width: 667
Flags: MW
LayerCount: 2
Fore
SplineSet
466 78 m 1
 434 47 371 -23 257 -23 c 0
 134 -23 52 56 52 176 c 0
 52 267 90 317 214 389 c 1
 152 467 133 505 133 552 c 0
 133 640 209 709 304 709 c 0
 399 709 467 644 467 552 c 0
 467 480 433 437 329 378 c 1
 462 215 l 1
 481 249 493 294 493 330 c 0
 493 331 493 333 493 334 c 1
 573 334 l 1
 573 274 552 208 515 151 c 1
 637 0 l 1
 528 0 l 1
 466 78 l 1
285 431 m 1
 363 480 388 509 388 554 c 0
 388 603 351 639 301 639 c 0
 249 639 215 605 215 553 c 0
 215 518 224 501 285 431 c 1
418 137 m 1
 258 337 l 1
 167 279 136 239 136 183 c 0
 136 113 195 55 267 55 c 0
 319 55 362 78 418 137 c 1
EndSplineSet
Validated: 3073
EndChar

StartChar: quotesingle
Encoding: 39 39 7
Width: 191
Flags: MW
LayerCount: 2
Fore
SplineSet
48 709 m 1
 142 709 l 1
 142 598 l 1
 115 464 l 1
 75 464 l 1
 48 598 l 1
 48 709 l 1
EndSplineSet
Validated: 3073
EndChar

StartChar: parenleft
Encoding: 40 40 8
Width: 333
Flags: MW
LayerCount: 2
Fore
SplineSet
236 729 m 1
 291 729 l 1
 203 587 154 418 154 259 c 0
 154 99 203 -69 291 -212 c 1
 236 -212 l 1
 136 -81 73 101 73 259 c 0
 73 416 136 598 236 729 c 1
EndSplineSet
Validated: 3073
EndChar

StartChar: parenright
Encoding: 41 41 9
Width: 333
Flags: MW
LayerCount: 2
Fore
SplineSet
93 -212 m 1
 38 -212 l 1
 126 -70 175 99 175 258 c 0
 175 418 126 586 38 729 c 1
 93 729 l 1
 193 598 256 416 256 258 c 0
 256 101 193 -81 93 -212 c 1
EndSplineSet
Validated: 3073
EndChar

StartChar: asterisk
Encoding: 42 42 10
Width: 389
Flags: MW
LayerCount: 2
Fore
SplineSet
160 729 m 5
 223 729 l 5
 218 617 l 5
 324 655 l 5
 343 596 l 5
 235 566 l 5
 305 477 l 5
 254 441 l 5
 192 534 l 5
 129 441 l 5
 79 477 l 5
 148 566 l 5
 40 596 l 5
 59 655 l 5
 165 617 l 5
 160 729 l 5
EndSplineSet
Validated: 3073
EndChar

StartChar: plus
Encoding: 43 43 11
Width: 584
Flags: MW
LayerCount: 2
Fore
SplineSet
534 267 m 1
 534 197 l 1
 327 197 l 1
 327 -10 l 1
 257 -10 l 1
 257 197 l 1
 50 197 l 1
 50 267 l 1
 257 267 l 1
 257 474 l 1
 327 474 l 1
 327 267 l 1
 534 267 l 1
EndSplineSet
Validated: 3073
EndChar

StartChar: comma
Encoding: 44 44 12
Width: 278
Flags: MW
LayerCount: 2
Fore
SplineSet
87 104 m 1
 192 104 l 1
 192 -16 l 2
 192 -102 157 -147 87 -147 c 1
 87 -109 l 1
 134 -107 147 -87 147 -18 c 2
 147 0 l 1
 87 0 l 1
 87 104 l 1
EndSplineSet
Validated: 3073
EndChar

StartChar: hyphen
Encoding: 45 45 13
Width: 333
Flags: MW
LayerCount: 2
Fore
SplineSet
284 312 m 1
 284 240 l 1
 46 240 l 1
 46 312 l 1
 284 312 l 1
EndSplineSet
Validated: 3073
EndChar

StartChar: period
Encoding: 46 46 14
Width: 278
Flags: MW
LayerCount: 2
Fore
SplineSet
191 104 m 1
 191 0 l 1
 87 0 l 1
 87 104 l 1
 191 104 l 1
EndSplineSet
Validated: 3073
EndChar

StartChar: slash
Encoding: 47 47 15
Width: 278
Flags: MW
LayerCount: 2
Fore
SplineSet
229 729 m 1
 284 729 l 1
 47 -20 l 1
 -8 -20 l 1
 229 729 l 1
EndSplineSet
Validated: 3073
EndChar

StartChar: zero
Encoding: 48 48 16
Width: 556
Flags: MW
AnchorPoint: "middle" 273 339 basechar 0
LayerCount: 2
Fore
SplineSet
43 343 m 0
 43 654 176 709 275 709 c 0
 451 709 507 543 507 337 c 0
 507 104 425 -23 275 -23 c 0
 123 -23 43 104 43 343 c 0
275 631 m 0
 180 631 133 536 133 342 c 0
 133 148 180 50 273 50 c 0
 371 50 417 144 417 345 c 0
 417 535 370 631 275 631 c 0
EndSplineSet
Validated: 3073
EndChar

StartChar: one
Encoding: 49 49 17
Width: 556
Flags: MW
AnchorPoint: "middle" 286 339 basechar 0
LayerCount: 2
Fore
SplineSet
259 505 m 1
 102 505 l 1
 102 568 l 1
 238 585 258 600 289 709 c 1
 347 709 l 1
 347 0 l 1
 259 0 l 1
 259 505 l 1
EndSplineSet
Validated: 3073
EndChar

StartChar: two
Encoding: 50 50 18
Width: 556
Flags: MW
AnchorPoint: "middle" 276 339 basechar 0
LayerCount: 2
Fore
SplineSet
50 463 m 1
 56 677 187 709 284 709 c 0
 418 709 511 624 511 501 c 0
 511 414 460 341 361 287 c 2
 261 233 l 2
 172 185 142 145 133 87 c 1
 506 87 l 1
 506 0 l 1
 34 0 l 1
 42 156 85 223 233 307 c 2
 325 359 l 2
 388 395 421 443 421 499 c 0
 421 575 361 632 281 632 c 0
 159 632 142 529 138 463 c 1
 50 463 l 1
EndSplineSet
Validated: 3073
EndChar

StartChar: three
Encoding: 51 51 19
Width: 556
Flags: MW
AnchorPoint: "middle" 266 364 basechar 0
LayerCount: 2
Fore
SplineSet
270 632 m 0
 158 632 137 557 135 480 c 1
 47 480 l 1
 50 631 126 709 269 709 c 0
 404 709 485 636 485 514 c 0
 485 443 452 393 386 367 c 1
 471 338 506 288 506 198 c 0
 506 64 412 -23 266 -23 c 0
 118 -23 43 52 32 206 c 1
 120 206 l 1
 126 103 173 55 269 55 c 0
 361 55 416 108 416 197 c 0
 416 282 366 326 269 326 c 2
 232 325 l 1
 221 325 l 1
 221 400 l 1
 338 402 395 419 395 511 c 0
 395 586 348 632 270 632 c 0
EndSplineSet
Validated: 3073
EndChar

StartChar: four
Encoding: 52 52 20
Width: 556
Flags: MW
AnchorPoint: "middle" 288 339 basechar 0
LayerCount: 2
Fore
SplineSet
327 170 m 1
 28 170 l 1
 28 263 l 1
 350 709 l 1
 415 709 l 1
 415 249 l 1
 520 249 l 1
 520 170 l 1
 415 170 l 1
 415 0 l 1
 327 0 l 1
 327 170 l 1
327 249 m 1
 327 559 l 1
 105 249 l 1
 327 249 l 1
EndSplineSet
Validated: 3073
EndChar

StartChar: five
Encoding: 53 53 21
Width: 556
Flags: MW
AnchorPoint: "middle" 273 339 basechar 0
LayerCount: 2
Fore
SplineSet
476 709 m 1
 476 622 l 1
 181 622 l 1
 153 424 l 1
 194 454 234 467 284 467 c 0
 420 467 513 371 513 231 c 0
 513 81 413 -23 270 -23 c 0
 70 -23 44 128 35 174 c 1
 123 174 l 1
 144 94 191 55 268 55 c 0
 364 55 423 117 423 219 c 0
 423 324 363 389 268 389 c 0
 213 389 179 372 138 323 c 1
 57 323 l 1
 110 709 l 1
 476 709 l 1
EndSplineSet
Validated: 3073
EndChar

StartChar: six
Encoding: 54 54 22
Width: 556
Flags: MW
AnchorPoint: "middle" 286 339 basechar 0
LayerCount: 2
Fore
SplineSet
43 323 m 0
 43 651 193 709 297 709 c 0
 405 709 481 640 498 524 c 1
 410 524 l 1
 396 592 353 631 291 631 c 0
 190 631 134 535 133 362 c 1
 171 414 226 441 296 441 c 0
 423 441 513 348 513 216 c 0
 513 77 416 -23 281 -23 c 0
 104 -23 43 123 43 323 c 0
285 363 m 0
 198 363 138 302 138 214 c 0
 138 123 200 55 282 55 c 0
 363 55 423 120 423 209 c 0
 423 304 370 363 285 363 c 0
EndSplineSet
Validated: 3073
EndChar

StartChar: seven
Encoding: 55 55 23
Width: 556
Flags: MW
AnchorPoint: "middle" 273 365 basechar 0
LayerCount: 2
Fore
SplineSet
520 709 m 5
 520 635 l 5
 360 422 271 227 232 0 c 5
 138 0 l 5
 191 233 260 381 429 622 c 5
 46 622 l 5
 46 709 l 5
 520 709 l 5
EndSplineSet
Validated: 3073
EndChar

StartChar: eight
Encoding: 56 56 24
Width: 556
Flags: MW
AnchorPoint: "middle" 275 354 basechar 0
LayerCount: 2
Fore
SplineSet
391 373 m 1
 473 334 513 275 513 196 c 0
 513 67 415 -23 275 -23 c 0
 135 -23 37 67 37 197 c 0
 37 275 77 334 158 373 c 1
 86 418 62 454 62 520 c 0
 62 631 150 709 275 709 c 0
 401 709 488 631 488 520 c 0
 488 453 464 417 391 373 c 1
275 631 m 0
 201 631 152 587 152 519 c 0
 152 452 201 408 275 408 c 0
 349 408 398 452 398 518 c 0
 398 587 350 631 275 631 c 0
275 334 m 0
 187 334 127 278 127 195 c 0
 127 112 187 55 273 55 c 0
 363 55 423 111 423 195 c 0
 423 278 363 334 275 334 c 0
EndSplineSet
Validated: 3073
EndChar

StartChar: nine
Encoding: 57 57 25
Width: 556
Flags: MW
AnchorPoint: "middle" 269 339 basechar 0
LayerCount: 2
Fore
SplineSet
509 363 m 0
 509 35 358 -23 254 -23 c 0
 146 -23 70 46 53 162 c 1
 141 162 l 1
 155 94 198 55 260 55 c 0
 361 55 417 151 418 324 c 1
 372 269 323 245 256 245 c 0
 128 245 38 338 38 470 c 0
 38 609 135 709 270 709 c 0
 446 709 509 565 509 363 c 0
269 632 m 0
 188 632 128 567 128 477 c 0
 128 382 181 323 266 323 c 0
 352 323 413 385 413 472 c 0
 413 564 351 632 269 632 c 0
EndSplineSet
Validated: 3073
EndChar

StartChar: colon
Encoding: 58 58 26
Width: 278
Flags: MW
LayerCount: 2
Fore
SplineSet
214 104 m 1
 214 0 l 1
 110 0 l 1
 110 104 l 1
 214 104 l 1
214 524 m 1
 214 420 l 1
 110 420 l 1
 110 524 l 1
 214 524 l 1
EndSplineSet
Validated: 3073
EndChar

StartChar: semicolon
Encoding: 59 59 27
Width: 278
Flags: MW
LayerCount: 2
Fore
SplineSet
215 524 m 1
 215 420 l 1
 111 420 l 1
 111 524 l 1
 215 524 l 1
110 104 m 1
 215 104 l 1
 215 -16 l 2
 215 -102 180 -147 110 -147 c 1
 110 -109 l 1
 157 -107 170 -87 170 -18 c 2
 170 0 l 1
 110 0 l 1
 110 104 l 1
EndSplineSet
Validated: 3073
EndChar

StartChar: less
Encoding: 60 60 28
Width: 584
Flags: MW
LayerCount: 2
Fore
SplineSet
45 198 m 1
 45 267 l 1
 534 474 l 1
 534 395 l 1
 140 234 l 1
 534 70 l 1
 534 -9 l 1
 45 198 l 1
EndSplineSet
Validated: 3073
EndChar

StartChar: equal
Encoding: 61 61 29
Width: 584
Flags: MW
LayerCount: 2
Fore
SplineSet
534 353 m 1
 534 283 l 1
 50 283 l 1
 50 353 l 1
 534 353 l 1
534 181 m 1
 534 111 l 1
 50 111 l 1
 50 181 l 1
 534 181 l 1
EndSplineSet
Validated: 3073
EndChar

StartChar: greater
Encoding: 62 62 30
Width: 584
Flags: MW
LayerCount: 2
Fore
SplineSet
539 267 m 1
 539 198 l 1
 50 -9 l 1
 50 70 l 1
 444 231 l 1
 50 395 l 1
 50 474 l 1
 539 267 l 1
EndSplineSet
Validated: 3073
EndChar

StartChar: question
Encoding: 63 63 31
Width: 556
Flags: MW
LayerCount: 2
Fore
SplineSet
509 549 m 0
 509 384 330 365 330 246 c 2
 330 199 l 1
 240 199 l 1
 240 254 l 2
 240 390 419 423 419 549 c 0
 419 617 368 663 291 663 c 0
 187 663 162 596 162 507 c 1
 77 507 l 1
 77 661 152 741 296 741 c 0
 426 741 509 666 509 549 c 0
330 104 m 1
 330 0 l 1
 240 0 l 1
 240 104 l 1
 330 104 l 1
EndSplineSet
Validated: 3073
EndChar

StartChar: at
Encoding: 64 64 32
Width: 1015
Flags: MW
LayerCount: 2
Fore
SplineSet
665 501 m 1
 748 501 l 1
 658 221 l 1
 650 198 646 180 646 171 c 0
 646 147 669 127 696 127 c 0
 781 127 864 240 864 357 c 0
 864 524 703 664 512 664 c 0
 301 664 119 483 119 273 c 0
 119 82 282 -65 494 -65 c 0
 548 -65 605 -56 687 -33 c 1
 715 -100 l 1
 643 -127 563 -142 489 -142 c 0
 236 -142 34 36 34 258 c 0
 34 389 94 523 192 612 c 0
 280 692 406 741 525 741 c 0
 758 741 951 572 951 369 c 0
 951 291 920 210 865 146 c 0
 814 86 753 57 679 57 c 0
 616 57 578 83 569 134 c 1
 523 84 480 62 427 62 c 0
 334 62 264 141 264 245 c 0
 264 390 387 522 521 522 c 0
 576 522 618 492 643 435 c 1
 665 501 l 1
453 126 m 0
 548 126 609 281 609 368 c 0
 609 419 569 458 515 458 c 0
 431 458 354 356 354 244 c 0
 354 178 398 126 453 126 c 0
EndSplineSet
Validated: 3073
EndChar

StartChar: A
Encoding: 65 65 33
Width: 667
Flags: MW
AnchorPoint: "middle" 339 303 basechar 0
AnchorPoint: "below" 344 0 basechar 0
AnchorPoint: "ogonek" 600 -4 basechar 0
AnchorPoint: "above" 335 729 basechar 0
LayerCount: 2
Fore
SplineSet
474 219 m 1
 193 219 l 1
 116 0 l 1
 17 0 l 1
 277 729 l 1
 397 729 l 1
 653 0 l 1
 549 0 l 1
 474 219 l 1
448 297 m 1
 336 629 l 1
 216 297 l 1
 448 297 l 1
EndSplineSet
Validated: 3073
EndChar

StartChar: B
Encoding: 66 66 34
Width: 667
Flags: MW
AnchorPoint: "middle" 316 377 basechar 0
AnchorPoint: "above" 307 729 basechar 0
AnchorPoint: "below" 314 0 basechar 0
LayerCount: 2
Fore
SplineSet
623 208 m 0
 623 83 537 0 408 0 c 2
 79 0 l 1
 79 729 l 1
 375 729 l 2
 548 729 591 618 591 544 c 0
 591 470 556 416 490 385 c 1
 583 349 623 296 623 208 c 0
498 531 m 0
 498 625 430 647 352 647 c 2
 172 647 l 1
 172 415 l 1
 352 415 l 2
 440 415 498 444 498 531 c 0
399 82 m 2
 504 82 530 156 530 207 c 0
 530 281 485 333 399 333 c 2
 172 333 l 1
 172 82 l 1
 399 82 l 2
EndSplineSet
Validated: 3073
EndChar

StartChar: C
Encoding: 67 67 35
Width: 722
Flags: MW
AnchorPoint: "middle" 374 360 basechar 0
AnchorPoint: "below" 380 0 basechar 0
AnchorPoint: "above" 381 729 basechar 0
LayerCount: 2
Fore
SplineSet
48 356 m 0
 48 508 115 741 381 741 c 0
 541 741 633 663 662 503 c 1
 567 503 l 1
 546 605 488 659 370 659 c 0
 229 659 141 544 141 357 c 0
 141 175 233 59 378 59 c 0
 500 59 559 128 581 266 c 1
 677 266 l 1
 655 73 555 -23 377 -23 c 0
 114 -23 48 207 48 356 c 0
EndSplineSet
Validated: 3073
EndChar

StartChar: D
Encoding: 68 68 36
Width: 722
Flags: MW
AnchorPoint: "middle" 350 360 basechar 0
AnchorPoint: "above" 347 729 basechar 0
AnchorPoint: "below" 354 0 basechar 0
LayerCount: 2
Fore
SplineSet
89 0 m 1
 89 729 l 1
 370 729 l 2
 555 729 667 591 667 365 c 0
 667 138 554 0 370 0 c 2
 89 0 l 1
182 82 m 1
 354 82 l 2
 498 82 574 180 574 364 c 0
 574 550 498 647 354 647 c 2
 182 647 l 1
 182 82 l 1
EndSplineSet
Validated: 3073
EndChar

StartChar: E
Encoding: 69 69 37
Width: 667
Flags: MW
AnchorPoint: "middle" 350 360 basechar 0
AnchorPoint: "ogonek" 573 -1 basechar 0
AnchorPoint: "below" 344 0 basechar 0
AnchorPoint: "above" 344 729 basechar 0
LayerCount: 2
Fore
SplineSet
183 332 m 1
 183 82 l 1
 613 82 l 1
 613 0 l 1
 90 0 l 1
 90 729 l 1
 595 729 l 1
 595 647 l 1
 183 647 l 1
 183 414 l 1
 580 414 l 1
 580 332 l 1
 183 332 l 1
EndSplineSet
Validated: 3073
EndChar

StartChar: F
Encoding: 70 70 38
Width: 611
Flags: MW
AnchorPoint: "middle" 354 360 basechar 0
AnchorPoint: "above" 344 729 basechar 0
AnchorPoint: "below" 344 0 basechar 0
LayerCount: 2
Fore
SplineSet
183 332 m 1
 183 0 l 1
 90 0 l 1
 90 729 l 1
 579 729 l 1
 579 647 l 1
 183 647 l 1
 183 414 l 1
 531 414 l 1
 531 332 l 1
 183 332 l 1
EndSplineSet
Validated: 3073
EndChar

StartChar: G
Encoding: 71 71 39
Width: 778
Flags: MW
AnchorPoint: "middle" 386 360 basechar 0
AnchorPoint: "below" 403 0 basechar 0
AnchorPoint: "above" 403 729 basechar 0
LayerCount: 2
Fore
SplineSet
137 362 m 0
 137 245 189 59 398 59 c 0
 531 59 627 153 627 283 c 2
 627 303 l 1
 405 303 l 1
 405 385 l 1
 709 385 l 1
 709 -4 l 1
 650 -4 l 1
 627 93 l 1
 556 14 477 -23 378 -23 c 0
 181 -23 44 133 44 357 c 0
 44 503 114 741 394 741 c 0
 561 741 673 656 699 508 c 1
 604 508 l 1
 584 602 504 659 393 659 c 0
 239 659 137 541 137 362 c 0
EndSplineSet
Validated: 3073
EndChar

StartChar: H
Encoding: 72 72 40
Width: 722
Flags: MW
AnchorPoint: "middle" 364 368 basechar 0
AnchorPoint: "below" 363 0 basechar 0
AnchorPoint: "above" 363 729 basechar 0
LayerCount: 2
Fore
SplineSet
551 332 m 1
 176 332 l 1
 176 0 l 1
 83 0 l 1
 83 729 l 1
 176 729 l 1
 176 414 l 1
 551 414 l 1
 551 729 l 1
 644 729 l 1
 644 0 l 1
 551 0 l 1
 551 332 l 1
EndSplineSet
Validated: 3073
EndChar

StartChar: I
Encoding: 73 73 41
Width: 278
Flags: MW
AnchorPoint: "middle" 146 360 basechar 0
AnchorPoint: "ogonek" 146 1 basechar 0
AnchorPoint: "below" 146 0 basechar 0
AnchorPoint: "above" 142 729 basechar 0
LayerCount: 2
Fore
SplineSet
194 729 m 1
 194 0 l 1
 100 0 l 1
 100 729 l 1
 194 729 l 1
EndSplineSet
Validated: 3073
EndChar

StartChar: J
Encoding: 74 74 42
Width: 500
Flags: MW
AnchorPoint: "middle" 227 360 basechar 0
AnchorPoint: "below" 220 0 basechar 0
AnchorPoint: "above" 379 729 basechar 0
LayerCount: 2
Fore
SplineSet
221 55 m 0
 312 55 333 124 333 216 c 2
 333 729 l 1
 426 729 l 1
 426 182 l 2
 426 56 347 -23 220 -23 c 0
 95 -23 17 52 17 170 c 2
 17 234 l 1
 112 234 l 1
 112 187 l 2
 112 102 151 55 221 55 c 0
EndSplineSet
Validated: 3073
EndChar

StartChar: K
Encoding: 75 75 43
Width: 667
Flags: MW
AnchorPoint: "middle" 333 396 basechar 0
AnchorPoint: "above" 344 729 basechar 0
AnchorPoint: "below" 344 0 basechar 0
LayerCount: 2
Fore
SplineSet
172 255 m 1
 172 0 l 1
 79 0 l 1
 79 729 l 1
 172 729 l 1
 172 360 l 1
 535 729 l 1
 655 729 l 1
 358 432 l 1
 658 0 l 1
 548 0 l 1
 291 374 l 1
 172 255 l 1
EndSplineSet
Validated: 3073
EndChar

StartChar: L
Encoding: 76 76 44
Width: 556
Flags: MW
AnchorPoint: "middle" 303 360 basechar 0
AnchorPoint: "below" 302 0 basechar 0
AnchorPoint: "above" 140 737 basechar 0
LayerCount: 2
Fore
SplineSet
173 729 m 1
 173 82 l 1
 533 82 l 1
 533 0 l 1
 80 0 l 1
 80 729 l 1
 173 729 l 1
EndSplineSet
Validated: 3073
EndChar

StartChar: M
Encoding: 77 77 45
Width: 833
Flags: MW
AnchorPoint: "middle" 420 360 basechar 0
AnchorPoint: "below" 420 -2 basechar 0
AnchorPoint: "above" 420 727 basechar 0
LayerCount: 2
Fore
SplineSet
468 0 m 1
 370 0 l 1
 163 611 l 1
 163 0 l 1
 75 0 l 1
 75 729 l 1
 204 729 l 1
 420 94 l 1
 632 729 l 1
 761 729 l 1
 761 0 l 1
 673 0 l 1
 673 611 l 1
 468 0 l 1
EndSplineSet
Validated: 3073
EndChar

StartChar: N
Encoding: 78 78 46
Width: 722
Flags: MW
AnchorPoint: "middle" 362 360 basechar 0
AnchorPoint: "below" 343 0 basechar 0
AnchorPoint: "above" 368 737 basechar 0
LayerCount: 2
Fore
SplineSet
646 729 m 1
 646 0 l 1
 541 0 l 1
 164 591 l 1
 164 0 l 1
 76 0 l 1
 76 729 l 1
 177 729 l 1
 558 133 l 1
 558 729 l 1
 646 729 l 1
EndSplineSet
Validated: 3073
EndChar

StartChar: O
Encoding: 79 79 47
Width: 778
Flags: MW
AnchorPoint: "middle" 387 360 basechar 0
AnchorPoint: "ogonek" 451 -4 basechar 0
AnchorPoint: "below" 390 0 basechar 0
AnchorPoint: "above" 390 729 basechar 0
LayerCount: 2
Fore
SplineSet
742 353 m 0
 742 143 608 -23 390 -23 c 0
 180 -23 38 131 38 359 c 0
 38 587 180 741 389 741 c 0
 603 741 742 588 742 353 c 0
389 659 m 0
 235 659 131 539 131 359 c 0
 131 179 235 59 390 59 c 0
 544 59 649 179 649 355 c 0
 649 539 547 659 389 659 c 0
EndSplineSet
Validated: 3073
EndChar

StartChar: P
Encoding: 80 80 48
Width: 667
Flags: MW
AnchorPoint: "middle" 321 360 basechar 0
AnchorPoint: "below" 314 0 basechar 0
AnchorPoint: "above" 307 729 basechar 0
LayerCount: 2
Fore
SplineSet
617 515 m 0
 617 390 533 309 413 309 c 2
 184 309 l 1
 184 0 l 1
 91 0 l 1
 91 729 l 1
 392 729 l 2
 536 729 617 652 617 515 c 0
184 391 m 1
 378 391 l 2
 467 391 520 439 520 519 c 0
 520 599 467 647 378 647 c 2
 184 647 l 1
 184 391 l 1
EndSplineSet
Validated: 3073
EndChar

StartChar: Q
Encoding: 81 81 49
Width: 778
Flags: MW
AnchorPoint: "middle" 386 360 basechar 0
AnchorPoint: "above" 390 729 basechar 0
AnchorPoint: "below" 390 0 basechar 0
LayerCount: 2
Fore
SplineSet
733 -1 m 1
 686 -59 l 1
 581 28 l 1
 522 -7 462 -23 390 -23 c 0
 180 -23 38 131 38 359 c 0
 38 587 180 741 390 741 c 0
 600 741 742 587 742 361 c 0
 742 246 708 152 639 76 c 1
 733 -1 l 1
481 205 m 1
 570 132 l 1
 624 193 649 266 649 360 c 0
 649 539 545 659 390 659 c 0
 235 659 131 539 131 359 c 0
 131 179 234 59 389 59 c 0
 433 59 466 67 509 87 c 1
 435 149 l 1
 481 205 l 1
EndSplineSet
Validated: 3073
EndChar

StartChar: R
Encoding: 82 82 50
Width: 722
Flags: MW
AnchorPoint: "middle" 362 360 basechar 0
AnchorPoint: "below" 364 0 basechar 0
AnchorPoint: "above" 357 729 basechar 0
LayerCount: 2
Fore
SplineSet
536 360 m 1
 626.5 321 636 254.75 636 189.25 c 0
 636 171.844 635.329 154.492 635.329 137.718 c 0
 635.329 91.3676 640.451 49.4336 679 23 c 1
 679 0 l 1
 566 0 l 1
 553 30 546 74 546 119 c 2
 546 184 l 2
 546 274 509 314 426 314 c 2
 186 314 l 1
 186 0 l 1
 93 0 l 1
 93 729 l 1
 429 729 l 2
 572 729 651 660 651 534 c 0
 651 451 618 400 536 360 c 1
554 521 m 0
 554 625 489 647 411 647 c 2
 186 647 l 1
 186 396 l 1
 411 396 l 2
 510 396 554 435 554 521 c 0
EndSplineSet
Validated: 3073
EndChar

StartChar: S
Encoding: 83 83 51
Width: 667
Flags: MW
AnchorPoint: "middle" 331 364 basechar 0
AnchorPoint: "below" 336 0 basechar 0
AnchorPoint: "above" 335 729 basechar 0
LayerCount: 2
Fore
SplineSet
342 59 m 0
 500 59 528 139 528 191 c 0
 528 248 486 285 394 309 c 2
 213 357 l 2
 117 382 70 438 70 527 c 0
 70 659 169 741 329 741 c 0
 497 741 595 658 596 515 c 1
 508 515 l 1
 507 610 442 663 326 663 c 0
 228 663 163 614 163 540 c 0
 163 484 195 456 283 432 c 2
 466 383 l 2
 565 356 621 290 621 200 c 0
 621 111 564 -23 336 -23 c 0
 210 -23 51 25 48 232 c 1
 136 232 l 1
 136 230 136 229 136 227 c 0
 136 153 177 59 342 59 c 0
EndSplineSet
Validated: 3073
EndChar

StartChar: T
Encoding: 84 84 52
Width: 611
Flags: MW
AnchorPoint: "middle" 309 360 basechar 0
AnchorPoint: "below" 305 0 basechar 0
AnchorPoint: "above" 308 729 basechar 0
LayerCount: 2
Fore
SplineSet
354 647 m 1
 354 0 l 1
 261 0 l 1
 261 647 l 1
 21 647 l 1
 21 729 l 1
 593 729 l 1
 593 647 l 1
 354 647 l 1
EndSplineSet
Validated: 3073
EndChar

StartChar: U
Encoding: 85 85 53
Width: 722
Flags: MW
AnchorPoint: "middle" 363 367 basechar 0
AnchorPoint: "ogonek" 452 1 basechar 0
AnchorPoint: "below" 365 0 basechar 0
AnchorPoint: "above" 365 729 basechar 0
LayerCount: 2
Fore
SplineSet
552 729 m 1
 645 729 l 1
 645 217 l 2
 645 71 535 -23 364 -23 c 0
 191 -23 85 69 85 217 c 2
 85 729 l 1
 178 729 l 1
 178 217 l 2
 178 107 257 59 364 59 c 0
 481 59 552 119 552 217 c 2
 552 729 l 1
EndSplineSet
Validated: 3073
EndChar

StartChar: V
Encoding: 86 86 54
Width: 667
Flags: MW
AnchorPoint: "middle" 341 429 basechar 0
AnchorPoint: "above" 344 729 basechar 0
AnchorPoint: "below" 344 0 basechar 0
LayerCount: 2
Fore
SplineSet
392 0 m 1
 292 0 l 1
 30 729 l 1
 130 729 l 1
 344 112 l 1
 546 729 l 1
 645 729 l 1
 392 0 l 1
EndSplineSet
Validated: 3073
EndChar

StartChar: W
Encoding: 87 87 55
Width: 944
Flags: MW
AnchorPoint: "middle" 477 360 basechar 0
AnchorPoint: "below" 475 0 basechar 0
AnchorPoint: "above" 475 729 basechar 0
LayerCount: 2
Fore
SplineSet
744 0 m 1
 642 0 l 1
 474 599 l 1
 311 0 l 1
 209 0 l 1
 22 729 l 1
 126 729 l 1
 263 137 l 1
 425 729 l 1
 525 729 l 1
 691 137 l 1
 825 729 l 1
 929 729 l 1
 744 0 l 1
EndSplineSet
Validated: 3073
EndChar

StartChar: X
Encoding: 88 88 56
Width: 667
Flags: MW
AnchorPoint: "middle" 337 374 basechar 0
AnchorPoint: "above" 333 729 basechar 0
AnchorPoint: "below" 333 0 basechar 0
LayerCount: 2
Fore
SplineSet
391 374 m 1
 649 0 l 1
 534 0 l 1
 335 304 l 1
 135 0 l 1
 22 0 l 1
 280 374 l 1
 38 729 l 1
 151 729 l 1
 338 443 l 1
 526 729 l 1
 637 729 l 1
 391 374 l 1
EndSplineSet
Validated: 3073
EndChar

StartChar: Y
Encoding: 89 89 57
Width: 667
Flags: MW
AnchorPoint: "middle" 341 455 basechar 0
AnchorPoint: "ogonek" 353 -1 basechar 0
AnchorPoint: "below" 343 2 basechar 0
AnchorPoint: "above" 343 731 basechar 0
LayerCount: 2
Fore
SplineSet
387 286 m 1
 387 0 l 1
 294 0 l 1
 294 286 l 1
 13 729 l 1
 128 729 l 1
 342 374 l 1
 550 729 l 1
 661 729 l 1
 387 286 l 1
EndSplineSet
Validated: 3073
EndChar

StartChar: Z
Encoding: 90 90 58
Width: 611
Flags: MW
AnchorPoint: "middle" 307 360 basechar 0
AnchorPoint: "below" 315 0 basechar 0
AnchorPoint: "above" 319 729 basechar 0
LayerCount: 2
Fore
SplineSet
581 729 m 1
 581 645 l 1
 145 82 l 1
 583 82 l 1
 583 0 l 1
 28 0 l 1
 28 82 l 1
 466 647 l 1
 56 647 l 1
 56 729 l 1
 581 729 l 1
EndSplineSet
Validated: 3073
EndChar

StartChar: bracketleft
Encoding: 91 91 59
Width: 278
Flags: MW
LayerCount: 2
Fore
SplineSet
250 729 m 1
 250 657 l 1
 147 657 l 1
 147 -140 l 1
 250 -140 l 1
 250 -212 l 1
 64 -212 l 1
 64 729 l 1
 250 729 l 1
EndSplineSet
Validated: 3073
EndChar

StartChar: backslash
Encoding: 92 92 60
Width: 278
Flags: MW
LayerCount: 2
Fore
SplineSet
47 729 m 1
 284 -20 l 1
 229 -20 l 1
 -8 729 l 1
 47 729 l 1
EndSplineSet
Validated: 3073
EndChar

StartChar: bracketright
Encoding: 93 93 61
Width: 277
Flags: HMW
LayerCount: 2
Fore
SplineSet
22 -212 m 5
 22 -140 l 5
 125 -140 l 5
 125 657 l 5
 22 657 l 5
 22 729 l 5
 208 729 l 5
 208 -212 l 5
 22 -212 l 5
EndSplineSet
Validated: 3073
EndChar

StartChar: asciicircum
Encoding: 94 94 62
Width: 469
Flags: MW
LayerCount: 2
Fore
SplineSet
197 709 m 1
 270 709 l 1
 425 329 l 1
 356 329 l 1
 234 629 l 1
 113 329 l 1
 44 329 l 1
 197 709 l 1
EndSplineSet
Validated: 3073
EndChar

StartChar: underscore
Encoding: 95 95 63
Width: 556
Flags: MW
LayerCount: 2
Fore
SplineSet
578 -126 m 1
 578 -176 l 1
 -22 -176 l 1
 -22 -126 l 1
 578 -126 l 1
EndSplineSet
Validated: 3073
EndChar

StartChar: grave
Encoding: 96 96 64
Width: 333
Flags: MW
LayerCount: 2
Fore
SplineSet
135 740 m 1
 231 592 l 1
 171 592 l 1
 22 740 l 1
 135 740 l 1
EndSplineSet
Validated: 3073
EndChar

StartChar: a
Encoding: 97 97 65
Width: 556
Flags: MW
AnchorPoint: "middle" 260 264 basechar 0
AnchorPoint: "ogonek" 480 0 basechar 0
AnchorPoint: "below" 274 0 basechar 0
AnchorPoint: "above" 274 538 basechar 0
LayerCount: 2
Fore
SplineSet
65 369 m 1
 70 511 181 539 275 539 c 0
 404 539 472 489 472 396 c 2
 472 88 l 2
 472 62 488 47 517 47 c 0
 522 47 526 47 535 49 c 1
 535 -14 l 1
 508 -21 495 -23 478 -23 c 0
 424 -23 398 1 392 54 c 1
 333 0 280 -23 214 -23 c 0
 108 -23 42 37 42 132 c 0
 42 272 149 284 302 304 c 0
 368 312 389 327 389 362 c 2
 389 384 l 2
 389 434 347 462 272 462 c 0
 194 462 156 433 149 369 c 1
 65 369 l 1
232 50 m 0
 331 50 389 115 389 165 c 2
 389 259 l 1
 304 220 129 249 129 134 c 0
 129 81 167 50 232 50 c 0
EndSplineSet
Validated: 3073
EndChar

StartChar: b
Encoding: 98 98 66
Width: 556
Flags: MW
AnchorPoint: "middle" 263 264 basechar 0
AnchorPoint: "below" 274 0 basechar 0
LayerCount: 2
Fore
SplineSet
54 729 m 1
 137 729 l 1
 137 453 l 1
 176 512 227 539 299 539 c 0
 437 539 523 434 523 264 c 0
 523 90 433 -23 295 -23 c 0
 222 -23 169 6 129 67 c 1
 129 0 l 1
 54 0 l 1
 54 729 l 1
283 461 m 0
 195 461 137 381 137 258 c 0
 137 135 195 55 283 55 c 0
 374 55 436 136 436 255 c 0
 436 380 376 461 283 461 c 0
EndSplineSet
Validated: 3073
EndChar

StartChar: c
Encoding: 99 99 67
Width: 500
Flags: MW
AnchorPoint: "middle" 260 264 basechar 0
AnchorPoint: "below" 274 0 basechar 0
AnchorPoint: "above" 265 538 basechar 0
LayerCount: 2
Fore
SplineSet
471 348 m 5
 387 348 l 5
 377 421 333 462 263 462 c 4
 172 462 118 384 118 253 c 4
 118 129 173 54 265 54 c 4
 336 54 379 96 393 180 c 5
 477 180 l 5
 467 52 388 -23 263 -23 c 4
 121 -23 31 84 31 253 c 4
 31 427 123 539 264 539 c 4
 384 539 461 473 471 348 c 5
EndSplineSet
Validated: 3073
EndChar

StartChar: d
Encoding: 100 100 68
Width: 556
Flags: MW
AnchorPoint: "middle" 260 264 basechar 0
AnchorPoint: "below" 274 0 basechar 0
LayerCount: 2
Fore
SplineSet
495 729 m 1
 495 0 l 1
 421 0 l 1
 421 69 l 1
 376 4 326 -23 254 -23 c 0
 113 -23 26 86 26 263 c 0
 26 430 115 539 251 539 c 0
 321 539 377 511 412 458 c 1
 412 729 l 1
 495 729 l 1
265 461 m 0
 174 461 113 380 113 258 c 0
 113 136 174 55 266 55 c 0
 354 55 412 135 412 256 c 0
 412 381 355 461 265 461 c 0
EndSplineSet
Validated: 3073
EndChar

StartChar: e
Encoding: 101 101 69
Width: 556
Flags: MW
AnchorPoint: "middle" 277 264 basechar 0
AnchorPoint: "ogonek" 324 0 basechar 0
AnchorPoint: "below" 281 -1 basechar 0
AnchorPoint: "above" 285 538 basechar 0
LayerCount: 2
Fore
SplineSet
513 234 m 5
 127 234 l 5
 128 182 135 152 155 122 c 4
 183 78 228 54 281 54 c 4
 348 54 395 90 418 159 c 5
 502 159 l 5
 481 45 398 -23 278 -23 c 4
 131 -23 40 83 40 255 c 4
 40 427 134 539 280 539 c 4
 378 539 458 487 492 401 c 4
 507 362 513 314 513 234 c 5
129 302 m 5
 423 302 l 5
 424 304 424 306 424 308 c 4
 424 394 361 462 279 462 c 4
 195 462 136 399 129 302 c 5
EndSplineSet
Validated: 3073
EndChar

StartChar: f
Encoding: 102 102 70
Width: 278
Flags: MW
AnchorPoint: "middle" 130 333 basechar 0
AnchorPoint: "below" 134 2 basechar 0
LayerCount: 2
Fore
SplineSet
258 524 m 5
 258 456 l 5
 171 456 l 5
 171 0 l 5
 88 0 l 5
 88 456 l 5
 18 456 l 5
 18 524 l 5
 88 524 l 5
 88 613 l 6
 88 688 134 732 211 732 c 4
 228 732 239 731 258 727 c 5
 258 658 l 5
 239 659 236 659 229 659 c 4
 191 659 171 641 171 606 c 6
 171 524 l 5
 258 524 l 5
EndSplineSet
Validated: 3073
EndChar

StartChar: g
Encoding: 103 103 71
Width: 556
Flags: MW
AnchorPoint: "middle" 260 208 basechar 0
AnchorPoint: "below" 260 -200 basechar 0
AnchorPoint: "above" 250 538 basechar 0
LayerCount: 2
Fore
SplineSet
245 -23 m 0
 126 -23 29 82 29 253 c 0
 29 423 119 539 252 539 c 0
 319 539 370 510 412 448 c 1
 412 524 l 1
 489 524 l 1
 489 86 l 2
 489 -96 454 -218 255 -218 c 0
 132 -218 55 -159 46 -60 c 1
 131 -60 l 1
 145 -145 232 -148 258 -148 c 0
 376 -148 404 -76 404 44 c 2
 404 71 l 1
 357 5 311 -23 245 -23 c 0
261 462 m 0
 172 462 116 384 116 258 c 0
 116 131 171 54 262 54 c 0
 350 54 404 130 404 255 c 0
 404 386 351 462 261 462 c 0
EndSplineSet
Validated: 3073
EndChar

StartChar: h
Encoding: 104 104 72
Width: 556
Flags: MW
AnchorPoint: "middle" 277 287 basechar 0
AnchorPoint: "below" 274 0 basechar 0
AnchorPoint: "above" 110 716 basechar 0
LayerCount: 2
Fore
SplineSet
403 363 m 2
 403 445 338 466 295 466 c 0
 209 466 153 396 153 289 c 2
 153 0 l 1
 70 0 l 1
 70 729 l 1
 153 729 l 1
 153 452 l 1
 202 516 247 539 321 539 c 0
 423 539 486 484 486 396 c 2
 486 0 l 1
 403 0 l 1
 403 363 l 2
EndSplineSet
Validated: 3073
EndChar

StartChar: i
Encoding: 105 105 73
Width: 222
Flags: MW
AnchorPoint: "middle" 107 322 basechar 0
AnchorPoint: "ogonek" 111 0 basechar 0
AnchorPoint: "below" 110 0 basechar 0
AnchorPoint: "above" 111 743 basechar 0
LayerCount: 2
Fore
SplineSet
150 518 m 5
 150 -6 l 5
 67 -6 l 5
 67 518 l 5
 150 518 l 5
150 729 m 5
 150 624 l 5
 66 624 l 5
 66 729 l 5
 150 729 l 5
EndSplineSet
Validated: 3073
EndChar

StartChar: j
Encoding: 106 106 74
Width: 222
Flags: MW
AnchorPoint: "middle" 107 322 basechar 0
AnchorPoint: "below" 88 -200 basechar 0
AnchorPoint: "above" 109.5 743 basechar 0
LayerCount: 2
Fore
SplineSet
70 524 m 1
 153 524 l 1
 153 -109 l 2
 153 -180 104 -218 10 -218 c 0
 -3 -218 -8 -217 -18 -215 c 1
 -18 -144 l 1
 -1 -145 -1 -145 2 -145 c 0
 53 -145 70 -128 70 -76 c 2
 70 524 l 1
153 729 m 1
 153 624 l 1
 70 624 l 1
 70 729 l 1
 153 729 l 1
EndSplineSet
Validated: 3073
EndChar

StartChar: k
Encoding: 107 107 75
Width: 500
Flags: MW
AnchorPoint: "middle" 218 338 basechar 0
AnchorPoint: "above" 102 716 basechar 0
AnchorPoint: "below" 262 0 basechar 0
LayerCount: 2
Fore
SplineSet
141 729 m 1
 141 302 l 1
 363 524 l 1
 470 524 l 1
 288 343 l 1
 502 0 l 1
 399 0 l 1
 222 284 l 1
 141 204 l 1
 141 0 l 1
 58 0 l 1
 58 729 l 1
 141 729 l 1
EndSplineSet
Validated: 3073
EndChar

StartChar: l
Encoding: 108 108 76
Width: 222
Flags: MW
AnchorPoint: "middle" 110 338 basechar 0
AnchorPoint: "above" 111 743 basechar 0
AnchorPoint: "below" 108 0 basechar 0
LayerCount: 2
Fore
SplineSet
152 729 m 5
 152 0 l 5
 68 0 l 5
 68 729 l 5
 152 729 l 5
EndSplineSet
Validated: 3073
EndChar

StartChar: m
Encoding: 109 109 77
Width: 833
Flags: MW
AnchorPoint: "middle" 416 281 basechar 0
AnchorPoint: "above" 416.5 538 basechar 0
AnchorPoint: "below" 412 -2 basechar 0
LayerCount: 2
Fore
SplineSet
70 524 m 1
 147 524 l 1
 147 450 l 1
 192 513 238 539 308 539 c 0
 376 539 418 515 449 459 c 1
 498 518 540 539 610 539 c 0
 708 539 762 487 762 393 c 2
 762 0 l 1
 678 0 l 1
 678 361 l 2
 678 427 642 466 581 466 c 0
 513 466 458 405 458 329 c 2
 458 0 l 1
 374 0 l 1
 374 361 l 2
 374 428 339 466 277 466 c 0
 209 466 154 405 154 329 c 2
 154 0 l 1
 70 0 l 1
 70 524 l 1
EndSplineSet
Validated: 3073
EndChar

StartChar: n
Encoding: 110 110 78
Width: 556
Flags: MW
AnchorPoint: "middle" 280 281 basechar 0
AnchorPoint: "below" 274 0 basechar 0
AnchorPoint: "above" 278 538 basechar 0
LayerCount: 2
Fore
SplineSet
70 524 m 1
 147 524 l 1
 147 436 l 1
 193 509 243 539 321 539 c 0
 422 539 487 483 487 396 c 2
 487 0 l 1
 404 0 l 1
 404 363 l 2
 404 426 362 466 296 466 c 0
 210 466 154 396 154 289 c 2
 154 0 l 1
 70 0 l 1
 70 524 l 1
EndSplineSet
Validated: 3073
EndChar

StartChar: o
Encoding: 111 111 79
Width: 556
Flags: MW
AnchorPoint: "middle" 273 257 basechar 0
AnchorPoint: "ogonek" 310 0 basechar 0
AnchorPoint: "below" 273 0 basechar 0
AnchorPoint: "above" 272 538 basechar 0
LayerCount: 2
Fore
SplineSet
272 539 m 0
 423 539 510 435 510 254 c 0
 510 82 420 -23 273 -23 c 0
 124 -23 36 82 36 258 c 0
 36 434 125 539 272 539 c 0
273 462 m 0
 180 462 123 384 123 258 c 0
 123 131 180 54 273 54 c 0
 365 54 423 132 423 255 c 0
 423 385 367 462 273 462 c 0
EndSplineSet
Validated: 3073
EndChar

StartChar: p
Encoding: 112 112 80
Width: 556
Flags: MW
AnchorPoint: "middle" 273 251 basechar 0
AnchorPoint: "below" 272 -200 basechar 0
AnchorPoint: "above" 272 538 basechar 0
LayerCount: 2
Fore
SplineSet
54 -218 m 1
 54 524 l 1
 131 524 l 1
 131 445 l 1
 170 507 227 539 298 539 c 0
 437 539 523 429 523 253 c 0
 523 86 434 -23 299 -23 c 0
 231 -23 182 1 138 55 c 1
 138 -218 l 1
 54 -218 l 1
284 461 m 0
 196 461 138 381 138 258 c 0
 138 135 196 55 284 55 c 0
 375 55 436 136 436 255 c 0
 436 380 376 461 284 461 c 0
EndSplineSet
Validated: 3073
EndChar

StartChar: q
Encoding: 113 113 81
Width: 556
Flags: MW
AnchorPoint: "middle" 263 256 basechar 0
AnchorPoint: "below" 272 -200 basechar 0
AnchorPoint: "above" 272 538 basechar 0
LayerCount: 2
Fore
SplineSet
495 -218 m 1
 412 -218 l 1
 412 60 l 1
 373 3 323 -23 250 -23 c 0
 112 -23 26 82 26 252 c 0
 26 426 116 539 254 539 c 0
 323 539 382 509 421 454 c 1
 421 524 l 1
 495 524 l 1
 495 -218 l 1
266 461 m 0
 174 461 113 379 113 258 c 0
 113 136 174 55 266 55 c 0
 354 55 412 135 412 255 c 0
 412 381 355 461 266 461 c 0
EndSplineSet
Validated: 3073
EndChar

StartChar: r
Encoding: 114 114 82
Width: 333
Flags: MW
AnchorPoint: "middle" 185 257 basechar 0
AnchorPoint: "below" 110 0 basechar 0
AnchorPoint: "above" 191 538 basechar 0
LayerCount: 2
Fore
SplineSet
321 451 m 1
 220 449 153 419 153 272 c 2
 153 0 l 1
 69 0 l 1
 69 524 l 1
 146 524 l 1
 146 429 l 1
 194 507 235 539 289 539 c 0
 300 539 307 538 321 536 c 1
 321 451 l 1
EndSplineSet
Validated: 3073
EndChar

StartChar: s
Encoding: 115 115 83
Width: 500
Flags: MW
AnchorPoint: "middle" 242 257 basechar 0
AnchorPoint: "below" 242 0 basechar 0
AnchorPoint: "above" 246 538 basechar 0
LayerCount: 2
Fore
SplineSet
122 156 m 5
 129 105 148 54 250 54 c 4
 323 54 372 87 372 136 c 4
 372 174 349 195 291 209 c 6
 213 228 l 6
 89 258 47 297 47 379 c 4
 47 476 126 539 248 539 c 4
 369 539 437 481 438 378 c 5
 350 378 l 5
 348 433 312 462 245 462 c 4
 177 462 134 431 134 383 c 4
 134 346 163 324 231 308 c 6
 311 289 l 6
 415 264 459 221 459 143 c 4
 459 42 375 -23 243 -23 c 4
 106 -23 38 35 34 156 c 5
 122 156 l 5
EndSplineSet
Validated: 3073
EndChar

StartChar: t
Encoding: 116 116 84
Width: 278
Flags: MW
AnchorPoint: "middle" 129 304 basechar 0
AnchorPoint: "below" 156 0 basechar 0
LayerCount: 2
Fore
SplineSet
254 524 m 5
 254 456 l 5
 168 456 l 5
 168 97 l 6
 168 60 178 50 214 50 c 4
 230 50 243 51 254 54 c 5
 254 -16 l 5
 226 -21 206 -23 186 -23 c 4
 121 -23 85 7 85 60 c 6
 85 456 l 5
 14 456 l 5
 14 524 l 5
 85 524 l 5
 85 668 l 5
 168 668 l 5
 168 524 l 5
 254 524 l 5
EndSplineSet
Validated: 3073
EndChar

StartChar: u
Encoding: 117 117 85
Width: 556
Flags: MW
AnchorPoint: "middle" 258 257 basechar 0
AnchorPoint: "below" 247 0 basechar 0
AnchorPoint: "ogonek" 447 0 basechar 0
AnchorPoint: "above" 273 538 basechar 0
LayerCount: 2
Fore
SplineSet
482 0 m 1
 407 0 l 1
 407 73 l 1
 358 4 309 -23 232 -23 c 0
 130 -23 65 33 65 120 c 2
 65 524 l 1
 148 524 l 1
 148 153 l 2
 148 90 190 50 256 50 c 0
 343 50 399 120 399 227 c 2
 399 524 l 1
 482 524 l 1
 482 0 l 1
EndSplineSet
Validated: 3073
EndChar

StartChar: v
Encoding: 118 118 86
Width: 500
Flags: MW
AnchorPoint: "middle" 246 304 basechar 0
AnchorPoint: "below" 241 0 basechar 0
LayerCount: 2
Fore
SplineSet
285 0 m 1
 194 0 l 1
 10 524 l 1
 104 524 l 1
 244 99 l 1
 392 524 l 1
 486 524 l 1
 285 0 l 1
EndSplineSet
Validated: 3073
EndChar

StartChar: w
Encoding: 119 119 87
Width: 722
Flags: MW
AnchorPoint: "middle" 354 257 basechar 0
AnchorPoint: "below" 353 0 basechar 0
AnchorPoint: "above" 356 538 basechar 0
LayerCount: 2
Fore
SplineSet
554 0 m 5
 459 0 l 5
 353 411 l 5
 252 0 l 5
 158 0 l 5
 6 524 l 5
 98 524 l 5
 205 116 l 5
 305 524 l 5
 407 524 l 5
 510 116 l 5
 614 524 l 5
 708 524 l 5
 554 0 l 5
EndSplineSet
Validated: 3073
EndChar

StartChar: x
Encoding: 120 120 88
Width: 500
Flags: HMW
AnchorPoint: "middle" 246 270 basechar 0
AnchorPoint: "below" 244 0 basechar 0
LayerCount: 2
Fore
SplineSet
292 271 m 1
 473 0 l 1
 376 0 l 1
 245 201 l 1
 112 0 l 1
 17 0 l 1
 202 267 l 1
 27 524 l 1
 122 524 l 1
 248 334 l 1
 374 524 l 1
 468 524 l 1
 292 271 l 1
EndSplineSet
Validated: 3073
EndChar

StartChar: y
Encoding: 121 121 89
Width: 500
Flags: MW
AnchorPoint: "middle" 249 229 basechar 0
AnchorPoint: "ogonek" 376 -2 basechar 0
AnchorPoint: "above" 248 538 basechar 0
LayerCount: 2
Fore
SplineSet
388 524 m 1
 478 524 l 1
 245 -110 l 2
 216 -187 167 -218 110 -218 c 0
 88 -218 71 -214 54 -205 c 1
 54 -130 l 1
 72 -134 86 -136 98 -136 c 0
 133 -136 151 -122 165 -85 c 2
 197 -2 l 1
 20 524 l 1
 109 524 l 1
 243 116 l 1
 388 524 l 1
EndSplineSet
Validated: 3073
EndChar

StartChar: z
Encoding: 122 122 90
Width: 500
Flags: MW
AnchorPoint: "middle" 238 257 basechar 0
AnchorPoint: "below" 239 0 basechar 0
AnchorPoint: "above" 250 538 basechar 0
LayerCount: 2
Fore
SplineSet
443 524 m 5
 443 450 l 5
 132 73 l 5
 457 73 l 5
 457 0 l 5
 31 0 l 5
 31 75 l 5
 344 451 l 5
 52 451 l 5
 52 524 l 5
 443 524 l 5
EndSplineSet
Validated: 3073
EndChar

StartChar: braceleft
Encoding: 123 123 91
Width: 334
Flags: MW
LayerCount: 2
Fore
SplineSet
276 729 m 1
 276 664 l 1
 261 664 l 2
 212 664 198 649 198 597 c 2
 198 416 l 2
 198 324 177 283 116 259 c 1
 172 233 198 184 198 101 c 2
 198 -80 l 2
 198 -132 212 -147 261 -147 c 2
 276 -147 l 1
 276 -212 l 1
 230 -212 l 2
 161 -212 121 -164 121 -81 c 2
 121 86 l 2
 121 178 102 212 43 224 c 1
 43 293 l 1
 102 305 121 338 121 431 c 2
 121 598 l 2
 121 681 161 729 230 729 c 2
 276 729 l 1
EndSplineSet
Validated: 3073
EndChar

StartChar: bar
Encoding: 124 124 92
Width: 260
Flags: MW
LayerCount: 2
Fore
SplineSet
100 729 m 1
 160 729 l 1
 160 -212 l 1
 100 -212 l 1
 100 729 l 1
EndSplineSet
Validated: 3073
EndChar

StartChar: braceright
Encoding: 125 125 93
Width: 334
Flags: MW
LayerCount: 2
Fore
SplineSet
29 -212 m 1
 29 -147 l 1
 45 -147 l 2
 95 -147 109 -132 109 -80 c 2
 109 101 l 2
 109 184 135 233 191 258 c 1
 135 284 109 334 109 416 c 2
 109 597 l 2
 109 649 95 664 45 664 c 2
 29 664 l 1
 29 729 l 1
 76 729 l 2
 146 729 186 681 186 598 c 2
 186 431 l 2
 186 339 205 305 262 293 c 1
 262 224 l 1
 205 212 186 178 186 86 c 2
 186 -81 l 2
 186 -164 146 -212 76 -212 c 2
 29 -212 l 1
EndSplineSet
Validated: 3073
EndChar

StartChar: asciitilde
Encoding: 126 126 94
Width: 584
Flags: HMW
LayerCount: 2
Fore
SplineSet
181 371 m 0
 138 371 130 320 128 293 c 1
 75 293 l 1
 80 387 118 438 183 438 c 0
 201 438 220 432 237 422 c 2
 354 353 l 2
 374 341 390 336 404 336 c 0
 447.144 336 455 364.924 455 411 c 1
 508 411 l 1
 508 307.1 466 268 403 268 c 4
 378 268 348 278 322 294 c 2
 224 357 l 2
 214 363 191 371 181 371 c 0
EndSplineSet
Validated: 3073
EndChar

StartChar: cent
Encoding: 162 162 97
Width: 556
Flags: MW
LayerCount: 2
Fore
SplineSet
312 462 m 1
 312 53 l 1
 376 60 414 101 426 180 c 1
 510 180 l 1
 503 60 428 -17 312 -23 c 1
 312 -120 l 1
 270 -120 l 1
 270 -22 l 1
 135 -10 52 94 52 253 c 0
 52 416 135 524 270 538 c 1
 270 628 l 1
 312 628 l 1
 312 539 l 1
 429 531 498 462 504 348 c 1
 420 348 l 1
 413 415 373 457 312 462 c 1
270 55 m 1
 270 461 l 1
 184 445 139 374 139 253 c 0
 139 140 187 68 270 55 c 1
EndSplineSet
Validated: 3073
EndChar

StartChar: sterling
Encoding: 163 163 98
Width: 556
Flags: MW
LayerCount: 2
Fore
SplineSet
147 523 m 0
 147 461 180 429 206 376 c 1
 366 376 l 1
 366 321 l 1
 230 321 l 1
 240 292 245 269 245 250 c 0
 245 198 217 152 127 61 c 1
 166 87 206 100 249 100 c 0
 313 100 358 69 410 69 c 0
 436 69 464 79 493 99 c 1
 535 33 l 1
 495 -6 456 -23 404 -23 c 0
 320 -23 265 23 192 23 c 0
 157 23 121 11 83 -14 c 1
 35 52 l 1
 127 131 160 182 160 243 c 0
 160 268 151 296 136 321 c 1
 26 321 l 1
 26 376 l 1
 107 376 l 1
 61 452 54 471 54 515 c 0
 54 636 158 729 292 729 c 0
 377 729 509 697 512 497 c 1
 424 497 l 1
 421 600 375 651 288 651 c 0
 203 651 147 600 147 523 c 0
EndSplineSet
Validated: 3073
EndChar

StartChar: currency
Encoding: 164 164 99
Width: 556
Flags: MW
LayerCount: 2
Fore
SplineSet
485 190 m 1
 427 136 l 1
 374 189 l 1
 347 169 313 159 274 159 c 0
 241 159 206 168 180 184 c 1
 129 133 l 1
 73 190 l 1
 121 239 l 1
 101 266 89 305 89 341 c 0
 89 377 101 415 121 443 c 1
 67 498 l 1
 123 551 l 1
 178 496 l 1
 207 513 239 522 275 522 c 0
 312 522 347 512 373 494 c 1
 432 547 l 1
 489 489 l 1
 434 434 l 1
 450 409 460 373 460 341 c 0
 460 307 450 275 431 244 c 1
 485 190 l 1
274 445 m 0
 216 445 168 398 168 340 c 0
 168 283 216 236 275 236 c 0
 332 236 381 283 381 339 c 0
 381 398 334 445 274 445 c 0
EndSplineSet
Validated: 3073
EndChar

StartChar: yen
Encoding: 165 165 100
Width: 556
Flags: MW
LayerCount: 2
Fore
SplineSet
495 354 m 1
 495 303 l 1
 325 303 l 1
 325 226 l 1
 495 226 l 1
 495 175 l 1
 325 175 l 1
 325 0 l 1
 237 0 l 1
 237 175 l 1
 65 175 l 1
 65 226 l 1
 237 226 l 1
 237 303 l 1
 65 303 l 1
 65 354 l 1
 216 354 l 1
 11 709 l 1
 96 709 l 1
 281 387 l 1
 460 709 l 1
 545 709 l 1
 344 354 l 1
 495 354 l 1
EndSplineSet
Validated: 3073
EndChar

StartChar: brokenbar
Encoding: 166 166 101
Width: 260
Flags: MW
LayerCount: 2
Fore
SplineSet
100 729 m 1
 160 729 l 1
 160 328 l 1
 100 328 l 1
 100 729 l 1
100 189 m 1
 160 189 l 1
 160 -212 l 1
 100 -212 l 1
 100 189 l 1
EndSplineSet
Validated: 3073
EndChar

StartChar: section
Encoding: 167 167 102
Width: 556
Flags: MW
LayerCount: 2
Fore
SplineSet
162 -14 m 1
 162 -118 223 -136 264 -136 c 0
 321 -136 360 -101 360 -50 c 0
 360 -15 344 11 305 38 c 2
 135 155 l 2
 70 200 43 247 43 312 c 0
 43 378 74 423 148 462 c 1
 117 498 104 526 104 564 c 0
 104 656 185 729 289 729 c 0
 393 729 464 658 464 552 c 1
 464 524 l 1
 380 524 l 1
 380 550 l 1
 380 612 342 652 283 652 c 0
 232 652 194 616 194 567 c 0
 194 538 209 518 251 490 c 2
 397 396 l 2
 478 344 506 301 506 229 c 0
 506 153 469 100 397 73 c 1
 437 28 450 -2 450 -45 c 0
 450 -141 370 -213 263 -213 c 0
 191 -213 77 -183 77 -14 c 1
 162 -14 l 1
188 229 m 2
 354 106 l 1
 401 131 427 168 427 208 c 0
 427 249 403 286 354 320 c 2
 193 429 l 1
 141 395 122 368 122 328 c 0
 122 288 135 268 188 229 c 2
EndSplineSet
Validated: 3073
EndChar

StartChar: dieresis
Encoding: 168 168 103
Width: 333
Flags: MW
AnchorPoint: "abovemk" 167 729 basemark 0
LayerCount: 2
Fore
SplineSet
134 715 m 1
 134 612 l 1
 30 612 l 1
 30 715 l 1
 134 715 l 1
296 715 m 1
 296 612 l 1
 192 612 l 1
 192 715 l 1
 296 715 l 1
EndSplineSet
Validated: 3073
EndChar

StartChar: copyright
Encoding: 169 169 104
Width: 737
Flags: MW
LayerCount: 2
Fore
SplineSet
552 312 m 1
 541 259 517 126 375 126 c 0
 260 126 181 221 181 357 c 0
 181 497 260 592 378 592 c 0
 467 592 520 543 544 437 c 1
 473 437 l 1
 456 503 428 530 375 530 c 0
 299 530 250 463 250 358 c 0
 250 265 298 188 375 188 c 0
 431 188 468 231 481 312 c 1
 552 312 l 1
369 742 m 0
 580 742 751 571 751 361 c 0
 751 147 580 -22 364 -22 c 0
 159 -22 -13 152 -13 360 c 0
 -13 571 158 742 369 742 c 0
369 680 m 0
 196 680 55 536 55 360 c 0
 55 186 196 40 365 40 c 0
 543 40 683 182 683 361 c 0
 683 536 542 680 369 680 c 0
EndSplineSet
Validated: 3073
EndChar

StartChar: ordfeminine
Encoding: 170 170 105
Width: 370
Flags: MW
LayerCount: 2
Fore
SplineSet
320 354 m 1
 320 303 l 1
 43 303 l 1
 43 354 l 1
 320 354 l 1
333 449 m 1
 333 405 l 1
 320 400 313 399 301 399 c 0
 268 399 252 411 246 442 c 1
 213 413 180 399 141 399 c 0
 77 399 37 436 37 495 c 0
 37 558 71 591 194 600 c 0
 232 603 243 611 243 633 c 2
 243 646 l 2
 243 674 219 690 176 690 c 0
 131 690 115 677 108 634 c 1
 49 634 l 1
 51 705 96 742 178 742 c 0
 259 742 300 711 300 648 c 2
 300 469 l 2
 300 454 308 446 323 446 c 0
 326 446 329 447 333 449 c 1
243 568 m 1
 187 544 95 564 95 498 c 0
 95 468 116 451 152 451 c 0
 201 451 243 482 243 517 c 2
 243 568 l 1
EndSplineSet
Validated: 3073
EndChar

StartChar: guillemotleft
Encoding: 171 171 106
Width: 556
Flags: MW
LayerCount: 2
Fore
SplineSet
98 227 m 1
 98 316 l 1
 250 438 l 1
 250 355 l 1
 144 272 l 1
 250 189 l 1
 250 106 l 1
 98 227 l 1
303 227 m 1
 303 316 l 1
 455 438 l 1
 455 355 l 1
 349 272 l 1
 455 189 l 1
 455 106 l 1
 303 227 l 1
EndSplineSet
Validated: 3073
EndChar

StartChar: logicalnot
Encoding: 172 172 107
Width: 584
Flags: MW
LayerCount: 2
Fore
SplineSet
40 375 m 1
 544 375 l 1
 544 86 l 1
 474 86 l 1
 474 305 l 1
 40 305 l 1
 40 375 l 1
EndSplineSet
Validated: 3073
EndChar

StartChar: softhyphen
Encoding: 173 173 108
Width: 333
Flags: MW
LayerCount: 2
Fore
SplineSet
284 312 m 1
 284 240 l 1
 46 240 l 1
 46 312 l 1
 284 312 l 1
EndSplineSet
Validated: 3073
EndChar

StartChar: registered
Encoding: 174 174 109
Width: 737
Flags: MW
LayerCount: 2
Fore
SplineSet
495 360 m 1
 535.311 333.751 540.688 298.055 540.688 263.415 c 0
 540.688 250.811 539.976 238.347 539.976 226.529 c 0
 539.976 201.534 543.161 179.429 563 165 c 1
 563 140 l 1
 484 140 l 1
 475.576 159.655 468.905 185.443 468.905 211.623 c 0
 468.905 213.414 468.936 215.207 469 217 c 0
 470 257 l 1
 470 305 451 325 406 325 c 2
 272 325 l 1
 272 140 l 1
 202 140 l 1
 202 585 l 1
 408 585 l 2
 503 585 549 544 549 459 c 0
 549 413 536 390 495 360 c 1
272 388 m 1
 401 388 l 2
 453 388 476 409 476 455 c 0
 476 502 454 522 401 522 c 2
 272 522 l 1
 272 388 l 1
369 742 m 0
 580 742 751 571 751 361 c 0
 751 147 580 -22 364 -22 c 0
 159 -22 -13 152 -13 360 c 0
 -13 571 158 742 369 742 c 0
369 680 m 0
 196 680 55 536 55 360 c 0
 55 186 196 40 365 40 c 0
 543 40 683 182 683 361 c 0
 683 536 542 680 369 680 c 0
EndSplineSet
Validated: 3073
EndChar

StartChar: macron
Encoding: 175 175 110
Width: 333
Flags: MW
LayerCount: 2
Fore
SplineSet
302 701 m 1
 302 631 l 1
 28 631 l 1
 28 701 l 1
 302 701 l 1
EndSplineSet
Validated: 3073
EndChar

StartChar: degree
Encoding: 176 176 111
Width: 606
Flags: MW
LayerCount: 2
Fore
SplineSet
303 686 m 0
 386 686 454 618 454 535 c 0
 454 450 386 383 301 383 c 0
 219 383 151 452 151 535 c 0
 151 618 219 686 303 686 c 0
303 629 m 0
 251 629 208 586 208 535 c 0
 208 483 251 440 301 440 c 0
 355 440 397 482 397 535 c 0
 397 587 355 629 303 629 c 0
EndSplineSet
Validated: 3073
EndChar

StartChar: plusminus
Encoding: 177 177 112
Width: 584
Flags: MW
LayerCount: 2
Fore
SplineSet
534 416 m 1
 534 346 l 1
 327 346 l 1
 327 139 l 1
 257 139 l 1
 257 346 l 1
 50 346 l 1
 50 416 l 1
 257 416 l 1
 257 623 l 1
 327 623 l 1
 327 416 l 1
 534 416 l 1
534 59 m 1
 534 -11 l 1
 50 -11 l 1
 50 59 l 1
 534 59 l 1
EndSplineSet
Validated: 3073
EndChar

StartChar: twosuperior
Encoding: 178 178 113
Width: 350
Flags: MW
LayerCount: 2
Fore
SplineSet
178 656 m 0
 104 656 94 600 91 557 c 1
 29 557 l 1
 32 660 81 709 180 709 c 0
 266 709 326 657 326 583 c 0
 326 530 293 485 230 454 c 2
 167 422 l 2
 124 399 106 380 94 342 c 1
 323 342 l 1
 323 284 l 1
 19 284 l 1
 24 381 50 420 146 471 c 2
 204 502 l 2
 243 523 263 550 263 581 c 0
 263 624 226 656 178 656 c 0
EndSplineSet
Validated: 3073
EndChar

StartChar: threesuperior
Encoding: 179 179 114
Width: 350
Flags: MW
LayerCount: 2
Fore
SplineSet
169 656 m 0
 103 656 88 620 88 567 c 1
 25 567 l 1
 27 661 76 709 169 709 c 0
 255 709 308 663 308 589 c 0
 308 550 288 521 251 504 c 1
 299 488 322 455 322 404 c 0
 322 323 261 270 167 270 c 0
 71 270 16 322 16 412 c 1
 78 412 l 1
 81 350 109 323 169 323 c 0
 225 323 259 353 259 404 c 0
 259 440 236 468 201 474 c 0
 186 476 170 476 135 476 c 1
 135 527 l 1
 221 527 245 541 245 588 c 0
 245 630 216 656 169 656 c 0
EndSplineSet
Validated: 3073
EndChar

StartChar: acute
Encoding: 180 180 115
Width: 333
Flags: MW
LayerCount: 2
Fore
SplineSet
188 740 m 5
 301 740 l 5
 152 592 l 5
 92 592 l 5
 188 740 l 5
EndSplineSet
Validated: 3073
EndChar

StartChar: micro
Encoding: 181 181 116
Width: 556
Flags: MW
LayerCount: 2
Fore
SplineSet
544 49 m 1
 544 -14 l 1
 518 -21 505 -23 487 -23 c 0
 430 -23 403 3 401 60 c 1
 362 5 306 -23 238 -23 c 0
 202 -23 173 -15 148 3 c 1
 148 -220 l 1
 65 -220 l 1
 65 524 l 1
 148 524 l 1
 148 153 l 2
 148 90 190 50 255 50 c 0
 342 50 398 120 398 227 c 2
 398 524 l 1
 481 524 l 1
 481 88 l 2
 481 61 497 47 526 47 c 0
 530 47 534 47 544 49 c 1
EndSplineSet
Validated: 3073
EndChar

StartChar: paragraph
Encoding: 182 182 117
Width: 537
Flags: MW
LayerCount: 2
Fore
SplineSet
255 259 m 1
 120 266 48 370 48 489 c 0
 48 624 146 729 272 729 c 2
 522 729 l 1
 522 665 l 1
 465 665 l 1
 465 -177 l 1
 401 -177 l 1
 401 665 l 1
 319 665 l 1
 319 -177 l 1
 255 -177 l 1
 255 259 l 1
EndSplineSet
Validated: 3073
EndChar

StartChar: cedilla
Encoding: 184 184 119
Width: 333
Flags: MW
LayerCount: 2
Fore
SplineSet
60 -140 m 1
 99 -157 121 -173 158 -173 c 0
 189 -173 212 -154 212 -128 c 0
 212 -105 195 -91 166 -91 c 0
 154 -91 147 -93 135 -99 c 1
 123 -92 l 1
 165 0 l 1
 203 0 l 1
 180 -56 l 1
 193 -54 200 -54 208 -54 c 0
 258 -54 287 -78 287 -121 c 0
 287 -178 240 -214 164 -214 c 0
 125 -214 101 -207 39 -180 c 1
 60 -140 l 1
EndSplineSet
Validated: 3073
EndChar

StartChar: onesuperior
Encoding: 185 185 120
Width: 350
Flags: HMW
LayerCount: 2
Fore
SplineSet
168 580 m 5
 69 580 l 5
 69 626 l 5
 84 627 l 6
 156 634 170 645 187 709 c 5
 230 709 l 5
 230 284 l 5
 168 284 l 5
 168 580 l 5
EndSplineSet
Validated: 3073
EndChar

StartChar: ordmasculine
Encoding: 186 186 121
Width: 365
Flags: MW
LayerCount: 2
Fore
SplineSet
314 354 m 1
 314 303 l 1
 51 303 l 1
 51 354 l 1
 314 354 l 1
182 742 m 0
 273 742 324 680 324 568 c 0
 324 462 271 399 182 399 c 0
 92 399 40 462 40 571 c 0
 40 679 92 742 182 742 c 0
182 690 m 0
 130 690 98 645 98 571 c 0
 98 496 130 451 182 451 c 0
 234 451 266 496 266 569 c 0
 266 645 235 690 182 690 c 0
EndSplineSet
Validated: 3073
EndChar

StartChar: guillemotright
Encoding: 187 187 122
Width: 556
Flags: MW
LayerCount: 2
Fore
SplineSet
252 317 m 1
 252 228 l 1
 98 106 l 1
 98 189 l 1
 206 272 l 1
 98 355 l 1
 98 438 l 1
 252 317 l 1
451 317 m 1
 451 228 l 1
 297 106 l 1
 297 189 l 1
 405 272 l 1
 297 355 l 1
 297 438 l 1
 451 317 l 1
EndSplineSet
Validated: 3073
EndChar

StartChar: onequarter
Encoding: 188 188 123
Width: 869
Flags: MW
LayerCount: 2
Fore
SplineSet
160 580 m 1
 61 580 l 1
 61 626 l 1
 76 627 l 2
 148 634 162 645 179 709 c 1
 222 709 l 1
 222 284 l 1
 160 284 l 1
 160 580 l 1
643 709 m 1
 701 709 l 1
 249 -20 l 1
 191 -20 l 1
 643 709 l 1
720 100 m 1
 532 100 l 1
 532 159 l 1
 736 425 l 1
 782 425 l 1
 782 153 l 1
 849 153 l 1
 849 100 l 1
 782 100 l 1
 782 0 l 1
 720 0 l 1
 720 100 l 1
720 153 m 1
 720 323 l 1
 591 153 l 1
 720 153 l 1
EndSplineSet
Validated: 3073
EndChar

StartChar: onehalf
Encoding: 189 189 124
Width: 869
Flags: MW
LayerCount: 2
Fore
SplineSet
160 580 m 1
 61 580 l 1
 61 626 l 1
 76 627 l 2
 148 634 162 645 179 709 c 1
 222 709 l 1
 222 284 l 1
 160 284 l 1
 160 580 l 1
619 709 m 1
 677 709 l 1
 225 -20 l 1
 167 -20 l 1
 619 709 l 1
696 372 m 0
 622 372 612 316 609 273 c 1
 547 273 l 1
 550 376 599 425 698 425 c 0
 784 425 844 373 844 299 c 0
 844 246 811 201 748 170 c 2
 685 138 l 2
 642 115 624 96 612 58 c 1
 841 58 l 1
 841 0 l 1
 537 0 l 1
 542 97 568 136 664 187 c 2
 722 218 l 2
 761 239 781 266 781 297 c 0
 781 340 744 372 696 372 c 0
EndSplineSet
Validated: 3073
EndChar

StartChar: threequarters
Encoding: 190 190 125
Width: 869
Flags: MW
LayerCount: 2
Fore
SplineSet
169 656 m 0
 103 656 88 620 88 567 c 1
 25 567 l 1
 27 661 76 709 169 709 c 0
 255 709 308 663 308 589 c 0
 308 550 288 521 251 504 c 1
 299 488 322 455 322 404 c 0
 322 323 261 270 167 270 c 0
 71 270 16 322 16 412 c 1
 78 412 l 1
 81 350 109 323 169 323 c 0
 225 323 259 353 259 404 c 0
 259 440 236 468 201 474 c 0
 186 476 170 476 135 476 c 1
 135 527 l 1
 221 527 245 541 245 588 c 0
 245 630 216 656 169 656 c 0
653 709 m 1
 711 709 l 1
 259 -20 l 1
 201 -20 l 1
 653 709 l 1
720 100 m 1
 532 100 l 1
 532 159 l 1
 736 425 l 1
 782 425 l 1
 782 153 l 1
 849 153 l 1
 849 100 l 1
 782 100 l 1
 782 0 l 1
 720 0 l 1
 720 100 l 1
720 153 m 1
 720 323 l 1
 591 153 l 1
 720 153 l 1
EndSplineSet
Validated: 3073
EndChar

StartChar: AE
Encoding: 198 198 133
Width: 1000
Flags: MW
AnchorPoint: "below" 618 0 basechar 0
AnchorPoint: "above" 618 737 basechar 0
LayerCount: 2
Fore
SplineSet
468 214 m 1
 199 214 l 1
 114 0 l 1
 11 0 l 1
 310 729 l 1
 932 729 l 1
 932 647 l 1
 561 647 l 1
 561 414 l 1
 913 414 l 1
 913 332 l 1
 561 332 l 1
 561 82 l 1
 950 82 l 1
 950 0 l 1
 468 0 l 1
 468 214 l 1
468 296 m 1
 468 647 l 1
 368 647 l 1
 230 296 l 1
 468 296 l 1
EndSplineSet
Validated: 3073
EndChar

StartChar: Ccedilla
Encoding: 199 199 134
Width: 722
Flags: MW
LayerCount: 2
Fore
SplineSet
378 58 m 0
 500 58 558 125 581 266 c 1
 677 266 l 1
 655 75 555 -23 379 -23 c 1
 366 -56 l 1
 379 -54 386 -54 394 -54 c 0
 444 -54 473 -78 473 -121 c 0
 473 -178 426 -214 350 -214 c 0
 312 -214 286 -207 225 -180 c 1
 246 -140 l 1
 278 -154 305 -173 344 -173 c 0
 375 -173 398 -154 398 -128 c 0
 398 -105 381 -91 352 -91 c 0
 340 -91 333 -93 321 -99 c 1
 310 -92 l 1
 341 -23 l 1
 265 -12 235 -1 192 29 c 0
 101 94 48 214 48 356 c 0
 48 508 115 741 381 741 c 0
 541 741 633 663 662 503 c 1
 567 503 l 1
 547 602 492 659 371 659 c 0
 229 659 141 544 141 357 c 0
 141 174 233 58 378 58 c 0
EndSplineSet
Validated: 3073
EndChar

StartChar: Eth
Encoding: 208 208 143
Width: 722
Flags: MW
LayerCount: 2
Fore
SplineSet
89 339 m 1
 20 339 l 1
 20 406 l 1
 89 406 l 1
 89 729 l 1
 371 729 l 2
 555 729 667 591 667 365 c 0
 667 138 555 0 371 0 c 2
 89 0 l 1
 89 339 l 1
182 339 m 1
 182 82 l 1
 355 82 l 2
 498 82 574 179 574 365 c 0
 574 550 498 647 355 647 c 2
 182 647 l 1
 182 406 l 1
 353 406 l 1
 353 339 l 1
 182 339 l 1
EndSplineSet
Validated: 3073
EndChar

StartChar: multiply
Encoding: 215 215 150
Width: 584
Flags: MW
LayerCount: 2
Fore
SplineSet
438 427 m 1
 487 377 l 1
 341 231 l 1
 488 84 l 1
 438 34 l 1
 291 181 l 1
 145 35 l 1
 95 84 l 1
 242 231 l 1
 96 377 l 1
 145 426 l 1
 291 281 l 1
 438 427 l 1
EndSplineSet
Validated: 3073
EndChar

StartChar: Oslash
Encoding: 216 216 151
Width: 778
Flags: MW
AnchorPoint: "above" 390 729 basechar 0
LayerCount: 2
Fore
SplineSet
30 19 m 1
 111 108 l 1
 61 178 35 263 35 360 c 0
 35 587 177 741 387 741 c 0
 478 741 555 714 617 660 c 1
 704 755 l 1
 744 719 l 1
 655 622 l 1
 709 554 739 460 739 358 c 0
 739 131 597 -23 387 -23 c 0
 290 -23 212 6 146 67 c 1
 69 -17 l 1
 30 19 l 1
174 176 m 1
 558 595 l 1
 510 637 452 659 387 659 c 0
 232 659 128 539 128 360 c 0
 128 291 144 228 174 176 c 1
593 554 m 1
 206 133 l 1
 255 84 316 59 387 59 c 0
 542 59 646 179 646 358 c 0
 646 433 628 500 593 554 c 1
EndSplineSet
Validated: 3073
EndChar

StartChar: Thorn
Encoding: 222 222 157
Width: 666
Flags: MW
LayerCount: 2
Fore
SplineSet
184 189 m 1
 184 0 l 1
 91 0 l 1
 91 729 l 1
 184 729 l 1
 184 609 l 1
 392 609 l 2
 531 609 616 529 616 397 c 0
 616 275 532 189 413 189 c 2
 184 189 l 1
184 271 m 1
 378 271 l 2
 465 271 516 319 516 399 c 0
 516 479 465 527 378 527 c 2
 184 527 l 1
 184 271 l 1
EndSplineSet
Validated: 3073
EndChar

StartChar: germandbls
Encoding: 223 223 158
Width: 611
Flags: MW
AnchorPoint: "below" 314 0 basechar 0
AnchorPoint: "above" 307 729 basechar 0
LayerCount: 2
Fore
SplineSet
294 427 m 1
 414 427 449 481 449 540 c 0
 449 605 398 652 297 652 c 0
 184 652 155 595 155 510 c 2
 155 0 l 1
 67 0 l 1
 67 532 l 2
 67 647 148 728 298 728 c 0
 446 728 537 657 537 548 c 0
 537 451 478 415 455 400 c 1
 529 380 571 294 571 234 c 0
 571 57 462 -15 319 -15 c 0
 290 -15 280 -11 266 -8 c 1
 266 67 l 1
 281 65 296 64 310 64 c 0
 419 64 480 113 480 214 c 0
 480 319 412 354 310 354 c 2
 294 354 l 1
 294 427 l 1
EndSplineSet
Validated: 3073
EndChar

StartChar: ae
Encoding: 230 230 165
Width: 889
Flags: MW
AnchorPoint: "below" 436 0 basechar 0
AnchorPoint: "above" 436 538 basechar 0
LayerCount: 2
Fore
SplineSet
459 234 m 1
 462 88 551 54 613 54 c 0
 680 54 727 90 751 159 c 1
 835 159 l 1
 814 45 730 -23 612 -23 c 0
 535 -23 469 8 434 60 c 0
 429 68 425 75 418 87 c 1
 343 9 280 -23 202 -23 c 0
 100 -23 34 38 34 132 c 0
 34 263 141 290 294 303 c 0
 362 309 381 323 381 362 c 2
 381 384 l 2
 381 435 340 462 263 462 c 0
 186 462 148 433 141 369 c 1
 57 369 l 1
 62 511 174 539 265 539 c 0
 350 539 409 511 440 457 c 1
 476 508 541 539 613 539 c 0
 710 539 790 486 824 401 c 0
 839 362 845 314 845 234 c 1
 459 234 l 1
221 50 m 0
 328 50 381 135 381 157 c 2
 381 258 l 1
 282 215 121 249 121 134 c 0
 121 82 159 50 221 50 c 0
461 302 m 1
 755 302 l 1
 755 397 696 462 611 462 c 0
 527 462 468 399 461 302 c 1
EndSplineSet
Validated: 3073
EndChar

StartChar: ccedilla
Encoding: 231 231 166
Width: 500
Flags: MW
LayerCount: 2
Fore
SplineSet
225 -21 m 1
 37 14 31 204 31 253 c 0
 31 427 123 539 264 539 c 0
 384 539 461 473 471 348 c 1
 387 348 l 1
 377 421 333 462 263 462 c 0
 172 462 118 384 118 252 c 0
 118 128 173 53 265 53 c 0
 336 53 379 96 393 180 c 1
 477 180 l 1
 470 55 387 -23 264 -23 c 1
 251 -56 l 1
 265 -54 271 -54 279 -54 c 0
 329 -54 358 -79 358 -121 c 0
 358 -178 311 -214 235 -214 c 0
 196 -214 174 -208 110 -181 c 1
 131 -140 l 1
 163 -154 189 -173 229 -173 c 0
 260 -173 283 -154 283 -128 c 0
 283 -105 266 -91 237 -91 c 0
 225 -91 218 -93 206 -99 c 1
 194 -92 l 1
 225 -21 l 1
EndSplineSet
Validated: 3073
EndChar

StartChar: eth
Encoding: 240 240 175
Width: 556
Flags: MW
LayerCount: 2
Fore
SplineSet
36 258 m 0
 36 481 167 537 254 537 c 0
 273 537 287 534 317 524 c 1
 282 559 271 569 219 613 c 1
 122 568 l 1
 86 607 l 1
 171 647 l 1
 145 667 132 675 89 699 c 1
 133 743 l 1
 164 730 177 723 244 680 c 1
 341 725 l 1
 381 688 l 1
 291 647 l 1
 362 593 510 477 510 259 c 0
 510 79 424 -23 273 -23 c 0
 122 -23 36 79 36 258 c 0
273 462 m 0
 180 462 123 384 123 258 c 0
 123 132 180 54 273 54 c 0
 365 54 423 132 423 255 c 0
 423 385 367 462 273 462 c 0
EndSplineSet
Validated: 3073
EndChar

StartChar: divide
Encoding: 247 247 182
Width: 584
Flags: MW
LayerCount: 2
Fore
SplineSet
534 271 m 1
 534 201 l 1
 50 201 l 1
 50 271 l 1
 534 271 l 1
344 104 m 1
 344 0 l 1
 240 0 l 1
 240 104 l 1
 344 104 l 1
344 472 m 1
 344 368 l 1
 240 368 l 1
 240 472 l 1
 344 472 l 1
EndSplineSet
Validated: 3073
EndChar

StartChar: oslash
Encoding: 248 248 183
Width: 611
Flags: MW
LayerCount: 2
Fore
SplineSet
529 511 m 1
 466 440 l 1
 496 390 510 334 510 258 c 0
 510 82 422 -23 274 -23 c 0
 207 -23 151 -2 111 39 c 1
 50 -30 l 1
 18 -2 l 1
 84 72 l 1
 51 121 36 180 36 258 c 0
 36 434 125 539 273 539 c 0
 342 539 394 519 439 474 c 1
 497 539 l 1
 529 511 l 1
405 371 m 1
 167 102 l 1
 196 70 231 54 273 54 c 0
 366 54 423 132 423 258 c 0
 423 302 417 340 405 371 c 1
144 141 m 1
 383 410 l 1
 357 443 317 462 273 462 c 0
 180 462 123 384 123 258 c 0
 123 211 130 174 144 141 c 1
EndSplineSet
Validated: 3073
EndChar

StartChar: thorn
Encoding: 254 254 189
Width: 555
Flags: MW
LayerCount: 2
Fore
SplineSet
54 -218 m 1
 54 714 l 1
 137 714 l 1
 137 459 l 1
 173 510 231 539 298 539 c 0
 434 539 522 427 522 253 c 0
 522 86 433 -23 298 -23 c 0
 230 -23 181 1 137 55 c 1
 137 -218 l 1
 54 -218 l 1
283 461 m 0
 195 461 137 381 137 258 c 0
 137 135 195 55 283 55 c 0
 374 55 435 136 435 255 c 0
 435 380 375 461 283 461 c 0
EndSplineSet
Validated: 3073
EndChar

StartChar: Aogonek
Encoding: 260 260 195
Width: 667
Flags: MW
LayerCount: 2
Fore
SplineSet
616 -205 m 0
 543 -205 484 -169 484 -111 c 0
 484 -63 520 -22 581 0 c 1
 549 0 l 1
 474 219 l 1
 193 219 l 1
 116 0 l 1
 17 0 l 1
 277 729 l 1
 397 729 l 1
 653 0 l 1
 651 0 l 1
 578 -41 557 -64 557 -106 c 0
 557 -141 582 -160 629 -160 c 0
 653 -160 674 -157 692 -150 c 1
 692 -195 l 1
 668 -200 635 -205 616 -205 c 0
448 297 m 1
 336 629 l 1
 216 297 l 1
 448 297 l 1
EndSplineSet
Validated: 3073
EndChar

StartChar: aogonek
Encoding: 261 261 196
Width: 556
Flags: MW
LayerCount: 2
Fore
SplineSet
67 369 m 1
 72 511 182 539 276 539 c 0
 405 539 473 489 473 396 c 2
 473 88 l 2
 473 62 489 47 518 47 c 0
 523 47 527 47 536 49 c 1
 536 -14 l 1
 488 -33 460 -66 460 -105 c 0
 460 -141 485 -160 532 -160 c 0
 557 -160 578 -157 596 -150 c 1
 596 -195 l 1
 571 -201 541 -205 525 -205 c 0
 473 -205 388 -183 388 -112 c 0
 388 -74 406 -50 456 -23 c 1
 418 -16 397 10 393 54 c 1
 337 1 281 -23 215 -23 c 0
 109 -23 43 37 43 132 c 0
 43 274 163 286 304 304 c 0
 369 312 390 326 390 362 c 2
 390 384 l 2
 390 435 349 462 273 462 c 0
 195 462 157 433 151 369 c 1
 67 369 l 1
232 50 m 0
 331 50 389 115 389 165 c 2
 389 259 l 1
 304 220 129 249 129 134 c 0
 129 81 167 50 232 50 c 0
EndSplineSet
Validated: 3073
EndChar

StartChar: Dcroat
Encoding: 272 272 207
Width: 722
Flags: MW
LayerCount: 2
Fore
SplineSet
89 339 m 1
 20 339 l 1
 20 406 l 1
 89 406 l 1
 89 729 l 1
 371 729 l 2
 555 729 667 591 667 365 c 0
 667 138 555 0 371 0 c 2
 89 0 l 1
 89 339 l 1
182 339 m 1
 182 82 l 1
 355 82 l 2
 498 82 574 179 574 365 c 0
 574 550 498 647 355 647 c 2
 182 647 l 1
 182 406 l 1
 353 406 l 1
 353 339 l 1
 182 339 l 1
EndSplineSet
Validated: 3073
EndChar

StartChar: dcroat
Encoding: 273 273 208
Width: 556
Flags: MW
LayerCount: 2
Fore
SplineSet
494 653 m 1
 557 653 l 1
 557 600 l 1
 494 600 l 1
 494 0 l 1
 420 0 l 1
 420 59 l 1
 372 3 319 -23 252 -23 c 0
 116 -23 26 91 26 264 c 0
 26 430 115 539 250 539 c 0
 318 539 367 515 411 461 c 1
 411 600 l 1
 261 600 l 1
 261 653 l 1
 411 653 l 1
 411 729 l 1
 494 729 l 1
 494 653 l 1
265 457 m 0
 174 457 113 377 113 258 c 0
 113 139 174 59 265 59 c 0
 353 59 411 137 411 256 c 0
 411 379 354 457 265 457 c 0
EndSplineSet
Validated: 3073
EndChar

StartChar: Eogonek
Encoding: 280 280 215
Width: 667
Flags: MW
LayerCount: 2
Fore
SplineSet
576 -205 m 0
 503 -205 444 -169 444 -111 c 0
 444 -63 480 -22 541 0 c 1
 90 0 l 1
 90 729 l 1
 595 729 l 1
 595 647 l 1
 183 647 l 1
 183 414 l 1
 580 414 l 1
 580 332 l 1
 183 332 l 1
 183 82 l 1
 613 82 l 1
 613 0 l 1
 611 0 l 1
 538 -41 517 -64 517 -106 c 0
 517 -141 542 -160 589 -160 c 0
 613 -160 634 -157 652 -150 c 1
 652 -195 l 1
 628 -200 595 -205 576 -205 c 0
EndSplineSet
Validated: 3073
EndChar

StartChar: eogonek
Encoding: 281 281 216
Width: 556
Flags: MW
LayerCount: 2
Fore
SplineSet
503 159 m 1
 476 11 351 -5 351 -109 c 0
 351 -141 378 -160 423 -160 c 0
 448 -160 469 -157 487 -150 c 1
 487 -195 l 1
 460 -201 440 -204 418 -204 c 0
 334 -204 279 -169 279 -116 c 0
 279 -59 330 -28 347 -15 c 1
 317 -21 302 -23 279 -23 c 0
 130 -23 40 81 40 254 c 0
 40 427 134 539 280 539 c 0
 378 539 459 487 492 401 c 0
 506 365 513 320 513 249 c 0
 513 234 l 1
 127 234 l 1
 130 88 221 54 281 54 c 0
 348 54 395 90 419 159 c 1
 503 159 l 1
424 302 m 1
 424 308 l 2
 424 394 361 462 279 462 c 0
 195 462 136 399 130 302 c 1
 424 302 l 1
EndSplineSet
Validated: 3073
EndChar

StartChar: Hbar
Encoding: 294 294 229
Width: 722
Flags: MW
LayerCount: 2
Fore
SplineSet
176 504 m 1
 176 414 l 1
 551 414 l 1
 551 504 l 1
 176 504 l 1
83 576 m 1
 83 729 l 1
 176 729 l 1
 176 576 l 1
 551 576 l 1
 551 729 l 1
 644 729 l 1
 644 576 l 1
 688 576 l 1
 688 506 l 1
 644 506 l 1
 644 0 l 1
 551 0 l 1
 551 332 l 1
 177 332 l 1
 177 0 l 1
 83 0 l 1
 83 506 l 1
 39 506 l 1
 39 576 l 1
 83 576 l 1
EndSplineSet
Validated: 3073
EndChar

StartChar: hbar
Encoding: 295 295 230
Width: 556
Flags: MW
LayerCount: 2
Fore
SplineSet
403 363 m 2
 403 445 338 466 295 466 c 0
 209 466 153 396 153 289 c 2
 153 0 l 1
 70 0 l 1
 70 600 l 1
 7 600 l 1
 7 653 l 1
 70 653 l 1
 70 729 l 1
 153 729 l 1
 153 653 l 1
 303 653 l 1
 303 600 l 1
 153 600 l 1
 153 452 l 1
 202 516 247 539 321 539 c 0
 423 539 486 484 486 396 c 2
 486 0 l 1
 403 0 l 1
 403 363 l 2
EndSplineSet
Validated: 3073
EndChar

StartChar: Iogonek
Encoding: 302 302 237
Width: 278
Flags: MW
LayerCount: 2
Fore
SplineSet
158 -205 m 0
 85 -205 26 -169 26 -111 c 0
 26 -63 62 -22 123 0 c 1
 100 0 l 1
 100 729 l 1
 194 729 l 1
 194 0 l 1
 121 -41 99 -64 99 -106 c 0
 99 -141 124 -160 171 -160 c 0
 195 -160 216 -157 234 -150 c 1
 234 -195 l 1
 210 -200 177 -205 158 -205 c 0
EndSplineSet
Validated: 3073
EndChar

StartChar: iogonek
Encoding: 303 303 238
Width: 222
Flags: MW
LayerCount: 2
Fore
SplineSet
114 -205 m 0
 41 -205 -18 -169 -18 -111 c 0
 -18 -66.2379 13.3069 -27.5633 67 -4.70787 c 1
 67 518 l 1
 150 518 l 1
 150 -6 l 1
 138.47 -6 l 1
 73.9591 -43.3395 55 -66.093 55 -106 c 0
 55 -141 80 -160 127 -160 c 0
 151 -160 172 -157 190 -150 c 1
 190 -195 l 1
 166 -200 133 -205 114 -205 c 0
150 729 m 1
 150 624 l 1
 66 624 l 1
 66 729 l 1
 150 729 l 1
EndSplineSet
Validated: 3073
EndChar

StartChar: dotlessi
Encoding: 305 305 240
Width: 278
Flags: MW
AnchorPoint: "above" 135 538 basechar 0
LayerCount: 2
Fore
SplineSet
177 524 m 1
 177 0 l 1
 94 0 l 1
 94 524 l 1
 177 524 l 1
EndSplineSet
Validated: 3073
EndChar

StartChar: kgreenlandic
Encoding: 312 312 247
Width: 500
Flags: MW
LayerCount: 2
Fore
SplineSet
141 524 m 1
 141 302 l 1
 363 524 l 1
 470 524 l 1
 198 264 l 1
 502 0 l 1
 399 0 l 1
 141 216 l 1
 141 0 l 1
 58 0 l 1
 58 524 l 1
 141 524 l 1
EndSplineSet
Validated: 3073
EndChar

StartChar: Lslash
Encoding: 321 321 256
Width: 556
Flags: MW
LayerCount: 2
Fore
SplineSet
173 406 m 1
 344 527 l 1
 344 451 l 1
 173 329 l 1
 173 82 l 1
 552 82 l 1
 552 0 l 1
 80 0 l 1
 80 280 l 1
 0 223 l 1
 0 300 l 1
 80 356 l 1
 80 729 l 1
 173 729 l 1
 173 406 l 1
EndSplineSet
Validated: 3073
EndChar

StartChar: lslash
Encoding: 322 322 257
Width: 222
Flags: MW
LayerCount: 2
Fore
SplineSet
146 421 m 1
 212 472 l 1
 212 408 l 1
 146 357 l 1
 146 0 l 1
 63 0 l 1
 63 313 l 1
 0 263 l 1
 0 327 l 1
 63 377 l 1
 63 729 l 1
 146 729 l 1
 146 421 l 1
EndSplineSet
Validated: 3073
EndChar

StartChar: Eng
Encoding: 330 330 265
Width: 722
Flags: MW
LayerCount: 2
Fore
SplineSet
558 133 m 1
 558 729 l 1
 646 729 l 1
 646 -109 l 2
 646 -180 592 -218 498 -218 c 0
 485 -218 480 -217 470 -215 c 1
 470 -134 l 1
 487 -135 487 -135 490 -135 c 0
 491.282 -135.029 492.547 -135.044 493.795 -135.044 c 0
 535.378 -135.044 558 -118.718 558 -76 c 2
 558 -27 l 1
 164 591 l 1
 164 0 l 1
 76 0 l 1
 76 729 l 1
 177 729 l 1
 558 133 l 1
EndSplineSet
Validated: 3073
EndChar

StartChar: eng
Encoding: 331 331 266
Width: 556
Flags: MW
LayerCount: 2
Fore
SplineSet
487 396 m 2
 487 -109 l 2
 487 -180 438 -218 344 -218 c 0
 331 -218 326 -217 316 -215 c 1
 316 -144 l 1
 333 -145 333 -145 336 -145 c 0
 387 -145 404 -128 404 -76 c 2
 404 363 l 2
 404 426 362 466 296 466 c 0
 210 466 154 396 154 289 c 2
 154 0 l 1
 70 0 l 1
 70 524 l 1
 147 524 l 1
 147 436 l 1
 193 509 243 539 321 539 c 0
 422 539 487 483 487 396 c 2
EndSplineSet
Validated: 3073
EndChar

StartChar: OE
Encoding: 338 338 273
Width: 1000
Flags: MW
AnchorPoint: "below" 571 0 basechar 0
AnchorPoint: "above" 571 729 basechar 0
LayerCount: 2
Fore
SplineSet
43 356 m 0
 43 664 221 741 342 741 c 0
 424 741 483 713 525 653 c 1
 525 729 l 1
 954 729 l 1
 954 647 l 1
 618 647 l 1
 618 409 l 1
 946 409 l 1
 946 327 l 1
 618 327 l 1
 618 82 l 1
 959 82 l 1
 959 0 l 1
 525 0 l 1
 525 74 l 1
 479 9 422 -20 341 -20 c 0
 218 -20 43 55 43 356 c 0
136 360 m 0
 136 107 253 62 341 62 c 0
 425 62 485 101 525 182 c 1
 525 539 l 1
 485 620 426 659 342 659 c 0
 249 659 136 610 136 360 c 0
EndSplineSet
Validated: 3073
EndChar

StartChar: oe
Encoding: 339 339 274
Width: 944
Flags: MW
AnchorPoint: "below" 474 0 basechar 0
AnchorPoint: "above" 474 538 basechar 0
LayerCount: 2
Fore
SplineSet
513 234 m 1
 516 88 605 54 667 54 c 0
 734 54 781 90 804 159 c 1
 888 159 l 1
 867 45 784 -23 665 -23 c 0
 580 -23 511 14 471 80 c 1
 429 11 365 -23 277 -23 c 0
 126 -23 40 79 40 259 c 0
 40 438 126 539 277 539 c 0
 366 539 433 503 473 433 c 1
 514 500 585 539 666 539 c 0
 764 539 844 487 878 401 c 0
 893 362 899 314 899 234 c 1
 513 234 l 1
277 462 m 0
 184 462 127 385 127 259 c 0
 127 131 184 54 277 54 c 0
 369 54 427 131 427 256 c 0
 427 385 371 462 277 462 c 0
515 302 m 1
 809 302 l 1
 809 397 750 462 665 462 c 0
 581 462 522 399 515 302 c 1
EndSplineSet
Validated: 3073
EndChar

StartChar: Scedilla
Encoding: 350 350 285
Width: 667
Flags: MW
LayerCount: 2
Fore
SplineSet
342 59 m 0
 500 59 528 139 528 191 c 0
 528 248 486 285 394 309 c 2
 213 357 l 2
 117 382 70 438 70 527 c 0
 70 659 169 741 329 741 c 0
 497 741 595 658 596 515 c 1
 508 515 l 1
 507 610 442 663 326 663 c 0
 228 663 163 614 163 540 c 0
 163 484 195 456 283 432 c 2
 466 383 l 2
 565 356 621 290 621 200 c 0
 621 105 571 -14 335 -24 c 1
 320 -56 l 1
 334 -54 340 -54 348 -54 c 0
 398 -54 427 -78 427 -121 c 0
 427 -178 380 -214 304 -214 c 0
 266 -214 241 -207 179 -180 c 1
 200 -140 l 1
 232 -154 259 -173 298 -173 c 0
 329 -173 352 -154 352 -128 c 0
 352 -105 335 -91 306 -91 c 0
 295 -91 287 -93 275 -98 c 1
 264 -92 l 1
 295 -23 l 1
 289 -21 285 -20 284 -20 c 2
 240 -13 l 1
 121 12 48 104 48 225 c 0
 48 227 48 230 48 232 c 1
 136 232 l 1
 136 230 136 229 136 227 c 0
 136 153 177 59 342 59 c 0
EndSplineSet
Validated: 3073
EndChar

StartChar: scedilla
Encoding: 351 351 286
Width: 500
Flags: MW
LayerCount: 2
Fore
SplineSet
122 156 m 1
 129 105 148 54 250 54 c 0
 323 54 372 87 372 136 c 0
 372 174 349 195 291 209 c 2
 213 228 l 2
 89 258 47 297 47 379 c 0
 47 476 126 539 248 539 c 0
 369 539 437 481 438 378 c 1
 350 378 l 1
 348 433 312 462 245 462 c 0
 177 462 134 431 134 383 c 0
 134 346 163 324 231 308 c 2
 311 289 l 2
 415 264 459 221 459 143 c 0
 459 81 422 25 361 -2 c 0
 334 -14 304 -20 244 -24 c 1
 230 -56 l 1
 244 -54 250 -54 258 -54 c 0
 308 -54 337 -78 337 -121 c 0
 337 -178 290 -214 214 -214 c 0
 176 -214 151 -207 89 -180 c 1
 110 -140 l 1
 142 -154 169 -173 208 -173 c 0
 239 -173 262 -154 262 -128 c 0
 262 -105 245 -91 216 -91 c 0
 204 -91 197 -93 185 -98 c 1
 174 -92 l 1
 205 -21 l 1
 93 -10 36 48 34 156 c 1
 122 156 l 1
EndSplineSet
Validated: 3073
EndChar

StartChar: uni0162
Encoding: 354 354 289
Width: 611
Flags: M
LayerCount: 2
Fore
SplineSet
188 -139 m 1
 227 -156 249 -172 286 -172 c 0
 317 -172 340 -153 340 -127 c 0
 340 -104 323 -90 294 -90 c 0
 282 -90 275 -92 263 -98 c 1
 251 -91 l 1
 292.543 -2.22045e-15 l 1
 261 0 l 1
 261 647 l 1
 21 647 l 1
 21 729 l 1
 593 729 l 1
 593 647 l 1
 354 647 l 1
 354 0 l 1
 330.589 2.77556e-17 l 1
 308 -55 l 1
 321 -53 328 -53 336 -53 c 0
 386 -53 415 -77 415 -120 c 0
 415 -177 368 -213 292 -213 c 0
 253 -213 229 -206 167 -179 c 1
 188 -139 l 1
EndSplineSet
Validated: 3073
EndChar

StartChar: uni0163
Encoding: 355 355 290
Width: 278
Flags: M
LayerCount: 2
Fore
SplineSet
66 -153 m 1
 105 -170 127 -186 164 -186 c 0
 195 -186 218 -167 218 -141 c 0
 218 -118 201 -104 172 -104 c 0
 160 -104 153 -106 141 -112 c 1
 129 -105 l 1
 166.866 -22.055 l 1
 113.973 -16.5835 85 12.4528 85 60 c 2
 85 456 l 1
 14 456 l 1
 14 524 l 1
 85 524 l 1
 85 668 l 1
 168 668 l 1
 168 524 l 1
 254 524 l 1
 254 456 l 1
 168 456 l 1
 168 97 l 2
 168 60 178 50 214 50 c 0
 230 50 243 51 254 54 c 1
 254 -16 l 1
 234.82 -19.425 219.394 -21.4423 205.15 -22.3734 c 1
 186 -69 l 1
 199 -67 206 -67 214 -67 c 0
 264 -67 293 -91 293 -134 c 0
 293 -191 246 -227 170 -227 c 0
 131 -227 107 -220 45 -193 c 1
 66 -153 l 1
EndSplineSet
Validated: 3073
EndChar

StartChar: Tbar
Encoding: 358 358 293
Width: 611
Flags: MW
LayerCount: 2
Fore
SplineSet
120 357 m 1
 120 429 l 1
 261 429 l 1
 261 647 l 1
 21 647 l 1
 21 729 l 1
 593 729 l 1
 593 647 l 1
 354 647 l 1
 354 429 l 1
 495 429 l 1
 495 357 l 1
 354 357 l 1
 354 0 l 1
 261 0 l 1
 261 357 l 1
 120 357 l 1
EndSplineSet
Validated: 3073
EndChar

StartChar: tbar
Encoding: 359 359 294
Width: 278
Flags: MW
LayerCount: 2
Fore
SplineSet
254 524 m 1
 254 456 l 1
 168 456 l 1
 168 312 l 1
 247 312 l 1
 247 240 l 1
 168 240 l 1
 168 97 l 2
 168 60 178 50 214 50 c 0
 230 50 243 51 254 54 c 1
 254 -16 l 1
 226 -21 206 -23 186 -23 c 0
 121 -23 85 7 85 60 c 2
 85 240 l 1
 9 240 l 1
 9 312 l 1
 85 312 l 1
 85 456 l 1
 14 456 l 1
 14 524 l 1
 85 524 l 1
 85 668 l 1
 168 668 l 1
 168 524 l 1
 254 524 l 1
EndSplineSet
Validated: 3073
EndChar

StartChar: Uogonek
Encoding: 370 370 305
Width: 722
Flags: MW
LayerCount: 2
Fore
SplineSet
527 -205 m 0
 453 -205 394 -168 394 -112 c 0
 394 -71 415 -42 467 -10 c 1
 423 -20 402 -23 366 -23 c 0
 192 -23 85 68 85 217 c 2
 85 729 l 1
 178 729 l 1
 178 217 l 2
 178 107 257 59 364 59 c 0
 481 59 552 119 552 217 c 2
 552 729 l 1
 645 729 l 1
 645 217 l 2
 645 29 467 -7 467 -106 c 0
 467 -141 492 -160 539 -160 c 0
 563 -160 584 -157 602 -150 c 1
 602 -195 l 1
 578 -200 545 -205 527 -205 c 0
EndSplineSet
Validated: 3073
EndChar

StartChar: uogonek
Encoding: 371 371 306
Width: 556
Flags: MW
LayerCount: 2
Fore
SplineSet
482 524 m 1
 482 0 l 1
 436 -26 405 -69 405 -108 c 0
 405 -140 431 -160 472 -160 c 0
 488 -160 500 -158 521 -150 c 1
 521 -195 l 1
 502 -198 483 -204 469 -204 c 0
 386 -204 333 -168 333 -111 c 0
 333 -68 363 -34 429 0 c 1
 407 0 l 1
 407 73 l 1
 358 4 309 -23 232 -23 c 0
 130 -23 65 33 65 120 c 2
 65 524 l 1
 148 524 l 1
 148 153 l 2
 148 90 190 50 256 50 c 0
 343 50 399 120 399 227 c 2
 399 524 l 1
 482 524 l 1
EndSplineSet
Validated: 3073
EndChar

StartChar: longs
Encoding: 383 383 318
Width: 278
Flags: MW
LayerCount: 2
Fore
SplineSet
171 0 m 1
 88 0 l 1
 88 456 l 1
 18 456 l 1
 18 524 l 1
 88 524 l 1
 88 613 l 2
 88 688 134 732 211 732 c 0
 228 732 239 731 258 727 c 1
 258 658 l 1
 239 659 236 659 229 659 c 0
 191 659 171 641 171 606 c 2
 171 0 l 1
EndSplineSet
Validated: 3073
EndChar

StartChar: uni0180
Encoding: 384 384 319
Width: 556
Flags: MW
LayerCount: 2
Fore
SplineSet
89 653 m 1
 89 729 l 1
 172 729 l 1
 172 653 l 1
 322 653 l 1
 322 600 l 1
 172 600 l 1
 172 461 l 1
 216 515 265 539 333 539 c 0
 468 539 557 430 557 264 c 0
 557 91 467 -23 331 -23 c 0
 264 -23 211 3 163 59 c 1
 163 0 l 1
 89 0 l 1
 89 600 l 1
 26 600 l 1
 26 653 l 1
 89 653 l 1
318 457 m 0
 229 457 172 379 172 256 c 0
 172 137 230 59 318 59 c 0
 409 59 470 139 470 258 c 0
 470 377 409 457 318 457 c 0
EndSplineSet
Validated: 3073
EndChar

StartChar: uni0183
Encoding: 387 387 321
Width: 556
Flags: MW
LayerCount: 2
Fore
SplineSet
283 461 m 0
 195 461 137 381 137 258 c 0
 137 135 195 55 283 55 c 0
 374 55 436 136 436 255 c 0
 436 380 376 461 283 461 c 0
54 0 m 1
 54 729 l 1
 445 729 l 1
 445 656 l 1
 137 656 l 1
 137 453 l 1
 176 512 227 539 299 539 c 0
 437 539 523 434 523 264 c 0
 523 90 433 -23 295 -23 c 0
 222 -23 169 6 129 67 c 1
 129 0 l 1
 54 0 l 1
EndSplineSet
Validated: 3073
EndChar

StartChar: uni0184
Encoding: 388 388 322
Width: 667
Flags: MW
LayerCount: 2
Fore
SplineSet
172 82 m 1
 384 82 l 2
 470 82 530 144 530 225 c 0
 530 310 471 369 384 369 c 2
 172 369 l 1
 172 82 l 1
79 729 m 1
 172 729 l 1
 172 451 l 1
 337 451 l 2
 548 451 623 355 623 229 c 0
 623 226 l 0
 623 93 525 0 393 0 c 2
 79 0 l 1
 79 451 l 1
 -49 590 l 1
 79 729 l 1
EndSplineSet
Validated: 3073
EndChar

StartChar: uni0185
Encoding: 389 389 323
Width: 556
Flags: MW
LayerCount: 2
Fore
SplineSet
283 461 m 0
 195 461 137 381 137 258 c 0
 137 135 195 55 283 55 c 0
 374 55 436 136 436 255 c 0
 436 380 376 461 283 461 c 0
54 729 m 1
 137 729 l 1
 137 453 l 1
 176 512 227 539 299 539 c 0
 437 539 523 434 523 264 c 0
 523 90 433 -23 295 -23 c 0
 222 -23 169 6 129 67 c 1
 129 0 l 1
 54 0 l 1
 54 451 l 1
 -39 590 l 1
 54 729 l 1
EndSplineSet
Validated: 3073
EndChar

StartChar: florin
Encoding: 402 402 324
Width: 278
Flags: MW
LayerCount: 2
Fore
SplineSet
258 524 m 1
 258 456 l 1
 171 456 l 1
 171 -109 l 2
 171 -180 122 -218 28 -218 c 0
 15 -218 10 -217 0 -215 c 1
 0 -144 l 1
 17 -145 17 -145 20 -145 c 0
 71 -145 88 -128 88 -76 c 2
 88 456 l 1
 18 456 l 1
 18 524 l 1
 88 524 l 1
 88 613 l 2
 88 688 134 732 211 732 c 0
 228 732 239 731 258 727 c 1
 258 658 l 1
 239 659 236 659 229 659 c 0
 191 659 171 641 171 606 c 2
 171 524 l 1
 258 524 l 1
EndSplineSet
Validated: 3073
EndChar

StartChar: uni0193
Encoding: 403 403 325
Width: 778
Flags: MW
LayerCount: 2
Fore
SplineSet
137 362 m 0
 137 245 189 59 398 59 c 0
 531 59 627 153 627 283 c 2
 627 303 l 1
 405 303 l 1
 405 385 l 1
 709 385 l 1
 709 -4 l 1
 650 -4 l 1
 627 93 l 1
 556 14 477 -23 378 -23 c 0
 181 -23 44 133 44 357 c 0
 44 503 114 741 394 741 c 0
 491 741 570 712 624 659 c 1
 642 702 683 726 739 726 c 0
 756 726 767 725 786 721 c 1
 786 642 l 1
 767 643 764 643 757 643 c 0
 719 643 699 630 699 590 c 2
 699 508 l 1
 604 508 l 1
 584 602 504 659 393 659 c 0
 239 659 137 541 137 362 c 0
EndSplineSet
Validated: 3073
EndChar

StartChar: uni0199
Encoding: 409 409 326
Width: 500
Flags: MW
LayerCount: 2
Fore
SplineSet
58 0 m 1
 58 613 l 2
 58 688 104 732 181 732 c 0
 198 732 209 731 228 727 c 1
 228 658 l 1
 209 659 206 659 199 659 c 0
 161 659 141 641 141 606 c 2
 141 302 l 1
 363 524 l 1
 470 524 l 1
 288 343 l 1
 502 0 l 1
 399 0 l 1
 222 284 l 1
 141 204 l 1
 141 0 l 1
 58 0 l 1
EndSplineSet
Validated: 3073
EndChar

StartChar: uni019F
Encoding: 415 415 327
Width: 778
Flags: MW
LayerCount: 2
Fore
SplineSet
742 353 m 0
 742 143 608 -23 390 -23 c 0
 180 -23 38 131 38 359 c 0
 38 587 180 741 389 741 c 0
 603 741 742 588 742 353 c 0
648 385 m 1
 638 552 538 659 389 659 c 0
 243 659 141 550 132 385 c 1
 648 385 l 1
647 315 m 1
 133 315 l 1
 149 160 248 59 390 59 c 0
 532 59 632 161 647 315 c 1
EndSplineSet
Validated: 3073
EndChar

StartChar: uni01A5
Encoding: 421 421 328
Width: 556
Flags: MW
AnchorPoint: "below" 272 -200 basechar 0
AnchorPoint: "above" 272 538 basechar 0
LayerCount: 2
Fore
SplineSet
284 461 m 0
 196 461 138 381 138 258 c 0
 138 135 196 55 284 55 c 0
 375 55 436 136 436 255 c 0
 436 380 376 461 284 461 c 0
131 606 m 2
 131 445 l 1
 170 507 227 539 298 539 c 0
 437 539 523 429 523 253 c 0
 523 86 434 -23 299 -23 c 0
 231 -23 182 1 138 55 c 1
 138 -218 l 1
 54 -218 l 1
 54 613 l 2
 54 688 96 732 173 732 c 0
 190 732 199 731 218 727 c 1
 218 658 l 1
 199 659 196 659 189 659 c 0
 151 659 131 641 131 606 c 2
EndSplineSet
Validated: 3073
EndChar

StartChar: uni01A8
Encoding: 424 424 329
Width: 500
Flags: MW
LayerCount: 2
Fore
SplineSet
371 156 m 1
 459 156 l 1
 455 35 387 -23 250 -23 c 0
 118 -23 34 42 34 143 c 0
 34 221 78 264 182 289 c 2
 262 308 l 2
 330 324 359 346 359 383 c 0
 359 431 316 462 248 462 c 0
 181 462 145 433 143 378 c 1
 55 378 l 1
 56 481 124 539 245 539 c 0
 367 539 446 476 446 379 c 0
 446 297 404 258 280 228 c 2
 202 209 l 2
 144 195 121 174 121 136 c 0
 121 87 170 54 243 54 c 0
 345 54 364 105 371 156 c 1
EndSplineSet
Validated: 3073
EndChar

StartChar: uni01A9
Encoding: 425 425 330
Width: 611
Flags: MW
LayerCount: 2
Fore
SplineSet
247 365 m 1
 30 645 l 1
 30 729 l 1
 555 729 l 1
 555 647 l 1
 145 647 l 1
 364 365 l 25
 145 82 l 1
 583 82 l 1
 583 0 l 1
 28 0 l 1
 28 82 l 1
 247 365 l 1
EndSplineSet
Validated: 3073
EndChar

StartChar: uni01AD
Encoding: 429 429 331
Width: 278
Flags: MW
LayerCount: 2
Fore
SplineSet
168 606 m 2
 168 524 l 1
 254 524 l 1
 254 456 l 1
 168 456 l 1
 168 97 l 2
 168 60 178 50 214 50 c 0
 230 50 243 51 254 54 c 1
 254 -16 l 1
 226 -21 206 -23 186 -23 c 0
 121 -23 85 7 85 60 c 2
 85 456 l 1
 14 456 l 1
 14 524 l 1
 85 524 l 1
 85 613 l 2
 85 688 131 732 208 732 c 0
 225 732 236 731 255 727 c 1
 255 658 l 1
 236 659 233 659 226 659 c 0
 188 659 168 641 168 606 c 2
EndSplineSet
Validated: 3073
EndChar

StartChar: uni01AE
Encoding: 430 430 332
Width: 611
Flags: MW
LayerCount: 2
Fore
SplineSet
261 -109 m 2
 261 647 l 1
 21 647 l 1
 21 729 l 1
 593 729 l 1
 593 647 l 1
 354 647 l 1
 354 -76 l 2
 354 -120 381 -135 422 -135 c 0
 425 -135 425 -135 442 -134 c 1
 442 -215 l 1
 432 -217 427 -218 414 -218 c 0
 320 -218 261 -180 261 -109 c 2
EndSplineSet
Validated: 3073
EndChar

StartChar: uni01EA
Encoding: 490 490 368
Width: 778
Flags: M
LayerCount: 2
Fore
SplineSet
390 -221 m 0
 317 -221 258 -185 258 -127 c 0
 258 -82.0426 289.581 -43.2258 343.704 -20.4095 c 1
 159.4 0.635958 38 148.186 38 359 c 0
 38 587 180 741 389 741 c 0
 603 741 742 588 742 353 c 0
 742 150.792 617.759 -10.6208 413.917 -22.3206 c 1
 349.851 -59.4701 331 -82.2074 331 -122 c 0
 331 -157 356 -176 403 -176 c 0
 427 -176 448 -173 466 -166 c 1
 466 -211 l 1
 442 -216 409 -221 390 -221 c 0
389 659 m 0
 235 659 131 539 131 359 c 0
 131 179 235 59 390 59 c 0
 544 59 649 179 649 355 c 0
 649 539 547 659 389 659 c 0
EndSplineSet
Validated: 3073
EndChar

StartChar: uni01EB
Encoding: 491 491 369
Width: 556
Flags: M
LayerCount: 2
Fore
SplineSet
273 -221 m 0
 200 -221 141 -185 141 -127 c 0
 141 -81.5312 173.303 -42.3437 228.56 -19.6372 c 1
 106.663 -0.413059 36 100.288 36 258 c 0
 36 434 125 539 272 539 c 0
 423 539 510 435 510 254 c 0
 510 91.7673 429.931 -10.8588 297.485 -21.9912 c 1
 232.962 -59.3359 214 -82.0899 214 -122 c 0
 214 -157 239 -176 286 -176 c 0
 310 -176 331 -173 349 -166 c 1
 349 -211 l 1
 325 -216 292 -221 273 -221 c 0
273 462 m 0
 180 462 123 384 123 258 c 0
 123 131 180 54 273 54 c 0
 365 54 423 132 423 255 c 0
 423 385 367 462 273 462 c 0
EndSplineSet
Validated: 3073
EndChar

StartChar: uni0228
Encoding: 552 552 418
Width: 667
Flags: M
LayerCount: 2
Fore
SplineSet
228 -133 m 1
 267 -150 289 -166 326 -166 c 0
 357 -166 380 -147 380 -121 c 0
 380 -98 363 -84 334 -84 c 0
 322 -84 315 -86 303 -92 c 1
 291 -85 l 1
 329.804 -2.22045e-16 l 1
 90 0 l 1
 90 729 l 1
 595 729 l 1
 595 647 l 1
 183 647 l 1
 183 414 l 1
 580 414 l 1
 580 332 l 1
 183 332 l 1
 183 82 l 1
 613 82 l 1
 613 0 l 1
 368.125 0 l 1
 348 -49 l 1
 361 -47 368 -47 376 -47 c 0
 426 -47 455 -71 455 -114 c 0
 455 -171 408 -207 332 -207 c 0
 293 -207 269 -200 207 -173 c 1
 228 -133 l 1
EndSplineSet
Validated: 3073
EndChar

StartChar: uni0229
Encoding: 553 553 419
Width: 556
Flags: M
LayerCount: 2
Fore
SplineSet
154 -156 m 1
 193 -173 215 -189 252 -189 c 0
 283 -189 306 -170 306 -144 c 0
 306 -121 289 -107 260 -107 c 0
 248 -107 241 -109 229 -115 c 1
 217 -108 l 1
 256.172 -22.1949 l 1
 122.045 -12.1306 40 91.6822 40 255 c 0
 40 427 134 539 280 539 c 0
 378 539 458 487 492 401 c 0
 507 362 513 314 513 234 c 1
 127 234 l 1
 128 182 135 152 155 122 c 0
 183 78 228 54 281 54 c 0
 348 54 395 90 418 159 c 1
 502 159 l 1
 481.965 50.2369 405.495 -16.6554 294.301 -22.5716 c 1
 274 -72 l 1
 287 -70 294 -70 302 -70 c 0
 352 -70 381 -94 381 -137 c 0
 381 -194 334 -230 258 -230 c 0
 219 -230 195 -223 133 -196 c 1
 154 -156 l 1
129 302 m 1
 423 302 l 1
 424 304 424 306 424 308 c 0
 424 394 361 462 279 462 c 0
 195 462 136 399 129 302 c 1
EndSplineSet
Validated: 3073
EndChar

StartChar: uni0251
Encoding: 593 593 431
Width: 556
Flags: MW
AnchorPoint: "below" 274 0 basechar 0
AnchorPoint: "above" 274 538 basechar 0
LayerCount: 2
Fore
SplineSet
397 263 m 0
 397 372 345 471 248 471 c 0
 159 471 113 363 113 261 c 0
 113 158 173 60 265 60 c 0
 356 60 397 160 397 263 c 0
233 -14 m 0
 142 -14 26 91 26 258 c 0
 26 412 96 538 246 538 c 0
 306 538 358 511 402 458 c 1
 402 524 l 1
 485 524 l 1
 485 88 l 2
 485 62 501 47 530 47 c 0
 535 47 539 47 548 49 c 1
 548 -14 l 1
 521 -21 508 -23 491 -23 c 0
 439 -23 410 -2 403 57 c 1
 356 12 314 -12 233 -14 c 0
EndSplineSet
Validated: 3073
EndChar

StartChar: uni0253
Encoding: 595 595 433
Width: 556
Flags: MW
AnchorPoint: "below" 274 0 basechar 0
LayerCount: 2
Fore
SplineSet
283 461 m 0
 195 461 137 381 137 258 c 0
 137 135 195 55 283 55 c 0
 374 55 436 136 436 255 c 0
 436 380 376 461 283 461 c 0
54 0 m 1
 54 613 l 2
 54 688 100 732 177 732 c 0
 194 732 205 731 224 727 c 1
 224 658 l 1
 205 659 202 659 195 659 c 0
 157 659 137 641 137 606 c 2
 137 453 l 1
 176 512 227 539 299 539 c 0
 437 539 523 434 523 264 c 0
 523 90 433 -23 295 -23 c 0
 222 -23 169 6 129 67 c 1
 129 0 l 1
 54 0 l 1
EndSplineSet
Validated: 3073
EndChar

StartChar: uni0256
Encoding: 598 598 435
Width: 556
Flags: MW
AnchorPoint: "below" 274 -200 basechar 0
LayerCount: 2
Fore
SplineSet
265 461 m 0
 174 461 113 380 113 258 c 0
 113 136 174 55 266 55 c 0
 354 55 412 135 412 256 c 0
 412 381 355 461 265 461 c 0
421 69 m 1
 376 4 326 -23 254 -23 c 0
 113 -23 26 86 26 263 c 0
 26 430 115 539 251 539 c 0
 321 539 377 511 412 458 c 1
 412 729 l 1
 495 729 l 1
 495 -76 l 2
 495 -128 517 -145 568 -145 c 0
 571 -145 571 -145 588 -144 c 1
 588 -215 l 1
 578 -217 573 -218 560 -218 c 0
 466 -218 421 -180 421 -109 c 2
 421 69 l 1
EndSplineSet
Validated: 3073
EndChar

StartChar: uni0257
Encoding: 599 599 436
Width: 556
Flags: MW
AnchorPoint: "below" 274 0 basechar 0
LayerCount: 2
Fore
SplineSet
265 461 m 0
 174 461 113 380 113 258 c 0
 113 136 174 55 266 55 c 0
 354 55 412 135 412 256 c 0
 412 381 355 461 265 461 c 0
495 606 m 2
 495 0 l 1
 421 0 l 1
 421 69 l 1
 376 4 326 -23 254 -23 c 0
 113 -23 26 86 26 263 c 0
 26 430 115 539 251 539 c 0
 321 539 377 511 412 458 c 1
 412 613 l 2
 412 688 458 732 535 732 c 0
 552 732 563 731 582 727 c 1
 582 658 l 1
 563 659 560 659 553 659 c 0
 515 659 495 641 495 606 c 2
EndSplineSet
Validated: 3073
EndChar

StartChar: uni0258
Encoding: 600 600 437
Width: 556
Flags: MW
AnchorPoint: "below" 274 0 basechar 0
AnchorPoint: "above" 274 538 basechar 0
LayerCount: 2
Fore
SplineSet
40 234 m 1
 40 314 46 362 61 401 c 0
 95 487 175 539 273 539 c 0
 419 539 513 427 513 255 c 0
 513 83 422 -23 275 -23 c 0
 155 -23 72 45 51 159 c 1
 135 159 l 1
 158 90 205 54 272 54 c 0
 325 54 370 78 398 122 c 0
 418 152 425 182 426 234 c 1
 40 234 l 1
424 302 m 1
 417 399 358 462 274 462 c 0
 192 462 129 394 129 308 c 0
 129 306 129 304 130 302 c 1
 424 302 l 1
EndSplineSet
Validated: 3073
EndChar

StartChar: uni025B
Encoding: 603 603 439
Width: 500
Flags: MW
AnchorPoint: "below" 250 0 basechar 0
AnchorPoint: "above" 250 538 basechar 0
LayerCount: 2
Fore
SplineSet
371 156 m 1
 459 156 l 1
 455 35 387 -23 250 -23 c 0
 118 -23 34 42 34 143 c 0
 34 203 61 241 120 267 c 1
 74 293 55 326 55 379 c 0
 55 476 134 539 256 539 c 0
 377 539 445 481 446 378 c 1
 358 378 l 1
 356 433 320 462 253 462 c 0
 185 462 142 431 142 383 c 0
 142 346 169 297 239 297 c 2
 301 297 l 1
 301 221 l 1
 227 221 l 2
 167 221 125 174 125 136 c 0
 125 87 170 54 243 54 c 0
 345 54 364 105 371 156 c 1
EndSplineSet
Validated: 3073
EndChar

StartChar: uni0260
Encoding: 608 608 441
Width: 556
Flags: MW
AnchorPoint: "below" 250 -200 basechar 0
AnchorPoint: "above" 250 538 basechar 0
LayerCount: 2
Fore
SplineSet
261 462 m 0
 172 462 116 384 116 258 c 0
 116 131 171 54 262 54 c 0
 350 54 404 130 404 255 c 0
 404 386 351 462 261 462 c 0
258 -148 m 0
 376 -148 404 -77 404 44 c 2
 404 71 l 1
 357 5 311 -23 245 -23 c 0
 126 -23 29 82 29 253 c 0
 29 423 119 539 252 539 c 0
 319 539 370 510 412 448 c 1
 412 531 l 2
 412 606 452 650 529 650 c 0
 546 650 557 649 576 645 c 1
 576 576 l 1
 557 577 554 577 547 577 c 0
 509 577 489 564 489 524 c 2
 489 86 l 2
 489 -96 454 -218 255 -218 c 0
 132 -218 55 -159 46 -60 c 1
 131 -60 l 1
 145 -145 232 -148 258 -148 c 0
EndSplineSet
Validated: 3073
EndChar

StartChar: uni0261
Encoding: 609 609 442
Width: 556
Flags: MW
AnchorPoint: "below" 250 -200 basechar 0
AnchorPoint: "above" 250 538 basechar 0
LayerCount: 2
Fore
SplineSet
261 462 m 0
 172 462 116 384 116 258 c 0
 116 131 171 54 262 54 c 0
 350 54 404 130 404 255 c 0
 404 386 351 462 261 462 c 0
245 -23 m 0
 126 -23 29 82 29 253 c 0
 29 423 119 539 252 539 c 0
 318 539 369 511 410 450 c 1
 414 494 437 531 480 531 c 0
 502 531 522 527 541 520 c 1
 527 448 l 1
 520 450 515 451 511 451 c 0
 496 451 489 439 489 414 c 2
 489 86 l 2
 489 -96 454 -218 255 -218 c 0
 132 -218 55 -159 46 -60 c 1
 131 -60 l 1
 145 -145 232 -148 258 -148 c 0
 376 -148 404 -76 404 44 c 2
 404 71 l 1
 357 5 311 -23 245 -23 c 0
EndSplineSet
Validated: 3073
EndChar

StartChar: uni0266
Encoding: 614 614 444
Width: 556
Flags: MW
LayerCount: 2
Fore
SplineSet
403 363 m 2
 403 445 338 466 295 466 c 0
 209 466 153 396 153 289 c 2
 153 0 l 1
 70 0 l 1
 70 613 l 2
 70 688 116 732 193 732 c 0
 210 732 221 731 240 727 c 1
 240 658 l 1
 221 659 218 659 211 659 c 0
 173 659 153 641 153 606 c 2
 153 452 l 1
 202 516 247 539 321 539 c 0
 423 539 486 484 486 396 c 2
 486 0 l 1
 403 0 l 1
 403 363 l 2
EndSplineSet
Validated: 3073
EndChar

StartChar: uni0267
Encoding: 615 615 445
Width: 556
Flags: HMW
LayerCount: 2
Fore
SplineSet
403 363 m 6
 403 445 338 466 295 466 c 4
 209 466 153 396 153 289 c 6
 153 0 l 5
 70 0 l 5
 70 613 l 6
 70 688 116 732 193 732 c 4
 210 732 221 731 240 727 c 5
 240 658 l 5
 221 659 218 659 211 659 c 4
 173 659 153 641 153 606 c 6
 153 452 l 5
 202 516 247 539 321 539 c 4
 423 539 486 484 486 396 c 6
 486 -109 l 6
 486 -180 437 -218 343 -218 c 4
 330 -218 325 -217 315 -215 c 5
 315 -144 l 5
 332 -145 332 -145 335 -145 c 4
 386 -145 403 -128 403 -76 c 6
 403 363 l 6
EndSplineSet
Validated: 3073
EndChar

StartChar: uni0268
Encoding: 616 616 446
Width: 222
Flags: MW
LayerCount: 2
Fore
SplineSet
150 729 m 1
 150 624 l 1
 66 624 l 1
 66 729 l 1
 150 729 l 1
67 312 m 1
 67 524 l 1
 150 524 l 1
 150 312 l 1
 230 312 l 1
 230 240 l 1
 150 240 l 1
 150 0 l 1
 67 0 l 1
 67 240 l 1
 -8 240 l 1
 -8 312 l 1
 67 312 l 1
EndSplineSet
Validated: 3073
EndChar

StartChar: uni0269
Encoding: 617 617 447
Width: 222
Flags: MW
LayerCount: 2
Fore
SplineSet
149 524 m 1
 149 97 l 2
 149 60 159 50 195 50 c 0
 211 50 224 51 235 54 c 1
 235 -16 l 1
 207 -21 187 -23 167 -23 c 0
 102 -23 66 7 66 60 c 2
 66 524 l 1
 149 524 l 1
EndSplineSet
Validated: 3073
EndChar

StartChar: uni026A
Encoding: 618 618 448
Width: 278
Flags: MW
AnchorPoint: "below" 134 0 basechar 0
AnchorPoint: "above" 135 538 basechar 0
LayerCount: 2
Fore
SplineSet
12 524 m 1
 250 524 l 1
 250 452 l 1
 177 452 l 1
 177 72 l 1
 250 72 l 1
 250 0 l 1
 12 0 l 1
 12 72 l 1
 94 72 l 1
 94 452 l 1
 12 452 l 1
 12 524 l 1
EndSplineSet
Validated: 3073
EndChar

StartChar: uni026D
Encoding: 621 621 449
Width: 222
Flags: MW
LayerCount: 2
Fore
SplineSet
68 -109 m 2
 68 729 l 1
 152 729 l 1
 152 -76 l 2
 152 -128 169 -145 220 -145 c 0
 223 -145 223 -145 240 -144 c 1
 240 -215 l 1
 230 -217 225 -218 212 -218 c 0
 118 -218 68 -180 68 -109 c 2
EndSplineSet
Validated: 3073
EndChar

StartChar: uni0270
Encoding: 624 624 451
Width: 833
Flags: MW
LayerCount: 2
Fore
SplineSet
762 -200 m 1
 685 -200 l 1
 685 74 l 1
 640 11 594 -15 524 -15 c 0
 456 -15 414 9 383 65 c 1
 334 6 292 -15 222 -15 c 0
 124 -15 70 37 70 131 c 2
 70 524 l 1
 154 524 l 1
 154 163 l 2
 154 97 190 58 251 58 c 0
 319 58 374 119 374 195 c 2
 374 524 l 1
 458 524 l 1
 458 163 l 2
 458 96 493 58 555 58 c 0
 623 58 678 119 678 195 c 2
 678 524 l 1
 762 524 l 1
 762 -200 l 1
EndSplineSet
Validated: 3073
EndChar

StartChar: uni0271
Encoding: 625 625 452
Width: 833
Flags: MW
AnchorPoint: "above" 416.5 538 basechar 0
AnchorPoint: "below" 412 -200 basechar 0
LayerCount: 2
Fore
SplineSet
70 524 m 1
 147 524 l 1
 147 450 l 1
 192 513 238 539 308 539 c 0
 376 539 418 515 449 459 c 1
 498 518 540 539 610 539 c 0
 708 539 762 487 762 393 c 2
 762 -109 l 2
 762 -180 712 -218 618 -218 c 0
 605 -218 600 -217 590 -215 c 1
 590 -144 l 1
 607 -145 607 -145 610 -145 c 0
 661 -145 678 -128 678 -76 c 2
 678 361 l 2
 678 427 642 466 581 466 c 0
 513 466 458 405 458 329 c 2
 458 0 l 1
 374 0 l 1
 374 361 l 2
 374 428 339 466 277 466 c 0
 209 466 154 405 154 329 c 2
 154 0 l 1
 70 0 l 1
 70 524 l 1
EndSplineSet
Validated: 3073
EndChar

StartChar: uni0272
Encoding: 626 626 453
Width: 556
Flags: MW
AnchorPoint: "above" 278 538 basechar 0
AnchorPoint: "below" 272 -200 basechar 0
LayerCount: 2
Fore
SplineSet
70 524 m 1
 147 524 l 1
 147 436 l 1
 193 509 243 539 321 539 c 0
 422 539 487 483 487 396 c 2
 487 0 l 1
 404 0 l 1
 404 363 l 2
 404 426 362 466 296 466 c 0
 210 466 154 396 154 289 c 2
 154 -109 l 2
 154 -180 104 -218 10 -218 c 0
 -3 -218 -8 -217 -18 -215 c 1
 -18 -144 l 1
 -1 -145 -1 -145 2 -145 c 0
 53 -145 70 -128 70 -76 c 2
 70 524 l 1
EndSplineSet
Validated: 3073
EndChar

StartChar: uni0273
Encoding: 627 627 454
Width: 556
Flags: MW
AnchorPoint: "above" 278 538 basechar 0
AnchorPoint: "below" 272 -200 basechar 0
LayerCount: 2
Fore
SplineSet
70 524 m 5
 147 524 l 5
 147 436 l 5
 193 509 243 539 321 539 c 4
 422 539 487 483 487 396 c 6
 488 -76 l 6
 488 -128 505 -145 556 -145 c 4
 559 -145 559 -145 576 -144 c 5
 576 -215 l 5
 566 -217 561 -218 548 -218 c 4
 454 -218 404 -180 404 -109 c 6
 404 363 l 6
 404 426 362 466 296 466 c 4
 210 466 154 396 154 289 c 6
 154 0 l 5
 70 0 l 5
 70 524 l 5
EndSplineSet
Validated: 3073
EndChar

StartChar: uni0275
Encoding: 629 629 455
Width: 556
Flags: MW
AnchorPoint: "above" 272 538 basechar 0
AnchorPoint: "below" 273 0 basechar 0
LayerCount: 2
Fore
SplineSet
272 539 m 0
 423 539 510 435 510 254 c 0
 510 82 420 -23 273 -23 c 0
 124 -23 36 82 36 258 c 0
 36 434 125 539 272 539 c 0
422 290 m 1
 412 399 358 462 273 462 c 0
 188 462 133 397 124 290 c 1
 422 290 l 1
421 220 m 1
 125 220 l 1
 135 116 190 54 273 54 c 0
 356 54 411 117 421 220 c 1
EndSplineSet
Validated: 3073
EndChar

StartChar: uni027A
Encoding: 634 634 457
Width: 333
Flags: MW
LayerCount: 2
Fore
SplineSet
69 73 m 1
 170 75 237 105 237 252 c 2
 237 729 l 1
 321 729 l 1
 321 0 l 1
 244 0 l 1
 244 95 l 1
 196 17 155 -15 101 -15 c 0
 90 -15 83 -14 69 -12 c 1
 69 73 l 1
EndSplineSet
Validated: 3073
EndChar

StartChar: uni027B
Encoding: 635 635 458
Width: 333
Flags: MW
LayerCount: 2
Fore
SplineSet
69 73 m 1
 170 75 237 105 237 252 c 2
 237 524 l 1
 321 524 l 1
 321 -76 l 2
 321 -128 338 -145 389 -145 c 0
 392 -145 392 -145 409 -144 c 1
 409 -215 l 1
 399 -217 394 -218 381 -218 c 0
 287 -218 244 -180 244 -109 c 2
 244 95 l 1
 196 17 155 -15 101 -15 c 0
 90 -15 83 -14 69 -12 c 1
 69 73 l 1
EndSplineSet
Validated: 3073
EndChar

StartChar: uni027C
Encoding: 636 636 459
Width: 333
Flags: MW
LayerCount: 2
Fore
SplineSet
321 451 m 1
 220 449 153 419 153 272 c 2
 153 -200 l 1
 69 -200 l 1
 69 524 l 1
 146 524 l 1
 146 429 l 1
 194 507 235 539 289 539 c 0
 300 539 307 538 321 536 c 1
 321 451 l 1
EndSplineSet
Validated: 3073
EndChar

StartChar: uni027D
Encoding: 637 637 460
Width: 333
Flags: MW
LayerCount: 2
Fore
SplineSet
321 451 m 1
 220 449 153 419 153 272 c 2
 153 -76 l 2
 153 -128 170 -145 221 -145 c 0
 224 -145 224 -145 241 -144 c 1
 241 -215 l 1
 231 -217 226 -218 213 -218 c 0
 119 -218 69 -180 69 -109 c 2
 69 524 l 1
 146 524 l 1
 146 429 l 1
 194 507 235 539 289 539 c 0
 300 539 307 538 321 536 c 1
 321 451 l 1
EndSplineSet
Validated: 3073
EndChar

StartChar: uni027E
Encoding: 638 638 461
Width: 384
Flags: MW
LayerCount: 2
Fore
SplineSet
168 0 m 1
 84 0 l 1
 84 430 l 2
 84 501 134 539 228 539 c 0
 322 539 372 501 372 430 c 2
 372 397 l 1
 288 397 l 1
 288 446 273 464 228 466 c 0
 183 464 168 446 168 397 c 2
 168 0 l 1
EndSplineSet
Validated: 3073
EndChar

StartChar: uni027F
Encoding: 639 639 462
Width: 369
Flags: MW
LayerCount: 2
Fore
SplineSet
273 0 m 1
 273 397 l 2
 273 446 258 464 213 466 c 0
 168 464 153 446 153 397 c 1
 69 397 l 1
 69 430 l 2
 69 501 119 539 213 539 c 0
 307 539 357 501 357 430 c 2
 357 0 l 1
 273 0 l 1
EndSplineSet
Validated: 3073
EndChar

StartChar: uni0282
Encoding: 642 642 463
Width: 500
Flags: MW
LayerCount: 2
Fore
SplineSet
34 -107 m 2
 34 156 l 1
 122 156 l 1
 129 105 148 54 250 54 c 0
 323 54 372 87 372 136 c 0
 372 174 349 195 291 209 c 2
 213 228 l 2
 89 258 47 297 47 379 c 0
 47 476 126 539 248 539 c 0
 369 539 437 481 438 378 c 1
 350 378 l 1
 348 433 312 462 245 462 c 0
 177 462 134 431 134 383 c 0
 134 346 163 324 231 308 c 2
 311 289 l 2
 415 264 459 221 459 143 c 0
 459 42 375 -23 243 -23 c 0
 192 -23 150 -15 118 2 c 1
 118 -74 l 2
 118 -126 135 -143 186 -143 c 0
 189 -143 189 -143 206 -142 c 1
 206 -213 l 1
 196 -215 191 -216 178 -216 c 0
 84 -216 34 -178 34 -107 c 2
EndSplineSet
Validated: 3073
EndChar

StartChar: uni0288
Encoding: 648 648 465
Width: 278
Flags: MW
LayerCount: 2
Fore
SplineSet
254 524 m 1
 254 456 l 1
 168 456 l 1
 168 -98 l 2
 168 -135 178 -145 214 -145 c 0
 230 -145 243 -144 254 -141 c 1
 254 -211 l 1
 226 -216 206 -218 186 -218 c 0
 121 -218 85 -188 85 -135 c 2
 85 456 l 1
 14 456 l 1
 14 524 l 1
 85 524 l 1
 85 668 l 1
 168 668 l 1
 168 524 l 1
 254 524 l 1
EndSplineSet
Validated: 3073
EndChar

StartChar: uni0289
Encoding: 649 649 466
Width: 556
Flags: MW
LayerCount: 2
Fore
SplineSet
482 0 m 1
 407 0 l 1
 407 73 l 1
 358 4 309 -23 232 -23 c 0
 130 -23 65 33 65 120 c 2
 65 240 l 1
 -8 240 l 1
 -8 312 l 1
 65 312 l 1
 65 524 l 1
 148 524 l 1
 148 312 l 1
 399 312 l 1
 399 524 l 1
 482 524 l 1
 482 312 l 1
 560 312 l 1
 560 240 l 1
 482 240 l 1
 482 0 l 1
148 240 m 1
 148 153 l 2
 148 90 190 50 256 50 c 0
 343 50 399 120 399 227 c 2
 399 240 l 1
 148 240 l 1
EndSplineSet
Validated: 3073
EndChar

StartChar: uni0290
Encoding: 656 656 470
Width: 500
Flags: MW
LayerCount: 2
Fore
SplineSet
373 0 m 1
 31 0 l 1
 31 75 l 1
 344 451 l 1
 52 451 l 1
 52 524 l 1
 443 524 l 1
 443 450 l 1
 132 73 l 1
 457 73 l 1
 457 -74 l 2
 457 -126 474 -143 525 -143 c 0
 528 -143 528 -143 545 -142 c 1
 545 -213 l 1
 535 -215 530 -216 517 -216 c 0
 423 -216 373 -178 373 -107 c 2
 373 0 l 1
EndSplineSet
Validated: 3073
EndChar

StartChar: uni02A0
Encoding: 672 672 473
Width: 556
Flags: MW
LayerCount: 2
Fore
SplineSet
266 461 m 0
 174 461 113 379 113 258 c 0
 113 136 174 55 266 55 c 0
 354 55 412 135 412 255 c 0
 412 381 355 461 266 461 c 0
418 458 m 1
 418 531 l 2
 418 606 458 650 535 650 c 0
 552 650 563 649 582 645 c 1
 582 576 l 1
 563 577 560 577 553 577 c 0
 515 577 495 564 495 524 c 2
 495 -218 l 1
 412 -218 l 1
 412 60 l 1
 373 3 323 -23 250 -23 c 0
 112 -23 26 82 26 252 c 0
 26 426 116 539 254 539 c 0
 321 539 379 510 418 458 c 1
EndSplineSet
Validated: 3073
EndChar

StartChar: breve
Encoding: 728 728 474
Width: 333
Flags: MW
LayerCount: 2
Fore
SplineSet
15 732 m 1
 74 732 l 1
 79 688 109 666 166 666 c 0
 220 666 253 690 257 732 c 1
 316 732 l 1
 309 643 257 597 164 597 c 0
 103 597 18 621 15 732 c 1
EndSplineSet
Validated: 3073
EndChar

StartChar: dotaccent
Encoding: 729 729 475
Width: 333
Flags: MW
LayerCount: 2
Fore
SplineSet
219 716 m 1
 219 612 l 1
 115 612 l 1
 115 716 l 1
 219 716 l 1
EndSplineSet
Validated: 3073
EndChar

StartChar: ring
Encoding: 730 730 476
Width: 333
Flags: MW
LayerCount: 2
Fore
SplineSet
167 754 m 0
 216 754 255 715 255 666 c 0
 255 618 215 579 167 579 c 0
 119 579 79 619 79 667 c 0
 79 714 119 754 167 754 c 0
167 710 m 0
 143 710 123 690 123 667 c 0
 123 643 143 623 167 623 c 0
 191 623 211 643 211 666 c 0
 211 691 192 710 167 710 c 0
EndSplineSet
Validated: 3073
EndChar

StartChar: ogonek
Encoding: 731 731 477
Width: 333
Flags: MW
LayerCount: 2
Fore
SplineSet
189 -205 m 0
 116 -205 57 -169 57 -111 c 0
 57 -63 93 -22 154 0 c 1
 224 0 l 1
 151 -41 130 -64 130 -106 c 0
 130 -141 155 -160 202 -160 c 0
 226 -160 247 -157 265 -150 c 1
 265 -195 l 1
 241 -200 208 -205 189 -205 c 0
EndSplineSet
Validated: 3073
EndChar

StartChar: tilde
Encoding: 732 732 478
Width: 333
Flags: MW
LayerCount: 2
Fore
SplineSet
91 717 m 0
 140 717 183 680 224 680 c 0
 242 680 253 692 261 717 c 1
 319 717 l 1
 309 648 279 613 230 613 c 0
 193 613 125 651 96 651 c 0
 81 651 69 637 63 614 c 1
 5 614 l 1
 16 680 47 717 91 717 c 0
EndSplineSet
Validated: 3073
EndChar

StartChar: hungarumlaut
Encoding: 733 733 479
Width: 333
Flags: MW
LayerCount: 2
Fore
SplineSet
61 740 m 1
 174 740 l 1
 25 590 l 1
 -35 590 l 1
 61 740 l 1
235 740 m 1
 348 740 l 1
 199 590 l 1
 139 590 l 1
 235 740 l 1
EndSplineSet
Validated: 3073
EndChar

StartChar: gravedblnosp
Encoding: 783 783 491
Width: 0
Flags: MW
AnchorPoint: "abovemk" -198 538 mark 0
AnchorPoint: "abovemk" -194 740 basemark 0
AnchorPoint: "above" -198 538 mark 0
LayerCount: 2
Fore
SplineSet
-164 740 m 1
 -68 590 l 1
 -128 590 l 1
 -277 740 l 1
 -164 740 l 1
-338 740 m 1
 -242 590 l 1
 -302 590 l 1
 -451 740 l 1
 -338 740 l 1
EndSplineSet
Validated: 3073
EndChar

StartChar: psilicomb
Encoding: 787 787 494
Width: 0
Flags: MW
AnchorPoint: "abovemk" -171 538 mark 0
AnchorPoint: "abovemk" -171 742 basemark 0
AnchorPoint: "above" -171 538 mark 0
LayerCount: 2
Fore
SplineSet
-206 740 m 1
 -118 740 l 1
 -118 667 l 2
 -118 610 -151 577 -206 577 c 1
 -206 619 l 1
 -172 619 -161 631 -161 666 c 1
 -206 666 l 1
 -206 740 l 1
EndSplineSet
Validated: 3073
EndChar

StartChar: uni0314
Encoding: 788 788 495
Width: 0
Flags: MW
AnchorPoint: "abovemk" -171 538 mark 0
AnchorPoint: "abovemk" -171 742 basemark 0
AnchorPoint: "above" -171 538 mark 0
LayerCount: 2
Fore
SplineSet
-124 740 m 1
 -124 666 l 1
 -169 666 l 1
 -169 631 -158 619 -124 619 c 1
 -124 577 l 1
 -179 577 -212 610 -212 667 c 2
 -212 740 l 1
 -124 740 l 1
EndSplineSet
Validated: 3073
EndChar

StartChar: uni0375
Encoding: 885 885 497
Width: 199
Flags: MW
LayerCount: 2
Fore
SplineSet
22 -130 m 1
 128 6 l 1
 139 -58 l 1
 73 -194 l 1
 22 -130 l 1
EndSplineSet
Validated: 3073
EndChar

StartChar: ypogegrammeni
Encoding: 890 890 498
Width: 332
Flags: MW
LayerCount: 2
Fore
SplineSet
229 -163 m 0
 258 -163 251 -158 258 -139 c 1
 283 -139 l 1
 283 -199 259 -200 201 -200 c 0
 148 -200 127 -172 127 -121 c 2
 127 -40 l 1
 203 -40 l 1
 203 -63 203 -119 203 -119 c 2
 203 -139 206 -163 229 -163 c 0
EndSplineSet
Validated: 3073
EndChar

StartChar: Gamma
Encoding: 915 915 508
Width: 582
Flags: MW
LayerCount: 2
Fore
SplineSet
566 645 m 1
 178 645 l 1
 178 0 l 1
 82 0 l 1
 82 729 l 1
 566 729 l 1
 566 645 l 1
EndSplineSet
Validated: 3073
EndChar

StartChar: uni0394
Encoding: 916 916 509
Width: 778
Flags: MW
LayerCount: 2
Fore
SplineSet
723 0 m 1
 53 0 l 1
 317 729 l 1
 433 729 l 1
 723 0 l 1
187 84 m 1
 585 84 l 17
 585 87 377 655 377 655 c 1
 187 84 l 1
EndSplineSet
Validated: 3073
EndChar

StartChar: Theta
Encoding: 920 920 513
Width: 778
Flags: MW
LayerCount: 2
Fore
SplineSet
553 320 m 1
 217 320 l 1
 217 402 l 1
 553 402 l 1
 553 320 l 1
742 353 m 0
 742 143 608 -23 390 -23 c 0
 180 -23 38 131 38 359 c 0
 38 587 180 741 389 741 c 0
 603 741 742 588 742 353 c 0
389 659 m 0
 235 659 131 539 131 359 c 0
 131 179 235 59 390 59 c 0
 544 59 649 179 649 355 c 0
 649 539 547 659 389 659 c 0
EndSplineSet
Validated: 3073
EndChar

StartChar: Lambda
Encoding: 923 923 516
Width: 667
Flags: MW
LayerCount: 2
Fore
SplineSet
116 0 m 1
 17 0 l 1
 277 729 l 1
 397 729 l 1
 653 0 l 1
 549 0 l 1
 336 629 l 1
 116 0 l 1
EndSplineSet
Validated: 3073
EndChar

StartChar: Xi
Encoding: 926 926 519
Width: 630
Flags: MW
LayerCount: 2
Fore
SplineSet
595 646 m 1
 65 646 l 1
 65 729 l 1
 595 729 l 1
 595 646 l 1
538 332 m 1
 129 332 l 1
 129 415 l 1
 538 415 l 1
 538 332 l 1
611 0 m 1
 65 0 l 1
 65 83 l 1
 611 83 l 1
 611 0 l 1
EndSplineSet
Validated: 3073
EndChar

StartChar: Pi
Encoding: 928 928 521
Width: 722
Flags: MW
LayerCount: 2
Fore
SplineSet
640 0 m 1
 546 0 l 1
 546 647 l 1
 174 647 l 1
 174 0 l 1
 80 0 l 1
 80 729 l 1
 640 729 l 1
 640 0 l 1
EndSplineSet
Validated: 3073
EndChar

StartChar: Sigma
Encoding: 931 931 523
Width: 628
Flags: MW
LayerCount: 2
Fore
SplineSet
606 0 m 1
 40 0 l 1
 40 85 l 1
 276 376 l 1
 74 647 l 1
 74 729 l 1
 586 729 l 1
 586 647 l 1
 190 647 l 1
 190 646 326 452 392 376 c 1
 150 81 l 1
 606 81 l 1
 606 0 l 1
EndSplineSet
Validated: 3073
EndChar

StartChar: Phi
Encoding: 934 934 526
Width: 717
Flags: MW
LayerCount: 2
Fore
SplineSet
317 95 m 1
 158 95 29 198 29 369 c 0
 29 531 154 648 318 648 c 1
 318 729 l 1
 399 729 l 1
 399 648 l 1
 566 648 688 528 688 369 c 0
 688 200 559 95 400 95 c 1
 400 0 l 1
 317 0 l 1
 317 95 l 1
597 374 m 0
 597 492 510 565 400 576 c 1
 400 163 l 1
 514 175 597 254 597 374 c 0
317 163 m 1
 317 576 l 1
 206 565 120 491 120 374 c 0
 120 252 204 175 317 163 c 1
EndSplineSet
Validated: 3073
EndChar

StartChar: Psi
Encoding: 936 936 528
Width: 745
Flags: MW
LayerCount: 2
Fore
SplineSet
454 171 m 2
 420 171 l 1
 420 0 l 1
 326 0 l 1
 326 171 l 1
 292 171 l 2
 124 171 52 251 52 376 c 2
 52 729 l 1
 142 709 l 1
 142 398 l 2
 142 289 190 252 304 252 c 2
 330 252 l 1
 330 709 l 1
 416 709 l 1
 416 252 l 1
 442 252 l 2
 555 252 604 288 604 398 c 2
 604 709 l 1
 694 729 l 1
 694 376 l 2
 694 225 590 171 454 171 c 2
EndSplineSet
Validated: 3073
EndChar

StartChar: Omega
Encoding: 937 937 529
Width: 778
Flags: MW
LayerCount: 2
Fore
SplineSet
443 76 m 1
 492 96 638 206 638 393 c 0
 638 541 536 660 383 660 c 0
 232 660 139 530 139 390 c 0
 139 257 219 122 321 76 c 1
 321 0 l 1
 57 0 l 1
 57 72 l 1
 221 72 l 1
 116 134 52 256 52 391 c 0
 52 570 187 733 381 733 c 0
 590 733 729 583 729 395 c 0
 729 252 650 129 541 72 c 1
 717 72 l 1
 717 0 l 1
 443 0 l 1
 443 76 l 1
EndSplineSet
Validated: 3073
EndChar

StartChar: alpha
Encoding: 945 945 537
Width: 596
Flags: MW
LayerCount: 2
Fore
SplineSet
48 262 m 0
 48 362 94 530 276 530 c 0
 350 529 404 505 438 458 c 1
 446 442 l 1
 446 524 l 1
 518 524 l 1
 518 99 l 2
 518 81 525 68 539 68 c 0
 546 68 554 71 562 77 c 1
 583 8 l 1
 554 -6 528 -13 503 -13 c 0
 462 -13 438 11 438 46 c 2
 438 55 l 2
 437 60 437 63 437 65 c 1
 437 42 373 -12 276 -12 c 0
 127 -12 48 79 48 262 c 0
424 266 m 0
 424 366 367 454 276 454 c 0
 172 454 132 372 132 258 c 0
 132 148 170 66 274 66 c 0
 370 66 424 135 424 266 c 0
EndSplineSet
Validated: 3073
EndChar

StartChar: beta
Encoding: 946 946 538
Width: 542
Flags: MW
LayerCount: 2
Fore
SplineSet
50 490 m 2
 50 626 88 732 250 732 c 0
 378 732 450 661 450 544 c 0
 450 464 411 411 346 388 c 1
 442 370 504 312 504 200 c 0
 504 75 426 -14 298 -14 c 0
 218 -14 179 5 136 52 c 1
 136 -198 l 1
 50 -198 l 1
 50 490 l 2
378 546 m 0
 378 614 332 660 263 660 c 0
 224 660 190 646 163 619 c 0
 145 601 136 557 136 486 c 2
 136 144 l 1
 156 89 200 60 280 60 c 0
 367 60 414 112 414 202 c 0
 414 272 382 338 252 338 c 2
 202 338 l 1
 202 412 l 1
 244 412 l 2
 330 412 378 466 378 546 c 0
EndSplineSet
Validated: 3073
EndChar

StartChar: gamma
Encoding: 947 947 539
Width: 531
Flags: MW
LayerCount: 2
Fore
SplineSet
523 524 m 1
 335 38 l 1
 335 -198 l 1
 249 -198 l 1
 249 38 l 1
 82 446 l 2
 78 456 68 460 57 460 c 0
 48 460 40 458 31 454 c 1
 25 524 l 1
 25 529 61 536 67 536 c 0
 130 536 146 517 173 446 c 2
 291 142 l 1
 435 524 l 1
 523 524 l 1
EndSplineSet
Validated: 3073
EndChar

StartChar: delta
Encoding: 948 948 540
Width: 564
Flags: MW
LayerCount: 2
Fore
SplineSet
36 242 m 0
 36 396 122 499 249 499 c 0
 265 499 271 497 283 495 c 1
 72 657 l 1
 72 729 l 1
 470 729 l 1
 470 657 l 1
 201 657 l 1
 376 519 l 2
 426 482 528 421 528 250 c 0
 528 69 453 -16 274 -16 c 0
 176 -16 36 36 36 242 c 0
280 432 m 0
 184 432 129 351 126 250 c 0
 126 125 186 66 274 66 c 2
 302 66 l 2
 330 66 352 68 371 82 c 0
 414 114 440 182 440 252 c 0
 440 357 387 432 280 432 c 0
EndSplineSet
Validated: 3073
EndChar

StartChar: epsilon
Encoding: 949 949 541
Width: 512
Flags: MW
LayerCount: 2
Fore
SplineSet
476 136 m 1
 461 26 384 -10 253 -10 c 0
 131 -10 39 24 39 136 c 0
 39 209 83 244 141 261 c 1
 82 278 39 312 39 386 c 0
 39 503 132 530 253 532 c 2
 262 532 l 2
 390 532 461 494 476 386 c 1
 400 386 l 1
 393 442 319 462 250 462 c 0
 181 462 121 443 121 377 c 0
 121 312 168 290 249 290 c 2
 295 290 l 1
 295 231 l 1
 249 231 l 2
 169 231 121 210 121 144 c 0
 121 81 182 60 250 60 c 0
 317 60 393 80 400 136 c 1
 476 136 l 1
EndSplineSet
Validated: 3073
EndChar

StartChar: zeta
Encoding: 950 950 542
Width: 455
Flags: MW
LayerCount: 2
Fore
SplineSet
294 -4 m 0
 238 -4 38 30 38 220 c 0
 38 415 152 566 278 646 c 1
 54 646 l 1
 54 718 l 1
 410 718 l 1
 410 658 l 1
 278 583 130 427 130 236 c 0
 130 139 190 87 303 74 c 0
 381 68 440 53 440 -42 c 0
 440 -79 427 -130 402 -194 c 1
 326 -166 l 1
 349 -119 360 -85 360 -64 c 0
 360 -17 343 -4 294 -4 c 0
EndSplineSet
Validated: 3073
EndChar

StartChar: eta
Encoding: 951 951 543
Width: 548
Flags: MW
LayerCount: 2
Fore
SplineSet
410 316 m 2
 410 401 389 454 302 454 c 0
 210 454 164 397 164 284 c 2
 164 0 l 1
 76 0 l 1
 76 414 l 2
 76 439 69 451 54 451 c 0
 50 451 45 450 38 448 c 1
 24 520 l 1
 43 527 63 531 85 531 c 0
 130 531 153 491 155 445 c 0
 156 430 l 1
 201 497 255 530 320 530 c 0
 429 530 491 475 497 371 c 0
 498 364 498 347 498 320 c 2
 498 -182 l 1
 410 -158 l 1
 410 316 l 2
EndSplineSet
Validated: 3073
EndChar

StartChar: theta
Encoding: 952 952 544
Width: 525
Flags: MW
LayerCount: 2
Fore
SplineSet
485 360 m 0
 485 135 441 -12 263 -12 c 0
 131 -12 79 69 55 184 c 0
 45 232 40 291 40 360 c 0
 40 545 84 730 263 730 c 0
 441 730 485 544 485 360 c 0
263 658 m 0
 150 658 126 527 126 402 c 1
 401 402 l 1
 401 475 391 536 372 586 c 0
 353 634 316 658 263 658 c 0
401 330 m 1
 126 330 l 1
 126 206 142 62 263 62 c 0
 341 62 401 116 401 330 c 1
EndSplineSet
Validated: 3073
EndChar

StartChar: iota
Encoding: 953 953 545
Width: 286
Flags: MW
LayerCount: 2
Fore
SplineSet
144 136 m 2
 144 101 165 79 192 79 c 0
 203 79 221 85 240 94 c 1
 270 13 l 1
 239 -1 209 -8 180 -8 c 0
 100 -8 56 41 56 133 c 2
 56 524 l 1
 144 524 l 1
 144 136 l 2
EndSplineSet
Validated: 3073
EndChar

StartChar: kappa
Encoding: 954 954 546
Width: 510
Flags: MW
LayerCount: 2
Fore
SplineSet
490 0 m 1
 382 0 l 1
 210 266 l 1
 148 206 l 1
 148 0 l 1
 60 0 l 1
 60 524 l 1
 148 524 l 1
 148 314 l 1
 356 524 l 1
 470 524 l 1
 272 326 l 1
 490 0 l 1
EndSplineSet
Validated: 3073
EndChar

StartChar: lambda
Encoding: 955 955 547
Width: 551
Flags: MW
LayerCount: 2
Fore
SplineSet
213 520 m 1
 185 600 171 644 105 644 c 0
 86 644 51 636 51 636 c 1
 61 718 l 1
 83 726 102 730 117 730 c 0
 228 730 258 619 293 528 c 2
 459 90 l 2
 464 78 474 71 487 71 c 0
 493 71 517 78 521 82 c 1
 541 12 l 1
 509 -4 482 -12 460 -12 c 0
 408 -12 394 23 379 66 c 2
 257 420 l 1
 111 0 l 1
 15 0 l 1
 213 520 l 1
EndSplineSet
Validated: 3073
EndChar

StartChar: uni03BC
Encoding: 956 956 548
Width: 540
Flags: MW
LayerCount: 2
Fore
SplineSet
270 -12 m 0
 210 -12 180 9 148 52 c 1
 148 -200 l 1
 60 -200 l 1
 60 518 l 1
 148 518 l 1
 148 300 l 2
 148 219 152 168 160 145 c 0
 174 100 212 68 268 68 c 0
 332 68 371 118 377 137 c 0
 391 182 394 230 394 298 c 2
 394 518 l 1
 480 518 l 1
 480 0 l 1
 400 0 l 1
 400 62 l 1
 371 16 337 -12 270 -12 c 0
EndSplineSet
Validated: 3073
EndChar

StartChar: xi
Encoding: 958 958 550
Width: 470
Flags: MW
LayerCount: 2
Fore
SplineSet
262 70 m 0
 401 70 441 52 441 -39 c 0
 441 -80 428 -131 402 -194 c 1
 328 -166 l 1
 354 -102 363 -70 363 -46 c 0
 363 -8 343 0 269 0 c 2
 250 0 l 2
 62 0 16 101 16 175 c 0
 16 336 145 370 184 376 c 1
 114 386 62 439 62 516 c 0
 62 576 98 627 138 648 c 1
 38 648 l 1
 38 718 l 1
 410 718 l 1
 410 648 l 1
 244 648 l 2
 186 648 138 577 138 516 c 0
 138 471 171 404 302 404 c 2
 384 404 l 1
 384 340 l 1
 274 340 l 2
 176 340 100 278 100 198 c 0
 100 114 177 70 262 70 c 0
EndSplineSet
Validated: 3073
EndChar

StartChar: pi
Encoding: 960 960 552
Width: 619
Flags: MW
LayerCount: 2
Fore
SplineSet
548 64 m 0
 563 64 574 72 578 76 c 1
 594 14 l 1
 578 8 542 -4 520 -4 c 0
 464 -4 430 14 430 114 c 2
 430 454 l 1
 194 454 l 1
 194 0 l 1
 100 0 l 1
 101 454 l 1
 30 454 l 1
 30 524 l 1
 582 524 l 1
 582 454 l 1
 518 454 l 1
 518 116 l 2
 518 84 518 64 548 64 c 0
EndSplineSet
Validated: 3073
EndChar

StartChar: rho
Encoding: 961 961 553
Width: 569
Flags: MW
LayerCount: 2
Fore
SplineSet
50 270 m 2
 50 482 189 532 290 532 c 0
 444 532 534 426 534 270 c 0
 534 117 487 61 404 15 c 0
 375 -2 337 -10 290 -10 c 0
 220 -10 171 17 138 61 c 1
 138 -200 l 1
 50 -200 l 1
 50 270 l 2
290 64 m 0
 357 64 444 104 444 264 c 0
 444 421 352 460 290 460 c 0
 227 460 138 420 138 262 c 0
 138 104 223 64 290 64 c 0
EndSplineSet
Validated: 3073
EndChar

StartChar: sigma1
Encoding: 962 962 554
Width: 547
Flags: MW
LayerCount: 2
Fore
SplineSet
34 276 m 0
 34 433 136 536 290 536 c 0
 421 536 513 452 513 324 c 1
 422 324 l 1
 422 410 369 458 282 458 c 0
 221 458 130 421 130 274 c 0
 130 117 246 99 376 87 c 0
 460 75 512 58 512 -28 c 0
 512 -69 481 -143 464 -182 c 1
 374 -150 l 1
 386 -126 415 -54 415 -34 c 0
 415 -7 370 -4 330 -2 c 0
 237 2 204 13 137 62 c 0
 79 101 34 177 34 276 c 0
EndSplineSet
Validated: 3073
EndChar

StartChar: sigma
Encoding: 963 963 555
Width: 620
Flags: MW
LayerCount: 2
Fore
SplineSet
34 260 m 0
 34 476 169 530 276 530 c 0
 295 530 312 529 326 526 c 1
 590 526 l 1
 590 444 l 1
 454 444 l 1
 497 389 518 328 518 260 c 0
 518 98 428 -12 276 -12 c 0
 119 -12 34 98 34 260 c 0
124 260 m 0
 124 103 209 62 276 62 c 0
 376 62 428 143 428 260 c 0
 428 366 384 458 276 458 c 0
 168 458 124 362 124 260 c 0
EndSplineSet
Validated: 3073
EndChar

StartChar: tau
Encoding: 964 964 556
Width: 492
Flags: MW
LayerCount: 2
Fore
SplineSet
306 -4 m 0
 205 -4 184 42 184 144 c 2
 184 451 l 1
 20 451 l 1
 20 524 l 1
 472 524 l 1
 472 451 l 1
 272 451 l 1
 272 152 l 2
 272 98 276 80 322 80 c 0
 333 80 351 84 355 85 c 1
 374 6 l 1
 360 2 325 -4 306 -4 c 0
EndSplineSet
Validated: 3073
EndChar

StartChar: upsilon
Encoding: 965 965 557
Width: 538
Flags: MW
LayerCount: 2
Fore
SplineSet
138 232 m 2
 138 109 154 62 270 62 c 0
 312 62 339 69 365 89 c 0
 397 111 400 164 400 232 c 2
 400 524 l 1
 488 524 l 1
 488 198 l 2
 488 18 403 -14 272 -14 c 0
 83 -14 50 63 50 198 c 2
 50 524 l 1
 138 524 l 1
 138 232 l 2
EndSplineSet
Validated: 3073
EndChar

StartChar: phi
Encoding: 966 966 558
Width: 741
Flags: MW
LayerCount: 2
Fore
SplineSet
311 -10 m 2
 145 -10 46 109 46 250 c 0
 46 376 119 469 206 514 c 1
 248 446 l 1
 185 406 130 338 130 254 c 0
 130 151 208 71 313 71 c 2
 333 71 l 1
 333 524 l 1
 421 524 l 2
 582 524 697 413 697 250 c 0
 697 107 604 -10 453 -10 c 2
 421 -10 l 1
 421 -200 l 1
 333 -200 l 1
 333 -10 l 1
 311 -10 l 2
613 251 m 0
 613 354 549 434 441 434 c 2
 421 434 l 1
 421 71 l 1
 445 71 l 2
 547 71 613 148 613 251 c 0
EndSplineSet
Validated: 3073
EndChar

StartChar: chi
Encoding: 967 967 559
Width: 571
Flags: MW
LayerCount: 2
Fore
SplineSet
572 -200 m 1
 555 -208 538 -212 521 -212 c 2
 513 -212 l 2
 461 -212 420 -168 398 -123 c 0
 301 74 l 1
 117 -200 l 1
 13 -200 l 1
 247 160 l 1
 98 420 l 2
 84 446 76 458 40 458 c 1
 30 455 22 454 16 454 c 1
 16 532 l 1
 24 534 66 538 72 538 c 0
 123 538 150 516 170 478 c 0
 301 234 l 1
 454 518 l 1
 550 518 l 1
 355 160 l 1
 486 -91 l 2
 500 -122 518 -127 538 -127 c 0
 552 -127 562 -124 572 -121 c 1
 572 -200 l 1
EndSplineSet
Validated: 3073
EndChar

StartChar: psi
Encoding: 968 968 560
Width: 662
Flags: MW
LayerCount: 2
Fore
SplineSet
620 214 m 2
 620 66 525 -2 374 -2 c 1
 374 -200 l 1
 288 -200 l 1
 288 -2 l 1
 139 -2 42 63 42 214 c 2
 42 524 l 1
 132 524 l 1
 132 242 l 2
 132 125 173 72 288 72 c 1
 288 506 l 1
 374 506 l 1
 374 72 l 1
 489 72 530 126 530 242 c 2
 530 524 l 1
 620 524 l 1
 620 214 l 2
EndSplineSet
Validated: 3073
EndChar

StartChar: omega
Encoding: 969 969 561
Width: 740
Flags: MW
LayerCount: 2
Fore
SplineSet
412 153 m 2
 412 116 434 67 510 63 c 0
 595 63 620 150 620 235 c 0
 620 354 572 435 512 500 c 1
 592 526 l 1
 647 482 704 348 704 241 c 0
 704 43 593 -9 514 -9 c 0
 441 -9 398 28 370 81 c 1
 343 28 300 -9 226 -9 c 0
 94 -9 36 110 36 241 c 0
 36 302 71 465 148 526 c 1
 228 500 l 1
 165 437 120 343 120 235 c 0
 120 151 144 63 229 63 c 0
 312 67 328 122 328 153 c 2
 328 376 l 1
 412 376 l 1
 412 153 l 2
EndSplineSet
Validated: 3073
EndChar

StartChar: afii10051
Encoding: 1026 1026 569
Width: 766
Flags: MW
LayerCount: 2
Fore
SplineSet
553 454 m 2
 653 454 718 389 718 298 c 2
 718 0 l 2
 718 -125 620 -148 551 -148 c 2
 469 -148 l 1
 469 -82 l 1
 568 -82 l 2
 603 -82 625 -60 625 -16 c 2
 625 315 l 2
 625 350 603 372 559 372 c 2
 321 372 l 1
 321 0 l 1
 228 0 l 1
 227 649 l 1
 28 649 l 1
 28 729 l 1
 518 729 l 1
 518 649 l 1
 321 649 l 1
 321 454 l 1
 553 454 l 2
EndSplineSet
Validated: 3073
EndChar

StartChar: afii10053
Encoding: 1028 1028 571
Width: 722
Flags: MW
LayerCount: 2
Fore
SplineSet
567 503 m 1
 546 605 488 659 370 659 c 0
 244 659 160 567 144 414 c 1
 508 414 l 1
 508 332 l 1
 142 332 l 1
 150 164 240 59 378 59 c 0
 500 59 559 128 581 266 c 1
 677 266 l 1
 655 73 555 -23 377 -23 c 0
 114 -23 48 207 48 356 c 0
 48 508 115 741 381 741 c 0
 541 741 633 663 662 503 c 1
 567 503 l 1
EndSplineSet
Validated: 3073
EndChar

StartChar: afii10058
Encoding: 1033 1033 576
Width: 1080
Flags: MW
LayerCount: 2
Fore
SplineSet
514 0 m 1
 513 647 l 1
 288 647 l 1
 288 610 289 524 289 524 c 2
 289 296 273 0 83 0 c 1
 83 94 l 1
 185 94 194 314 194 561 c 2
 194 729 l 1
 607 729 l 1
 607 415 l 1
 754 415 l 2
 929 415 1022 324 1022 210 c 0
 1022 208 l 0
 1021 82 936 0 807 0 c 2
 514 0 l 1
798 82 m 2
 903 82 929 156 929 207 c 0
 929 281 874 333 788 333 c 2
 607 333 l 1
 607 82 l 1
 798 82 l 2
EndSplineSet
Validated: 3073
EndChar

StartChar: afii10059
Encoding: 1034 1034 577
Width: 1014
Flags: MW
LayerCount: 2
Fore
SplineSet
481 0 m 1
 481 332 l 1
 177 332 l 1
 177 0 l 1
 83 0 l 1
 83 729 l 1
 176 729 l 1
 176 414 l 1
 481 414 l 1
 481 729 l 1
 574 729 l 1
 574 415 l 1
 714 415 l 2
 886 415 971 322 972 208 c 0
 972 206 l 0
 972 83 885 0 757 0 c 2
 481 0 l 1
748 82 m 2
 853 82 879 156 879 207 c 0
 879 281 824 333 738 333 c 2
 574 333 l 1
 574 82 l 1
 748 82 l 2
EndSplineSet
Validated: 3073
EndChar

StartChar: afii10060
Encoding: 1035 1035 578
Width: 766
Flags: MW
LayerCount: 2
Fore
SplineSet
553 454 m 2
 653 454 718 389 718 298 c 2
 718 0 l 1
 625 0 l 1
 625 315 l 2
 625 350 603 372 559 372 c 2
 321 372 l 1
 321 0 l 1
 228 0 l 1
 227 649 l 1
 28 649 l 1
 28 729 l 1
 518 729 l 1
 518 649 l 1
 321 649 l 1
 321 454 l 1
 553 454 l 2
EndSplineSet
Validated: 3073
EndChar

StartChar: afii10145
Encoding: 1039 1039 582
Width: 722
Flags: MW
LayerCount: 2
Fore
SplineSet
404 0 m 1
 404 -135 l 1
 324 -135 l 1
 324 0 l 1
 83 0 l 1
 83 729 l 1
 177 729 l 1
 177 82 l 1
 551 82 l 1
 551 729 l 1
 645 729 l 1
 645 0 l 1
 404 0 l 1
EndSplineSet
Validated: 3073
EndChar

StartChar: afii10018
Encoding: 1041 1041 584
Width: 667
Flags: MW
LayerCount: 2
Fore
SplineSet
623 218 m 2
 623 132 580 0 408 0 c 2
 79 0 l 1
 79 729 l 1
 568 729 l 1
 568 647 l 1
 172 647 l 1
 172 435 l 1
 352 435 l 2
 545 435 623 351 623 220 c 0
 623 218 l 2
530 217 m 0
 530 270 510 353 399 353 c 2
 172 353 l 1
 172 82 l 1
 399 82 l 2
 510 82 530 165 530 217 c 0
EndSplineSet
Validated: 3073
EndChar

StartChar: afii10020
Encoding: 1043 1043 586
Width: 581
Flags: MW
LayerCount: 2
Fore
SplineSet
172 0 m 1
 79 0 l 1
 79 729 l 1
 568 729 l 1
 568 647 l 1
 172 647 l 1
 172 0 l 1
EndSplineSet
Validated: 3073
EndChar

StartChar: afii10021
Encoding: 1044 1044 587
Width: 812
Flags: MW
LayerCount: 2
Fore
SplineSet
262 82 m 1
 593 82 l 1
 593 647 l 1
 331 647 l 1
 331 602 332 549 332 493 c 0
 332 345 324 179 262 82 c 1
126 74 m 1
 228 121 237 325 237 564 c 0
 237 618 237 673 237 729 c 1
 687 729 l 1
 687 74 l 1
 778 74 l 1
 778 -135 l 1
 698 -135 l 1
 698 0 l 1
 114 0 l 1
 114 -135 l 1
 34 -135 l 1
 34 74 l 1
 126 74 l 1
EndSplineSet
Validated: 3073
EndChar

StartChar: afii10024
Encoding: 1046 1046 589
Width: 1023
Flags: MW
LayerCount: 2
Fore
SplineSet
459 324 m 1
 173 0 l 1
 63 0 l 1
 388 375 l 1
 105 729 l 1
 221 729 l 1
 459 421 l 1
 459 729 l 1
 552 729 l 1
 552 421 l 1
 790 729 l 1
 906 729 l 1
 623 375 l 1
 948 0 l 1
 830 0 l 1
 552 324 l 1
 552 0 l 1
 459 0 l 1
 459 324 l 1
EndSplineSet
Validated: 3073
EndChar

StartChar: afii10025
Encoding: 1047 1047 590
Width: 667
Flags: MW
LayerCount: 2
Fore
SplineSet
342 59 m 0
 500 59 528 139 528 191 c 0
 528 248 460 321 365 321 c 2
 257 321 l 1
 257 403 l 1
 345 403 l 2
 434 403 503 484 503 540 c 0
 503 614 438 663 340 663 c 0
 224 663 159 610 158 515 c 1
 70 515 l 1
 71 658 169 741 337 741 c 0
 497 741 596 659 596 527 c 0
 596 452 559 403 491 374 c 1
 574 343 621 282 621 200 c 0
 621 111 564 -23 336 -23 c 0
 210 -23 51 25 48 232 c 1
 136 232 l 1
 136 230 136 229 136 227 c 0
 136 153 177 59 342 59 c 0
EndSplineSet
Validated: 3073
EndChar

StartChar: afii10026
Encoding: 1048 1048 591
Width: 728
Flags: MW
LayerCount: 2
Fore
SplineSet
79 729 m 1
 167 729 l 1
 167 126 l 1
 548 729 l 1
 649 729 l 1
 649 0 l 1
 561 0 l 1
 561 598 l 1
 184 0 l 1
 79 0 l 1
 79 729 l 1
EndSplineSet
Validated: 3073
EndChar

StartChar: afii10028
Encoding: 1050 1050 593
Width: 667
Flags: MW
LayerCount: 2
Fore
SplineSet
172 0 m 1
 79 0 l 1
 79 729 l 1
 172 729 l 1
 172 423 l 1
 477 729 l 1
 588 729 l 1
 243 384 l 1
 621 0 l 1
 497 0 l 1
 172 333 l 1
 172 0 l 1
EndSplineSet
Validated: 3073
EndChar

StartChar: afii10029
Encoding: 1051 1051 594
Width: 673
Flags: MW
LayerCount: 2
Fore
SplineSet
500 647 m 1
 238 647 l 1
 238 610 239 568 239 524 c 0
 239 293 223 -10 33 -10 c 1
 33 84 l 1
 135 84 144 311 144 560 c 0
 144 616 144 673 144 729 c 1
 594 729 l 1
 594 0 l 1
 500 0 l 1
 500 647 l 1
EndSplineSet
Validated: 3073
EndChar

StartChar: afii10033
Encoding: 1055 1055 598
Width: 719
Flags: MW
LayerCount: 2
Fore
SplineSet
546 647 m 1
 173 647 l 1
 173 0 l 1
 79 0 l 1
 79 729 l 1
 640 729 l 1
 640 0 l 1
 546 0 l 1
 546 647 l 1
EndSplineSet
Validated: 3073
EndChar

StartChar: afii10037
Encoding: 1059 1059 602
Width: 650
Flags: MW
LayerCount: 2
Fore
SplineSet
252 0 m 1
 139 0 l 1
 268 244 l 1
 26 729 l 1
 139 729 l 1
 324 350 l 1
 508 729 l 1
 619 729 l 1
 252 0 l 1
EndSplineSet
Validated: 3073
EndChar

StartChar: afii10038
Encoding: 1060 1060 603
Width: 936
Flags: MW
LayerCount: 2
Fore
SplineSet
494 636 m 1
 497 636 500 636 504 636 c 0
 600 636 829 619 829 365 c 0
 829 102 605 94 494 94 c 1
 494 0 l 1
 399 0 l 1
 399 94 l 1
 288 94 64 102 64 365 c 0
 64 619 293 636 389 636 c 0
 393 636 396 636 399 636 c 1
 399 729 l 1
 494 729 l 1
 494 636 l 1
494 176 m 1
 551 176 729 190 729 365 c 0
 729 540 551 554 494 554 c 1
 494 176 l 1
399 176 m 1
 399 554 l 1
 342 554 164 540 164 365 c 0
 164 190 342 176 399 176 c 1
EndSplineSet
Validated: 3073
EndChar

StartChar: afii10040
Encoding: 1062 1062 605
Width: 741
Flags: MW
LayerCount: 2
Fore
SplineSet
546 82 m 1
 546 729 l 1
 640 729 l 1
 640 74 l 1
 707 74 l 1
 707 -135 l 1
 627 -135 l 1
 627 0 l 1
 79 0 l 1
 79 729 l 1
 173 729 l 1
 173 82 l 1
 546 82 l 1
EndSplineSet
Validated: 3073
EndChar

StartChar: afii10041
Encoding: 1063 1063 606
Width: 648
Flags: MW
LayerCount: 2
Fore
SplineSet
476 275 m 1
 244 275 l 2
 136 275 79 351 79 432 c 2
 79 729 l 1
 172 729 l 1
 172 414 l 2
 172 373 206 357 248 357 c 2
 476 357 l 1
 476 729 l 1
 569 729 l 1
 569 0 l 1
 476 0 l 1
 476 275 l 1
EndSplineSet
Validated: 3073
EndChar

StartChar: afii10042
Encoding: 1064 1064 607
Width: 828
Flags: MW
LayerCount: 2
Fore
SplineSet
461 82 m 1
 655 82 l 1
 655 729 l 1
 749 729 l 1
 749 0 l 1
 79 0 l 1
 79 729 l 1
 173 729 l 1
 173 82 l 1
 367 82 l 1
 367 729 l 1
 461 729 l 1
 461 82 l 1
EndSplineSet
Validated: 3073
EndChar

StartChar: afii10043
Encoding: 1065 1065 608
Width: 850
Flags: MW
LayerCount: 2
Fore
SplineSet
736 0 m 1
 79 0 l 1
 79 729 l 1
 173 729 l 1
 173 82 l 1
 367 82 l 1
 367 729 l 1
 461 729 l 1
 461 82 l 1
 655 82 l 1
 655 729 l 1
 749 729 l 1
 749 74 l 1
 816 74 l 1
 816 -135 l 1
 736 -135 l 1
 736 0 l 1
EndSplineSet
Validated: 3073
EndChar

StartChar: afii10044
Encoding: 1066 1066 609
Width: 897
Flags: MW
LayerCount: 2
Fore
SplineSet
312 0 m 1
 312 647 l 1
 81 647 l 1
 81 729 l 1
 405 729 l 1
 405 451 l 1
 570 451 l 2
 781 451 856 355 856 229 c 0
 856 226 l 0
 856 93 758 0 626 0 c 2
 312 0 l 1
405 82 m 1
 617 82 l 2
 703 82 763 144 763 225 c 0
 763 310 704 369 617 369 c 2
 405 369 l 1
 405 82 l 1
EndSplineSet
Validated: 3073
EndChar

StartChar: afii10045
Encoding: 1067 1067 610
Width: 872
Flags: MW
LayerCount: 2
Fore
SplineSet
623 226 m 0
 623 93 525 0 393 0 c 2
 79 0 l 1
 79 729 l 1
 172 729 l 1
 172 451 l 1
 337 451 l 2
 548 451 623 355 623 229 c 0
 623 226 l 0
172 82 m 1
 384 82 l 2
 470 82 530 144 530 225 c 0
 530 310 471 369 384 369 c 2
 172 369 l 1
 172 82 l 1
793 729 m 1
 793 0 l 1
 699 0 l 1
 699 729 l 1
 793 729 l 1
EndSplineSet
Validated: 3073
EndChar

StartChar: afii10046
Encoding: 1068 1068 611
Width: 667
Flags: MW
LayerCount: 2
Fore
SplineSet
623 226 m 0
 623 93 525 0 393 0 c 2
 79 0 l 1
 79 729 l 1
 172 729 l 1
 172 451 l 1
 337 451 l 2
 548 451 623 355 623 229 c 0
 623 226 l 0
172 82 m 1
 384 82 l 2
 470 82 530 144 530 225 c 0
 530 310 471 369 384 369 c 2
 172 369 l 1
 172 82 l 1
EndSplineSet
Validated: 3073
EndChar

StartChar: afii10047
Encoding: 1069 1069 612
Width: 722
Flags: MW
LayerCount: 2
Fore
SplineSet
144 266 m 1
 166 128 224 59 347 59 c 0
 485 59 575 164 584 332 c 1
 217 332 l 1
 217 414 l 1
 581 414 l 1
 565 567 481 659 355 659 c 0
 236 659 179 605 158 503 c 1
 63 503 l 1
 92 663 184 741 344 741 c 0
 610 741 677 508 677 356 c 0
 677 207 611 -23 348 -23 c 0
 170 -23 70 73 48 266 c 1
 144 266 l 1
EndSplineSet
Validated: 3073
EndChar

StartChar: afii10048
Encoding: 1070 1070 613
Width: 1032
Flags: MW
LayerCount: 2
Fore
SplineSet
958 353 m 0
 958 145 820 -23 629 -23 c 0
 427 -23 305 119 295 332 c 1
 177 332 l 1
 177 0 l 1
 83 0 l 1
 83 729 l 1
 176 729 l 1
 176 414 l 1
 297 414 l 1
 318 611 433 741 625 741 c 0
 839 741 958 588 958 353 c 0
625 659 m 0
 471 659 387 539 387 359 c 0
 387 179 471 59 626 59 c 0
 780 59 865 179 865 355 c 0
 865 539 783 659 625 659 c 0
EndSplineSet
Validated: 3073
EndChar

StartChar: afii10049
Encoding: 1071 1071 614
Width: 702
Flags: MW
LayerCount: 2
Fore
SplineSet
79 521 m 0
 79 646 165 729 294 729 c 2
 623 729 l 1
 623 0 l 1
 530 0 l 1
 530 314 l 1
 419 314 l 1
 142 0 l 1
 32 0 l 1
 305 314 l 1
 164 314 94 401 79 521 c 0
172 521 m 0
 172 469 198 396 303 396 c 2
 530 396 l 1
 530 647 l 1
 303 647 l 2
 198 647 172 573 172 521 c 0
EndSplineSet
Validated: 3073
EndChar

StartChar: afii10066
Encoding: 1073 1073 616
Width: 556
Flags: MW
LayerCount: 2
Fore
SplineSet
117 469 m 1
 155 530 230 539 272 539 c 0
 423 539 510 435 510 254 c 0
 510 82 420 -23 273 -23 c 0
 124 -23 36 82 36 258 c 0
 36 442 68 658 207 690 c 0
 276 705 396 707 396 775 c 1
 470 775 l 1
 470 640 413 656 224 611 c 0
 171 598 129 541 117 469 c 1
273 462 m 0
 180 462 123 384 123 258 c 0
 123 131 180 54 273 54 c 0
 365 54 423 132 423 255 c 0
 423 385 367 462 273 462 c 0
EndSplineSet
Validated: 3073
EndChar

StartChar: afii10067
Encoding: 1074 1074 617
Width: 522
Flags: MW
LayerCount: 2
Fore
SplineSet
289 524 m 2
 411 524 441 448 441 392 c 0
 441 338 419 300 372 277 c 1
 439 251 468 213 468 150 c 0
 468 65 409 0 313 0 c 2
 70 0 l 1
 70 524 l 1
 289 524 l 2
357 376 m 0
 357 405 341 449 252 449 c 2
 154 449 l 1
 154 307 l 1
 252 307 l 2
 341 307 357 348 357 376 c 0
377 161 m 0
 377 221 322 231 286 231 c 2
 154 231 l 1
 154 76 l 1
 286 76 l 2
 342 76 377 108 377 155 c 0
 377 161 l 0
EndSplineSet
Validated: 3073
EndChar

StartChar: afii10068
Encoding: 1075 1075 618
Width: 430
Flags: MW
LayerCount: 2
Fore
SplineSet
70 524 m 1
 380 524 l 1
 380 448 l 1
 154 448 l 1
 154 0 l 1
 70 0 l 1
 70 524 l 1
EndSplineSet
Validated: 3073
EndChar

StartChar: afii10069
Encoding: 1076 1076 619
Width: 602
Flags: MW
LayerCount: 2
Fore
SplineSet
87 64 m 1
 157 71 169 292 169 524 c 1
 508 524 l 1
 508 64 l 1
 572 64 l 1
 572 -120 l 1
 502 -120 l 1
 502 0 l 1
 100 0 l 1
 100 -120 l 1
 30 -120 l 1
 30 64 l 1
 87 64 l 1
203 76 m 1
 424 76 l 1
 424 448 l 1
 252 448 l 1
 252 430 252 389 252 389 c 2
 252 286 247 156 203 76 c 1
EndSplineSet
Validated: 3073
EndChar

StartChar: afii10072
Encoding: 1078 1078 621
Width: 837
Flags: MW
LayerCount: 2
Fore
SplineSet
458 524 m 1
 458 323 l 1
 650 524 l 1
 757 524 l 1
 515 274 l 1
 789 0 l 1
 683 0 l 1
 458 226 l 1
 458 0 l 1
 375 0 l 1
 375 226 l 1
 150 0 l 1
 44 0 l 1
 318 274 l 1
 76 524 l 1
 183 524 l 1
 375 323 l 1
 375 524 l 1
 458 524 l 1
EndSplineSet
Validated: 3073
EndChar

StartChar: afii10073
Encoding: 1079 1079 622
Width: 500
Flags: MW
LayerCount: 2
Fore
SplineSet
122 156 m 1
 129 105 148 54 250 54 c 0
 323 54 368 87 368 136 c 0
 368 174 326 221 266 221 c 2
 192 221 l 1
 192 297 l 1
 254 297 l 2
 324 297 351 346 351 383 c 0
 351 431 308 462 240 462 c 0
 173 462 137 433 135 378 c 1
 47 378 l 1
 48 481 116 539 237 539 c 0
 359 539 438 476 438 379 c 0
 438 326 419 293 373 267 c 1
 432 241 459 203 459 143 c 0
 459 42 375 -23 243 -23 c 0
 106 -23 38 35 34 156 c 1
 122 156 l 1
EndSplineSet
Validated: 3073
EndChar

StartChar: afii10074
Encoding: 1080 1080 623
Width: 567
Flags: MW
LayerCount: 2
Fore
SplineSet
70 524 m 1
 154 524 l 1
 154 111 l 1
 389 524 l 1
 497 524 l 1
 497 0 l 1
 414 0 l 1
 414 413 l 1
 179 0 l 1
 70 0 l 1
 70 524 l 1
EndSplineSet
Validated: 3073
EndChar

StartChar: afii10076
Encoding: 1082 1082 625
Width: 510
Flags: MW
LayerCount: 2
Fore
SplineSet
153 524 m 1
 153 312 l 1
 365 524 l 1
 461 524 l 1
 210 274 l 1
 484 0 l 1
 378 0 l 1
 153 226 l 1
 153 0 l 1
 70 0 l 1
 70 524 l 1
 153 524 l 1
EndSplineSet
Validated: 3073
EndChar

StartChar: afii10077
Encoding: 1083 1083 626
Width: 557
Flags: MW
LayerCount: 2
Fore
SplineSet
148 524 m 1
 487 524 l 1
 487 0 l 1
 403 0 l 1
 403 448 l 1
 231 448 l 1
 231 433 231 350 231 350 c 2
 231 202 220 -10 70 -10 c 1
 70 70 l 1
 146 70 148 242 148 441 c 2
 148 524 l 1
EndSplineSet
Validated: 3073
EndChar

StartChar: afii10078
Encoding: 1084 1084 627
Width: 618
Flags: MW
LayerCount: 2
Fore
SplineSet
70 524 m 1
 174 524 l 1
 309 198 l 1
 444 524 l 1
 548 524 l 1
 548 0 l 1
 464 0 l 1
 464 363 l 1
 334 40 l 1
 284 40 l 1
 154 363 l 1
 154 0 l 1
 70 0 l 1
 70 524 l 1
EndSplineSet
Validated: 3073
EndChar

StartChar: afii10079
Encoding: 1085 1085 628
Width: 558
Flags: MW
LayerCount: 2
Fore
SplineSet
70 524 m 1
 154 524 l 1
 154 309 l 1
 404 309 l 1
 404 524 l 1
 488 524 l 1
 488 0 l 1
 404 0 l 1
 404 233 l 1
 154 233 l 1
 154 0 l 1
 70 0 l 1
 70 524 l 1
EndSplineSet
Validated: 3073
EndChar

StartChar: afii10081
Encoding: 1087 1087 630
Width: 557
Flags: MW
LayerCount: 2
Fore
SplineSet
70 524 m 1
 487 524 l 1
 487 0 l 1
 403 0 l 1
 403 448 l 1
 154 448 l 1
 154 0 l 1
 70 0 l 1
 70 524 l 1
EndSplineSet
Validated: 3073
EndChar

StartChar: afii10084
Encoding: 1090 1090 633
Width: 496
Flags: MW
LayerCount: 2
Fore
SplineSet
60 524 m 1
 432 524 l 1
 432 448 l 1
 288 448 l 1
 288 0 l 1
 204 0 l 1
 204 448 l 1
 60 448 l 1
 60 524 l 1
EndSplineSet
Validated: 3073
EndChar

StartChar: afii10086
Encoding: 1092 1092 635
Width: 912
Flags: MW
LayerCount: 2
Fore
SplineSet
495 445 m 1
 524 506 569 539 640 539 c 0
 779 539 850 429 850 253 c 0
 850 86 776 -23 641 -23 c 0
 573 -23 539 1 495 55 c 1
 495 -218 l 1
 412 -218 l 1
 412 60 l 1
 373 3 338 -23 265 -23 c 0
 127 -23 61 82 61 252 c 0
 61 426 131 539 269 539 c 0
 338 539 382 502 412 445 c 1
 412 674 l 1
 495 674 l 1
 495 445 l 1
626 461 m 0
 538 461 495 381 495 258 c 0
 495 135 538 55 626 55 c 0
 717 55 763 136 763 255 c 0
 763 380 718 461 626 461 c 0
281 461 m 0
 189 461 148 379 148 258 c 0
 148 136 189 55 281 55 c 0
 369 55 412 135 412 255 c 0
 412 381 370 461 281 461 c 0
EndSplineSet
Validated: 3073
EndChar

StartChar: afii10088
Encoding: 1094 1094 637
Width: 578
Flags: MW
LayerCount: 2
Fore
SplineSet
70 0 m 1
 70 524 l 1
 154 524 l 1
 154 76 l 1
 403 76 l 1
 403 524 l 1
 487 524 l 1
 487 64 l 1
 548 64 l 1
 548 -120 l 1
 478 -120 l 1
 478 0 l 1
 70 0 l 1
EndSplineSet
Validated: 3073
EndChar

StartChar: afii10089
Encoding: 1095 1095 638
Width: 520
Flags: MW
LayerCount: 2
Fore
SplineSet
70 524 m 1
 154 524 l 1
 154 327 l 2
 154 291 183 277 212 277 c 2
 366 277 l 1
 366 524 l 1
 450 524 l 1
 450 0 l 1
 366 0 l 1
 366 201 l 1
 215 201 l 2
 141 201 70 244 70 324 c 2
 70 524 l 1
EndSplineSet
Validated: 3073
EndChar

StartChar: afii10090
Encoding: 1096 1096 639
Width: 692
Flags: MW
LayerCount: 2
Fore
SplineSet
388 76 m 1
 538 76 l 1
 538 524 l 1
 622 524 l 1
 622 0 l 1
 70 0 l 1
 70 524 l 1
 154 524 l 1
 154 76 l 1
 304 76 l 1
 304 524 l 1
 388 524 l 1
 388 76 l 1
EndSplineSet
Validated: 3073
EndChar

StartChar: afii10091
Encoding: 1097 1097 640
Width: 712
Flags: MW
LayerCount: 2
Fore
SplineSet
612 0 m 1
 70 0 l 1
 70 524 l 1
 154 524 l 1
 154 76 l 1
 304 76 l 1
 304 524 l 1
 388 524 l 1
 388 76 l 1
 538 76 l 1
 538 524 l 1
 622 524 l 1
 622 64 l 1
 682 64 l 1
 682 -120 l 1
 612 -120 l 1
 612 0 l 1
EndSplineSet
Validated: 3073
EndChar

StartChar: afii10092
Encoding: 1098 1098 641
Width: 734
Flags: MW
LayerCount: 2
Fore
SplineSet
240 0 m 1
 240 448 l 1
 57 448 l 1
 57 524 l 1
 324 524 l 1
 324 341 l 1
 437 341 l 2
 440 341 l 0
 588 341 653 274 653 167 c 0
 653 69 583 0 486 0 c 2
 240 0 l 1
324 76 m 1
 448 76 l 2
 544 76 562 118 562 164 c 0
 562 236 524 265 448 265 c 2
 324 265 l 1
 324 76 l 1
EndSplineSet
Validated: 3073
EndChar

StartChar: afii10093
Encoding: 1099 1099 642
Width: 690
Flags: MW
LayerCount: 2
Fore
SplineSet
154 524 m 1
 154 341 l 1
 267 341 l 2
 270 341 l 0
 418 341 483 274 483 167 c 0
 483 69 413 0 316 0 c 2
 70 0 l 1
 70 524 l 1
 154 524 l 1
154 76 m 1
 278 76 l 2
 374 76 392 118 392 164 c 0
 392 236 354 265 278 265 c 2
 154 265 l 1
 154 76 l 1
620 524 m 1
 620 0 l 1
 537 0 l 1
 537 524 l 1
 620 524 l 1
EndSplineSet
Validated: 3073
EndChar

StartChar: afii10094
Encoding: 1100 1100 643
Width: 552
Flags: MW
LayerCount: 2
Fore
SplineSet
154 524 m 1
 154 341 l 1
 267 341 l 2
 270 341 l 0
 418 341 483 274 483 167 c 0
 483 69 413 0 316 0 c 2
 70 0 l 1
 70 524 l 1
 154 524 l 1
154 76 m 1
 278 76 l 2
 374 76 392 118 392 164 c 0
 392 236 354 265 278 265 c 2
 154 265 l 1
 154 76 l 1
EndSplineSet
Validated: 3073
EndChar

StartChar: afii10095
Encoding: 1101 1101 644
Width: 500
Flags: MW
LayerCount: 2
Fore
SplineSet
37 348 m 1
 47 472 124 539 244 539 c 0
 385 539 477 427 477 253 c 0
 477 84 387 -23 245 -23 c 0
 120 -23 41 52 31 180 c 1
 115 180 l 1
 129 96 172 54 243 54 c 0
 330 54 384 120 390 232 c 1
 163 232 l 1
 163 309 l 1
 387 309 l 1
 373 406 322 462 245 462 c 0
 175 462 131 421 121 348 c 1
 37 348 l 1
EndSplineSet
Validated: 3073
EndChar

StartChar: afii10096
Encoding: 1102 1102 645
Width: 758
Flags: MW
LayerCount: 2
Fore
SplineSet
250 309 m 1
 250 357 288 539 483 539 c 0
 634 539 721 435 721 254 c 0
 721 82 631 -23 484 -23 c 0
 290 -23 248 149 248 233 c 1
 154 233 l 1
 154 0 l 1
 70 0 l 1
 70 524 l 1
 154 524 l 1
 154 309 l 1
 250 309 l 1
484 462 m 0
 391 462 334 384 334 258 c 0
 334 131 391 54 484 54 c 0
 576 54 634 132 634 255 c 0
 634 385 578 462 484 462 c 0
EndSplineSet
Validated: 3073
EndChar

StartChar: afii10097
Encoding: 1103 1103 646
Width: 543
Flags: MW
LayerCount: 2
Fore
SplineSet
70 375 m 0
 70 431 101 524 225 524 c 2
 473 524 l 1
 473 0 l 1
 389 0 l 1
 389 218 l 1
 320 218 l 1
 117 0 l 1
 14 0 l 1
 219 221 l 1
 136 228 70 274 70 375 c 0
161 364 m 0
 161 304 216 294 252 294 c 2
 389 294 l 1
 389 449 l 1
 252 449 l 2
 196 449 161 417 161 370 c 0
 161 364 l 0
EndSplineSet
Validated: 3073
EndChar

StartChar: afii10099
Encoding: 1106 1106 649
Width: 568
Flags: MW
LayerCount: 2
Fore
SplineSet
434 348 m 2
 434 430 370 451 326 451 c 0
 235 451 185 376 185 275 c 2
 185 0 l 1
 102 0 l 1
 102 596 l 1
 18 596 l 1
 18 660 l 1
 102 660 l 1
 102 729 l 1
 185 729 l 1
 185 660 l 1
 356 660 l 1
 356 596 l 1
 185 596 l 1
 185 437 l 1
 206 464 251 524 352 524 c 0
 450 524 517 475 517 382 c 2
 517 106 l 2
 517 -72 346 -163 272 -163 c 0
 267 -163 262 -163 258 -162 c 1
 258 -122 l 1
 314 -120 434 -41 434 96 c 2
 434 348 l 2
EndSplineSet
Validated: 3073
EndChar

StartChar: afii10101
Encoding: 1108 1108 651
Width: 500
Flags: MW
LayerCount: 2
Fore
SplineSet
344 232 m 1
 118 232 l 1
 124 120 178 54 265 54 c 0
 336 54 379 96 393 180 c 1
 477 180 l 1
 467 52 388 -23 263 -23 c 0
 121 -23 31 84 31 253 c 0
 31 427 123 539 264 539 c 0
 384 539 461 473 471 348 c 1
 387 348 l 1
 377 421 333 462 263 462 c 0
 186 462 135 406 121 309 c 1
 344 309 l 1
 344 232 l 1
EndSplineSet
Validated: 3073
EndChar

StartChar: afii10106
Encoding: 1113 1113 656
Width: 840
Flags: MW
LayerCount: 2
Fore
SplineSet
70 80 m 1
 128 80 148 122 148 403 c 2
 148 524 l 1
 487 524 l 1
 487 310 l 1
 600 310 l 2
 734 310 816 279 816 155 c 0
 816 61 739 0 649 0 c 2
 403 0 l 1
 403 448 l 1
 231 448 l 1
 231 442 231 351 231 351 c 2
 231 64 174 0 70 0 c 1
 70 80 l 1
611 234 m 2
 487 234 l 1
 487 76 l 1
 611 76 l 2
 681 76 725 88 725 151 c 0
 725 204 702 234 611 234 c 2
EndSplineSet
Validated: 3073
EndChar

StartChar: afii10107
Encoding: 1114 1114 657
Width: 850
Flags: MW
LayerCount: 2
Fore
SplineSet
650 0 m 2
 404 0 l 1
 404 233 l 1
 154 233 l 1
 154 0 l 1
 70 0 l 1
 70 524 l 1
 154 524 l 1
 154 309 l 1
 404 309 l 1
 404 524 l 1
 488 524 l 1
 488 310 l 1
 601 310 l 2
 735 310 817 280 817 156 c 0
 817 62 740 0 650 0 c 2
612 234 m 2
 488 234 l 1
 488 76 l 1
 612 76 l 2
 682 76 726 86 726 152 c 0
 726 202 703 234 612 234 c 2
EndSplineSet
Validated: 3073
EndChar

StartChar: afii10108
Encoding: 1115 1115 658
Width: 568
Flags: MW
LayerCount: 2
Fore
SplineSet
434 348 m 2
 434 430 370 451 326 451 c 0
 235 451 185 376 185 275 c 2
 185 0 l 1
 102 0 l 1
 102 596 l 1
 18 596 l 1
 18 660 l 1
 102 660 l 1
 102 729 l 1
 185 729 l 1
 185 660 l 1
 356 660 l 1
 356 596 l 1
 185 596 l 1
 185 437 l 1
 206 464 251 524 352 524 c 0
 450 524 517 475 517 382 c 2
 517 0 l 1
 434 0 l 1
 434 348 l 2
EndSplineSet
Validated: 3073
EndChar

StartChar: afii10193
Encoding: 1119 1119 662
Width: 556
Flags: MW
LayerCount: 2
Fore
SplineSet
314 0 m 1
 314 -120 l 1
 244 -120 l 1
 244 0 l 1
 70 0 l 1
 70 524 l 1
 154 524 l 1
 154 76 l 1
 404 76 l 1
 404 524 l 1
 488 524 l 1
 488 0 l 1
 314 0 l 1
EndSplineSet
Validated: 3073
EndChar

StartChar: uni048C
Encoding: 1164 1164 663
Width: 667
Flags: MW
LayerCount: 2
Fore
SplineSet
530 207 m 0
 530 259 504 333 399 333 c 2
 172 333 l 1
 172 82 l 1
 399 82 l 2
 504 82 530 156 530 207 c 0
623 208 m 0
 623 83 537 0 408 0 c 2
 79 0 l 1
 79 539 l 1
 -10 539 l 1
 -10 609 l 1
 79 609 l 1
 79 729 l 1
 172 729 l 1
 172 609 l 1
 264 609 l 1
 264 539 l 1
 172 539 l 1
 172 415 l 1
 352 415 l 2
 530 415 607 338 623 208 c 0
EndSplineSet
Validated: 3073
EndChar

StartChar: uni048D
Encoding: 1165 1165 664
Width: 552
Flags: MW
LayerCount: 2
Fore
SplineSet
397 153 m 0
 397 196 379 231 306 231 c 2
 154 231 l 1
 154 76 l 1
 306 76 l 2
 383 76 397 133 397 147 c 0
 397 153 l 0
488 150 m 0
 488 61 427 0 333 0 c 2
 70 0 l 1
 70 382 l 1
 8 382 l 1
 8 452 l 1
 70 452 l 1
 70 524 l 1
 154 524 l 1
 154 452 l 1
 226 452 l 1
 226 382 l 1
 154 382 l 1
 154 307 l 1
 272 307 l 2
 422 307 488 258 488 150 c 0
EndSplineSet
Validated: 3073
EndChar

StartChar: uni048E
Encoding: 1166 1166 665
Width: 667
Flags: MW
LayerCount: 2
Fore
SplineSet
489 432 m 1
 509 453 520 483 520 519 c 0
 520 599 467 647 378 647 c 2
 184 647 l 1
 184 391 l 1
 378 391 l 2
 395 391 411 393 425 396 c 1
 371 450 l 1
 421 500 l 1
 489 432 l 1
497 325 m 1
 472 314 444 309 413 309 c 2
 184 309 l 1
 184 0 l 1
 91 0 l 1
 91 729 l 1
 392 729 l 2
 536 729 617 652 617 515 c 0
 617 449 599 403 557 364 c 1
 615 306 l 1
 565 256 l 1
 497 325 l 1
EndSplineSet
Validated: 3073
EndChar

StartChar: uni048F
Encoding: 1167 1167 666
Width: 556
Flags: MW
LayerCount: 2
Fore
SplineSet
398 115 m 1
 422 150 436 198 436 255 c 0
 436 380 376 461 284 461 c 0
 196 461 138 381 138 258 c 0
 138 135 196 55 284 55 c 0
 306 55 327 60 345 69 c 1
 281 133 l 1
 330 183 l 1
 398 115 l 1
461 52 m 1
 524 -11 l 1
 475 -61 l 1
 408 6 l 1
 377 -13 340 -23 299 -23 c 0
 231 -23 182 1 138 55 c 1
 138 -218 l 1
 54 -218 l 1
 54 524 l 1
 131 524 l 1
 131 445 l 1
 170 507 227 539 298 539 c 0
 437 539 523 429 523 253 c 0
 523 169 501 100 461 52 c 1
EndSplineSet
Validated: 3073
EndChar

StartChar: afii10050
Encoding: 1168 1168 667
Width: 611
Flags: MW
LayerCount: 2
Fore
SplineSet
183 0 m 1
 90 0 l 1
 90 729 l 1
 486 729 l 1
 486 825 l 1
 579 825 l 1
 579 647 l 1
 183 647 l 1
 183 0 l 1
EndSplineSet
Validated: 3073
EndChar

StartChar: afii10098
Encoding: 1169 1169 668
Width: 430
Flags: MW
LayerCount: 2
Fore
SplineSet
70 524 m 1
 281 524 l 1
 281 629 l 1
 365 629 l 1
 365 448 l 1
 154 448 l 1
 154 0 l 1
 70 0 l 1
 70 524 l 1
EndSplineSet
Validated: 3073
EndChar

StartChar: uni0492
Encoding: 1170 1170 669
Width: 611
Flags: MW
LayerCount: 2
Fore
SplineSet
172 493 m 1
 278 493 l 1
 278 423 l 1
 172 423 l 1
 172 0 l 1
 79 0 l 1
 79 423 l 1
 4 423 l 1
 4 493 l 1
 79 493 l 1
 79 729 l 1
 568 729 l 1
 568 647 l 1
 172 647 l 1
 172 493 l 1
EndSplineSet
Validated: 3073
EndChar

StartChar: uni0493
Encoding: 1171 1171 670
Width: 430
Flags: MW
LayerCount: 2
Fore
SplineSet
70 328 m 1
 70 524 l 1
 380 524 l 1
 380 448 l 1
 154 448 l 1
 154 328 l 1
 222 328 l 1
 222 258 l 1
 154 258 l 1
 154 0 l 1
 70 0 l 1
 70 258 l 1
 8 258 l 1
 8 328 l 1
 70 328 l 1
EndSplineSet
Validated: 3073
EndChar

StartChar: uni0494
Encoding: 1172 1172 671
Width: 611
Flags: MW
LayerCount: 2
Fore
SplineSet
183 0 m 1
 90 0 l 1
 90 729 l 1
 579 729 l 1
 579 647 l 1
 183 647 l 1
 183 469 l 1
 355 469 l 2
 481 469 540 393 540 277 c 2
 540 18 l 2
 540 -98 481 -174 355 -174 c 2
 303 -174 l 1
 303 -92 l 1
 351 -92 l 2
 406 -92 447 -62 447 0 c 2
 447 295 l 2
 447 357 406 387 351 387 c 2
 183 387 l 1
 183 0 l 1
EndSplineSet
Validated: 3073
EndChar

StartChar: uni0495
Encoding: 1173 1173 672
Width: 490
Flags: MW
LayerCount: 2
Fore
SplineSet
236 -70 m 1
 279 -70 344 -49 344 33 c 2
 344 174 l 2
 344 250 322 277 266 277 c 0
 180 277 154 207 154 100 c 2
 154 0 l 1
 70 0 l 1
 70 524 l 1
 365 524 l 1
 365 448 l 1
 154 448 l 1
 154 263 l 1
 176 328 218 350 292 350 c 0
 394 350 427 295 427 207 c 2
 427 0 l 2
 427 -88 364 -143 262 -143 c 2
 236 -143 l 1
 236 -70 l 1
EndSplineSet
Validated: 3073
EndChar

StartChar: uni0496
Encoding: 1174 1174 673
Width: 1023
Flags: MW
LayerCount: 2
Fore
SplineSet
884 74 m 1
 948 74 l 1
 948 -135 l 1
 868 -135 l 1
 868 0 l 1
 838 0 l 1
 552 324 l 1
 552 0 l 1
 459 0 l 1
 459 324 l 1
 173 0 l 1
 63 0 l 1
 388 375 l 1
 101 729 l 1
 221 729 l 1
 459 421 l 1
 459 729 l 1
 552 729 l 1
 552 421 l 1
 790 729 l 1
 910 729 l 1
 623 375 l 1
 884 74 l 1
EndSplineSet
Validated: 3073
EndChar

StartChar: uni0497
Encoding: 1175 1175 674
Width: 837
Flags: MW
LayerCount: 2
Fore
SplineSet
745 64 m 1
 819 64 l 1
 819 -120 l 1
 749 -120 l 1
 749 0 l 1
 716 0 l 1
 458 216 l 1
 458 0 l 1
 375 0 l 1
 375 216 l 1
 117 0 l 1
 14 0 l 1
 318 264 l 1
 46 524 l 1
 153 524 l 1
 375 302 l 1
 375 524 l 1
 458 524 l 1
 458 302 l 1
 680 524 l 1
 787 524 l 1
 515 264 l 1
 745 64 l 1
EndSplineSet
Validated: 3073
EndChar

StartChar: uni0498
Encoding: 1176 1176 675
Width: 667
Flags: MW
LayerCount: 2
Fore
SplineSet
621 200 m 0
 621 79 535 -8 375 -22 c 1
 410 -44 429 -76 429 -111 c 0
 429 -168 370 -205 297 -205 c 0
 278 -205 245 -200 221 -195 c 1
 221 -150 l 1
 239 -157 260 -160 284 -160 c 0
 331 -160 356 -141 356 -106 c 0
 356 -72 342 -50 298 -22 c 1
 147 -9 50 73 48 232 c 1
 136 232 l 1
 136 230 136 229 136 227 c 0
 136 153 177 59 342 59 c 0
 500 59 528 139 528 191 c 0
 528 248 460 321 365 321 c 2
 257 321 l 1
 257 403 l 1
 345 403 l 2
 434 403 503 484 503 540 c 0
 503 614 438 663 340 663 c 0
 224 663 159 610 158 515 c 1
 70 515 l 1
 71 658 169 741 337 741 c 0
 497 741 596 659 596 527 c 0
 596 452 559 403 491 374 c 1
 574 343 621 282 621 200 c 0
EndSplineSet
Validated: 3073
EndChar

StartChar: uni0499
Encoding: 1177 1177 676
Width: 500
Flags: MW
LayerCount: 2
Fore
SplineSet
122 156 m 1
 129 105 148 54 250 54 c 0
 323 54 368 87 368 136 c 0
 368 174 326 221 266 221 c 2
 192 221 l 1
 192 297 l 1
 254 297 l 2
 324 297 351 346 351 383 c 0
 351 431 308 462 240 462 c 0
 173 462 137 433 135 378 c 1
 47 378 l 1
 48 481 116 539 237 539 c 0
 359 539 438 476 438 379 c 0
 438 326 419 293 373 267 c 1
 432 241 459 203 459 143 c 0
 459 52 391 -10 281 -21 c 1
 315 -44 335 -76 335 -111 c 0
 335 -168 276 -205 203 -205 c 0
 184 -205 151 -200 127 -195 c 1
 127 -150 l 1
 145 -157 166 -160 190 -160 c 0
 237 -160 262 -141 262 -106 c 0
 262 -72 248 -50 203 -21 c 1
 93 -11 38 47 34 156 c 1
 122 156 l 1
EndSplineSet
Validated: 3073
EndChar

StartChar: uni049A
Encoding: 1178 1178 677
Width: 667
Flags: MW
LayerCount: 2
Fore
SplineSet
548 74 m 1
 621 74 l 1
 621 -135 l 1
 541 -135 l 1
 541 0 l 1
 497 0 l 1
 172 333 l 1
 172 0 l 1
 79 0 l 1
 79 729 l 1
 172 729 l 1
 172 423 l 1
 477 729 l 1
 588 729 l 1
 243 384 l 1
 548 74 l 1
EndSplineSet
Validated: 3073
EndChar

StartChar: uni049B
Encoding: 1179 1179 678
Width: 510
Flags: MW
LayerCount: 2
Fore
SplineSet
420 64 m 1
 484 64 l 1
 484 -120 l 1
 414 -120 l 1
 414 0 l 1
 378 0 l 1
 153 226 l 1
 153 0 l 1
 70 0 l 1
 70 524 l 1
 153 524 l 1
 153 312 l 1
 365 524 l 1
 461 524 l 1
 210 274 l 1
 420 64 l 1
EndSplineSet
Validated: 3073
EndChar

StartChar: uni049C
Encoding: 1180 1180 679
Width: 667
Flags: MW
LayerCount: 2
Fore
SplineSet
220 283 m 1
 172 324 l 1
 172 0 l 1
 79 0 l 1
 79 729 l 1
 172 729 l 1
 172 414 l 1
 220 456 l 1
 220 593 l 1
 290 593 l 1
 290 516 l 1
 535 729 l 1
 655 729 l 1
 290 415 l 1
 290 333 l 1
 664 0 l 1
 548 0 l 1
 290 222 l 1
 290 159 l 1
 220 159 l 1
 220 283 l 1
EndSplineSet
Validated: 3073
EndChar

StartChar: uni049D
Encoding: 1181 1181 680
Width: 500
Flags: MW
LayerCount: 2
Fore
SplineSet
190 175 m 1
 141 216 l 1
 141 0 l 1
 58 0 l 1
 58 524 l 1
 141 524 l 1
 141 302 l 1
 190 351 l 1
 190 458 l 1
 260 458 l 1
 260 421 l 1
 363 524 l 1
 470 524 l 1
 260 323 l 1
 260 210 l 1
 502 0 l 1
 399 0 l 1
 260 116 l 1
 260 74 l 1
 190 74 l 1
 190 175 l 1
EndSplineSet
Validated: 3073
EndChar

StartChar: uni049E
Encoding: 1182 1182 681
Width: 667
Flags: MW
LayerCount: 2
Fore
SplineSet
172 623 m 1
 268 623 l 1
 268 553 l 1
 172 553 l 1
 172 414 l 1
 535 729 l 1
 655 729 l 1
 243 375 l 1
 658 0 l 1
 548 0 l 1
 172 324 l 1
 172 0 l 1
 79 0 l 1
 79 553 l 1
 -6 553 l 1
 -6 623 l 1
 79 623 l 1
 79 729 l 1
 172 729 l 1
 172 623 l 1
EndSplineSet
Validated: 3073
EndChar

StartChar: uni049F
Encoding: 1183 1183 682
Width: 500
Flags: MW
LayerCount: 2
Fore
SplineSet
58 478 m 1
 58 524 l 1
 141 524 l 1
 141 478 l 1
 212 478 l 1
 212 408 l 1
 141 408 l 1
 141 302 l 1
 363 524 l 1
 470 524 l 1
 198 264 l 1
 502 0 l 1
 399 0 l 1
 141 216 l 1
 141 0 l 1
 58 0 l 1
 58 408 l 1
 -2 408 l 1
 -2 478 l 1
 58 478 l 1
EndSplineSet
Validated: 3073
EndChar

StartChar: uni04A0
Encoding: 1184 1184 683
Width: 900
Flags: MW
LayerCount: 2
Fore
SplineSet
312 647 m 1
 81 647 l 1
 81 729 l 1
 405 729 l 1
 405 414 l 1
 768 729 l 1
 888 729 l 1
 476 375 l 1
 891 0 l 1
 781 0 l 1
 405 324 l 1
 405 0 l 1
 312 0 l 1
 312 647 l 1
EndSplineSet
Validated: 3073
EndChar

StartChar: uni04A1
Encoding: 1185 1185 684
Width: 683
Flags: MW
LayerCount: 2
Fore
SplineSet
241 448 m 1
 57 448 l 1
 57 524 l 1
 324 524 l 1
 324 302 l 1
 546 524 l 1
 653 524 l 1
 381 264 l 1
 685 0 l 1
 582 0 l 1
 324 216 l 1
 324 0 l 1
 241 0 l 1
 241 448 l 1
EndSplineSet
Validated: 3073
EndChar

StartChar: uni04A2
Encoding: 1186 1186 685
Width: 722
Flags: MW
LayerCount: 2
Fore
SplineSet
644 74 m 1
 711 74 l 1
 711 -135 l 1
 631 -135 l 1
 631 0 l 1
 550 0 l 1
 550 332 l 1
 177 332 l 1
 177 0 l 1
 83 0 l 1
 83 729 l 1
 176 729 l 1
 176 414 l 1
 550 414 l 1
 550 729 l 1
 644 729 l 1
 644 74 l 1
EndSplineSet
Validated: 3073
EndChar

StartChar: uni04A3
Encoding: 1187 1187 686
Width: 556
Flags: MW
LayerCount: 2
Fore
SplineSet
488 64 m 1
 548 64 l 1
 548 -120 l 1
 478 -120 l 1
 478 0 l 1
 404 0 l 1
 404 233 l 1
 154 233 l 1
 154 0 l 1
 70 0 l 1
 70 524 l 1
 154 524 l 1
 154 309 l 1
 404 309 l 1
 404 524 l 1
 488 524 l 1
 488 64 l 1
EndSplineSet
Validated: 3073
EndChar

StartChar: uni04A4
Encoding: 1188 1188 687
Width: 1000
Flags: MW
LayerCount: 2
Fore
SplineSet
644 0 m 1
 550 0 l 1
 550 332 l 1
 177 332 l 1
 177 0 l 1
 83 0 l 1
 83 729 l 1
 176 729 l 1
 176 414 l 1
 550 414 l 1
 550 729 l 1
 968 729 l 1
 968 647 l 1
 644 647 l 1
 644 0 l 1
EndSplineSet
Validated: 3073
EndChar

StartChar: uni04A5
Encoding: 1189 1189 688
Width: 764
Flags: MW
LayerCount: 2
Fore
SplineSet
488 0 m 1
 404 0 l 1
 404 233 l 1
 154 233 l 1
 154 0 l 1
 70 0 l 1
 70 524 l 1
 154 524 l 1
 154 309 l 1
 404 309 l 1
 404 524 l 1
 699 524 l 1
 699 448 l 1
 488 448 l 1
 488 0 l 1
EndSplineSet
Validated: 3073
EndChar

StartChar: uni04A6
Encoding: 1190 1190 689
Width: 1061
Flags: MW
LayerCount: 2
Fore
SplineSet
644 729 m 1
 644 469 l 1
 816 469 l 2
 942 469 1001 393 1001 277 c 2
 1001 18 l 2
 1001 -98 942 -174 816 -174 c 2
 764 -174 l 1
 764 -92 l 1
 812 -92 l 2
 867 -92 908 -62 908 0 c 2
 908 295 l 2
 908 357 867 387 812 387 c 2
 644 387 l 1
 644 0 l 1
 550 0 l 1
 550 647 l 1
 177 647 l 1
 177 0 l 1
 83 0 l 1
 83 729 l 1
 644 729 l 1
EndSplineSet
Validated: 3073
EndChar

StartChar: uni04A7
Encoding: 1191 1191 690
Width: 826
Flags: MW
LayerCount: 2
Fore
SplineSet
569 -70 m 1
 612 -70 677 -49 677 33 c 2
 677 174 l 2
 677 250 655 277 599 277 c 0
 513 277 487 207 487 100 c 2
 487 0 l 1
 403 0 l 1
 403 448 l 1
 154 448 l 1
 154 0 l 1
 70 0 l 1
 70 524 l 1
 487 524 l 1
 487 263 l 1
 509 328 551 350 625 350 c 0
 727 350 760 295 760 207 c 2
 760 0 l 2
 760 -88 697 -143 595 -143 c 2
 569 -143 l 1
 569 -70 l 1
EndSplineSet
Validated: 3073
EndChar

StartChar: uni04AA
Encoding: 1194 1194 691
Width: 722
Flags: MW
LayerCount: 2
Fore
SplineSet
465 -111 m 0
 465 -168 406 -205 333 -205 c 0
 314 -205 281 -200 257 -195 c 1
 257 -150 l 1
 275 -157 296 -160 320 -160 c 0
 367 -160 392 -141 392 -106 c 0
 392 -72 378 -50 333 -21 c 1
 79 3 48 267 48 356 c 0
 48 508 115 741 381 741 c 0
 541 741 633 663 662 503 c 1
 567 503 l 1
 546 605 488 659 370 659 c 0
 229 659 141 544 141 357 c 0
 141 175 233 59 378 59 c 0
 500 59 559 128 581 266 c 1
 677 266 l 1
 656 86 568 -10 412 -22 c 1
 446 -45 465 -76 465 -111 c 0
EndSplineSet
Validated: 3073
EndChar

StartChar: uni04AB
Encoding: 1195 1195 692
Width: 500
Flags: MW
LayerCount: 2
Fore
SplineSet
355 -111 m 0
 355 -168 296 -205 223 -205 c 0
 204 -205 171 -200 147 -195 c 1
 147 -150 l 1
 165 -157 186 -160 210 -160 c 0
 257 -160 282 -141 282 -106 c 0
 282 -71 268 -49 221 -20 c 1
 104 0 31 101 31 253 c 0
 31 427 123 539 264 539 c 0
 384 539 461 473 471 348 c 1
 387 348 l 1
 377 421 333 462 263 462 c 0
 172 462 118 384 118 253 c 0
 118 129 173 54 265 54 c 0
 336 54 379 96 393 180 c 1
 477 180 l 1
 468 65 404 -7 300 -21 c 1
 335 -44 355 -75 355 -111 c 0
EndSplineSet
Validated: 3073
EndChar

StartChar: uni04AC
Encoding: 1196 1196 693
Width: 611
Flags: MW
LayerCount: 2
Fore
SplineSet
354 74 m 1
 421 74 l 1
 421 -135 l 1
 341 -135 l 1
 341 0 l 1
 261 0 l 1
 261 647 l 1
 21 647 l 1
 21 729 l 1
 593 729 l 1
 593 647 l 1
 354 647 l 1
 354 74 l 1
EndSplineSet
Validated: 3073
EndChar

StartChar: uni04AD
Encoding: 1197 1197 694
Width: 496
Flags: MW
LayerCount: 2
Fore
SplineSet
288 64 m 1
 348 64 l 1
 348 -120 l 1
 278 -120 l 1
 278 0 l 1
 204 0 l 1
 204 448 l 1
 60 448 l 1
 60 524 l 1
 432 524 l 1
 432 448 l 1
 288 448 l 1
 288 64 l 1
EndSplineSet
Validated: 3073
EndChar

StartChar: uni04AE
Encoding: 1198 1198 695
Width: 667
Flags: MW
LayerCount: 2
Fore
SplineSet
387 286 m 1
 387 0 l 1
 294 0 l 1
 294 286 l 1
 13 729 l 1
 128 729 l 1
 342 374 l 1
 550 729 l 1
 661 729 l 1
 387 286 l 1
EndSplineSet
Validated: 3073
EndChar

StartChar: uni04AF
Encoding: 1199 1199 696
Width: 667
Flags: MW
LayerCount: 2
Fore
SplineSet
387 86 m 1
 387 -200 l 1
 294 -200 l 1
 294 86 l 1
 53 524 l 1
 168 524 l 1
 342 174 l 1
 510 524 l 1
 621 524 l 1
 387 86 l 1
EndSplineSet
Validated: 3073
EndChar

StartChar: uni04B0
Encoding: 1200 1200 697
Width: 667
Flags: MW
LayerCount: 2
Fore
SplineSet
294 190 m 1
 74 190 l 1
 74 260 l 1
 294 260 l 1
 294 286 l 1
 13 729 l 1
 128 729 l 1
 342 374 l 1
 550 729 l 1
 661 729 l 1
 387 286 l 1
 387 260 l 1
 607 260 l 1
 607 190 l 1
 387 190 l 1
 387 0 l 1
 294 0 l 1
 294 190 l 1
EndSplineSet
Validated: 3073
EndChar

StartChar: uni04B1
Encoding: 1201 1201 698
Width: 667
Flags: MW
LayerCount: 2
Fore
SplineSet
387 86 m 1
 607 86 l 1
 607 16 l 1
 387 16 l 1
 387 -200 l 1
 294 -200 l 1
 294 16 l 1
 74 16 l 1
 74 86 l 1
 294 86 l 1
 53 524 l 1
 168 524 l 1
 342 174 l 1
 510 524 l 1
 621 524 l 1
 387 86 l 1
EndSplineSet
Validated: 3073
EndChar

StartChar: uni04B2
Encoding: 1202 1202 699
Width: 667
Flags: MW
LayerCount: 2
Fore
SplineSet
598 74 m 1
 649 74 l 1
 649 -135 l 1
 569 -135 l 1
 569 0 l 1
 534 0 l 1
 335 304 l 1
 135 0 l 1
 22 0 l 1
 280 374 l 1
 38 729 l 1
 151 729 l 1
 338 443 l 1
 526 729 l 1
 637 729 l 1
 391 374 l 1
 598 74 l 1
EndSplineSet
Validated: 3073
EndChar

StartChar: uni04B3
Encoding: 1203 1203 700
Width: 500
Flags: MW
LayerCount: 2
Fore
SplineSet
430 64 m 1
 473 64 l 1
 473 -120 l 1
 403 -120 l 1
 403 0 l 1
 376 0 l 1
 245 201 l 1
 112 0 l 1
 17 0 l 1
 202 267 l 1
 27 524 l 1
 122 524 l 1
 248 334 l 1
 374 524 l 1
 468 524 l 1
 292 271 l 1
 430 64 l 1
EndSplineSet
Validated: 3073
EndChar

StartChar: uni04B4
Encoding: 1204 1204 701
Width: 942
Flags: MW
LayerCount: 2
Fore
SplineSet
345 647 m 1
 345 82 l 1
 718 82 l 1
 718 729 l 1
 812 729 l 1
 812 74 l 1
 904 74 l 1
 904 -135 l 1
 824 -135 l 1
 824 0 l 1
 251 0 l 1
 251 647 l 1
 21 647 l 1
 21 729 l 1
 572 729 l 1
 572 647 l 1
 345 647 l 1
EndSplineSet
Validated: 3073
EndChar

StartChar: uni04B5
Encoding: 1205 1205 702
Width: 732
Flags: MW
LayerCount: 2
Fore
SplineSet
194 448 m 1
 60 448 l 1
 60 524 l 1
 412 524 l 1
 412 448 l 1
 278 448 l 1
 278 76 l 1
 527 76 l 1
 527 524 l 1
 611 524 l 1
 611 64 l 1
 692 64 l 1
 692 -120 l 1
 622 -120 l 1
 622 0 l 1
 194 0 l 1
 194 448 l 1
EndSplineSet
Validated: 3073
EndChar

StartChar: uni04B6
Encoding: 1206 1206 703
Width: 648
Flags: MW
LayerCount: 2
Fore
SplineSet
569 74 m 1
 636 74 l 1
 636 -135 l 1
 556 -135 l 1
 556 0 l 1
 476 0 l 1
 476 260 l 1
 264 260 l 2
 138 260 79 336 79 452 c 2
 79 729 l 1
 172 729 l 1
 172 434 l 2
 172 372 213 342 268 342 c 2
 476 342 l 1
 476 729 l 1
 569 729 l 1
 569 74 l 1
EndSplineSet
Validated: 3073
EndChar

StartChar: uni04B7
Encoding: 1207 1207 704
Width: 520
Flags: MW
LayerCount: 2
Fore
SplineSet
441 0 m 1
 366 0 l 1
 366 191 l 1
 225 191 l 2
 144 191 70 240 70 334 c 2
 70 524 l 1
 154 524 l 1
 154 337 l 2
 154 288 182 267 222 267 c 2
 366 267 l 1
 366 524 l 1
 450 524 l 1
 450 64 l 1
 511 64 l 1
 511 -120 l 1
 441 -120 l 1
 441 0 l 1
EndSplineSet
Validated: 3073
EndChar

StartChar: uni04B8
Encoding: 1208 1208 705
Width: 648
Flags: MW
LayerCount: 2
Fore
SplineSet
295 342 m 1
 295 479 l 1
 365 479 l 1
 365 342 l 1
 476 342 l 1
 476 729 l 1
 569 729 l 1
 569 0 l 1
 476 0 l 1
 476 260 l 1
 365 260 l 1
 365 135 l 1
 295 135 l 1
 295 260 l 1
 264 260 l 2
 138 260 79 336 79 452 c 2
 79 729 l 1
 172 729 l 1
 172 434 l 2
 172 372 213 342 268 342 c 2
 295 342 l 1
EndSplineSet
Validated: 3073
EndChar

StartChar: uni04B9
Encoding: 1209 1209 706
Width: 520
Flags: MW
LayerCount: 2
Fore
SplineSet
230 191 m 1
 225 191 l 2
 144 191 70 240 70 334 c 2
 70 524 l 1
 154 524 l 1
 154 337 l 2
 154 288 182 267 222 267 c 2
 230 267 l 1
 230 370 l 1
 300 370 l 1
 300 267 l 1
 366 267 l 1
 366 524 l 1
 450 524 l 1
 450 0 l 1
 366 0 l 1
 366 191 l 1
 300 191 l 1
 300 98 l 1
 230 98 l 1
 230 191 l 1
EndSplineSet
Validated: 3073
EndChar

StartChar: uni04BA
Encoding: 1210 1210 707
Width: 648
Flags: MW
LayerCount: 2
Fore
SplineSet
172 469 m 1
 384 469 l 2
 510 469 569 393 569 277 c 2
 569 0 l 1
 476 0 l 1
 476 295 l 2
 476 357 435 387 380 387 c 2
 172 387 l 1
 172 0 l 1
 79 0 l 1
 79 729 l 1
 172 729 l 1
 172 469 l 1
EndSplineSet
Validated: 3073
EndChar

StartChar: uni04BB
Encoding: 1211 1211 708
Width: 520
Flags: MW
LayerCount: 2
Fore
SplineSet
450 0 m 1
 366 0 l 1
 366 187 l 2
 366 236 338 257 298 257 c 2
 154 257 l 1
 154 0 l 1
 70 0 l 1
 70 524 l 1
 154 524 l 1
 154 333 l 1
 295 333 l 2
 376 333 450 284 450 190 c 2
 450 0 l 1
EndSplineSet
Validated: 3073
EndChar

StartChar: uni04BC
Encoding: 1212 1212 709
Width: 927
Flags: MW
LayerCount: 2
Fore
SplineSet
774 466 m 1
 761 557 738 659 582 659 c 0
 467 659 386 586 357 466 c 1
 774 466 l 1
585 -23 m 0
 319 -23 252 210 252 362 c 2
 252 384 l 1
 107 387 47 486 47 586 c 0
 47 690 103 757 187 757 c 0
 260 757 306 717 311 643 c 1
 261 643 l 1
 255 687 229 711 187 711 c 0
 132 711 100 664 100 586 c 0
 100 511 133 466 188 466 c 2
 262 466 l 1
 277 541 310 607 358 656 c 0
 414 714 486 741 581 741 c 0
 705 741 881 695 882 384 c 1
 346 384 l 1
 345 376 345 369 345 361 c 0
 345 174 433 59 574 59 c 0
 693 59 750 113 771 215 c 1
 866 215 l 1
 837 55 745 -23 585 -23 c 0
EndSplineSet
Validated: 3073
EndChar

StartChar: uni04BD
Encoding: 1213 1213 710
Width: 716
Flags: MW
LayerCount: 2
Fore
SplineSet
289 302 m 1
 583 302 l 1
 584 304 584 306 584 308 c 0
 584 394 521 462 439 462 c 0
 355 462 296 399 289 302 c 1
287 234 m 1
 290 88 379 54 441 54 c 0
 508 54 555 90 578 159 c 1
 662 159 l 1
 641 45 558 -23 438 -23 c 0
 297 -23 208 74 200 234 c 1
 86 236 42 315 42 382 c 0
 42 452 79 496 135 496 c 0
 183 496 213 471 218 420 c 1
 184 420 l 1
 180 449 163 466 135 466 c 0
 98 466 77 434 77 382 c 0
 77 332 99 302 135 302 c 2
 202 302 l 1
 218 447 308 539 440 539 c 0
 538 539 618 487 652 401 c 0
 667 362 673 314 673 234 c 1
 287 234 l 1
EndSplineSet
Validated: 3073
EndChar

StartChar: uni04BE
Encoding: 1214 1214 711
Width: 927
Flags: MW
LayerCount: 2
Fore
SplineSet
774 466 m 1
 761 557 738 659 582 659 c 0
 467 659 386 586 357 466 c 1
 774 466 l 1
674 -111 m 0
 674 -168 615 -205 542 -205 c 0
 523 -205 490 -200 466 -195 c 1
 466 -150 l 1
 484 -157 505 -160 529 -160 c 0
 576 -160 601 -141 601 -106 c 0
 601 -72 587 -50 542 -21 c 1
 281 6 252 272 252 362 c 2
 252 384 l 1
 107 387 47 486 47 586 c 0
 47 690 103 757 187 757 c 0
 260 757 306 717 311 643 c 1
 261 643 l 1
 255 687 229 711 187 711 c 0
 132 711 100 664 100 586 c 0
 100 511 133 466 188 466 c 2
 262 466 l 1
 277 541 310 607 358 656 c 0
 414 714 486 741 581 741 c 0
 705 741 881 695 882 384 c 1
 346 384 l 1
 345 376 345 369 345 361 c 0
 345 174 433 59 574 59 c 0
 693 59 750 113 771 215 c 1
 866 215 l 1
 839 67 759 -11 621 -22 c 1
 655 -45 674 -76 674 -111 c 0
EndSplineSet
Validated: 3073
EndChar

StartChar: uni04BF
Encoding: 1215 1215 712
Width: 716
Flags: MW
LayerCount: 2
Fore
SplineSet
289 302 m 1
 583 302 l 1
 584 304 584 306 584 308 c 0
 584 394 521 462 439 462 c 0
 355 462 296 399 289 302 c 1
525 -111 m 0
 525 -168 466 -205 393 -205 c 0
 374 -205 341 -200 317 -195 c 1
 317 -150 l 1
 335 -157 356 -160 380 -160 c 0
 427 -160 452 -141 452 -106 c 0
 452 -71 437 -49 390 -19 c 1
 277 1 207 93 200 234 c 1
 86 236 42 315 42 382 c 0
 42 452 79 496 135 496 c 0
 183 496 213 471 218 420 c 1
 184 420 l 1
 180 449 163 466 135 466 c 0
 98 466 77 434 77 382 c 0
 77 332 99 302 135 302 c 2
 202 302 l 1
 218 447 308 539 440 539 c 0
 538 539 618 487 652 401 c 0
 667 362 673 314 673 234 c 1
 287 234 l 1
 290 88 379 54 441 54 c 0
 508 54 555 90 578 159 c 1
 662 159 l 1
 643 56 573 -10 471 -21 c 1
 506 -44 525 -76 525 -111 c 0
EndSplineSet
Validated: 3073
EndChar

StartChar: uni04C0
Encoding: 1216 1216 713
Width: 278
Flags: MW
LayerCount: 2
Fore
SplineSet
194 729 m 1
 194 0 l 1
 100 0 l 1
 100 729 l 1
 194 729 l 1
EndSplineSet
Validated: 3073
EndChar

StartChar: uni04C3
Encoding: 1219 1219 716
Width: 667
Flags: MW
LayerCount: 2
Fore
SplineSet
426 375 m 2
 552 375 611 299 611 183 c 2
 611 18 l 2
 611 -98 552 -174 426 -174 c 2
 374 -174 l 1
 374 -92 l 1
 422 -92 l 2
 477 -92 518 -62 518 0 c 2
 518 201 l 2
 518 263 477 293 422 293 c 2
 172 293 l 1
 172 0 l 1
 79 0 l 1
 79 729 l 1
 172 729 l 1
 172 414 l 1
 535 729 l 1
 655 729 l 1
 243 375 l 1
 426 375 l 2
EndSplineSet
Validated: 3073
EndChar

StartChar: uni04C4
Encoding: 1220 1220 717
Width: 500
Flags: MW
LayerCount: 2
Fore
SplineSet
357 89 m 2
 357 171 292 192 249 192 c 2
 141 192 l 1
 141 0 l 1
 58 0 l 1
 58 524 l 1
 141 524 l 1
 141 302 l 1
 363 524 l 1
 470 524 l 1
 198 264 l 1
 275 265 l 2
 377 265 440 210 440 122 c 2
 440 0 l 2
 440 -88 377 -143 275 -143 c 2
 249 -143 l 1
 249 -70 l 1
 292 -70 357 -49 357 33 c 2
 357 89 l 2
EndSplineSet
Validated: 3073
EndChar

StartChar: uni04C7
Encoding: 1223 1223 718
Width: 722
Flags: MW
LayerCount: 2
Fore
SplineSet
550 0 m 2
 550 332 l 1
 177 332 l 1
 177 0 l 1
 83 0 l 1
 83 729 l 1
 176 729 l 1
 176 414 l 1
 550 414 l 1
 550 729 l 1
 644 729 l 1
 644 18 l 2
 644 -98 584 -174 458 -174 c 2
 406 -174 l 1
 406 -92 l 1
 454 -92 l 2
 509 -92 550 -62 550 0 c 2
EndSplineSet
Validated: 3073
EndChar

StartChar: uni04C8
Encoding: 1224 1224 719
Width: 556
Flags: MW
LayerCount: 2
Fore
SplineSet
297 -70 m 1
 341 -70 404 -49 404 33 c 2
 404 233 l 1
 154 233 l 1
 154 0 l 1
 70 0 l 1
 70 524 l 1
 154 524 l 1
 154 309 l 1
 404 309 l 1
 404 524 l 1
 488 524 l 1
 488 0 l 2
 488 -88 425 -143 323 -143 c 2
 297 -143 l 1
 297 -70 l 1
EndSplineSet
Validated: 3073
EndChar

StartChar: uni04CB
Encoding: 1227 1227 720
Width: 648
Flags: MW
LayerCount: 2
Fore
SplineSet
489 0 m 1
 489 -135 l 1
 409 -135 l 1
 409 74 l 1
 476 74 l 1
 476 260 l 1
 264 260 l 2
 138 260 79 336 79 452 c 2
 79 729 l 1
 172 729 l 1
 172 434 l 2
 172 372 213 342 268 342 c 2
 476 342 l 1
 476 729 l 1
 569 729 l 1
 569 0 l 1
 489 0 l 1
EndSplineSet
Validated: 3073
EndChar

StartChar: uni04CC
Encoding: 1228 1228 721
Width: 520
Flags: MW
LayerCount: 2
Fore
SplineSet
375 0 m 1
 375 -120 l 1
 305 -120 l 1
 305 64 l 1
 366 64 l 1
 366 191 l 1
 225 191 l 2
 144 191 70 240 70 334 c 2
 70 524 l 1
 154 524 l 1
 154 337 l 2
 154 288 182 267 222 267 c 2
 366 267 l 1
 366 524 l 1
 450 524 l 1
 450 0 l 1
 375 0 l 1
EndSplineSet
Validated: 3073
EndChar

StartChar: uni04D4
Encoding: 1236 1236 726
Width: 1000
Flags: MW
LayerCount: 2
Fore
SplineSet
468 214 m 1
 199 214 l 1
 114 0 l 1
 11 0 l 1
 310 729 l 1
 932 729 l 1
 932 647 l 1
 561 647 l 1
 561 414 l 1
 913 414 l 1
 913 332 l 1
 561 332 l 1
 561 82 l 1
 950 82 l 1
 950 0 l 1
 468 0 l 1
 468 214 l 1
468 296 m 1
 468 647 l 1
 368 647 l 1
 230 296 l 1
 468 296 l 1
EndSplineSet
Validated: 3073
EndChar

StartChar: uni04D5
Encoding: 1237 1237 727
Width: 889
Flags: MW
LayerCount: 2
Fore
SplineSet
459 234 m 1
 462 88 551 54 613 54 c 0
 680 54 727 90 751 159 c 1
 835 159 l 1
 814 45 730 -23 612 -23 c 0
 535 -23 469 8 434 60 c 0
 429 68 425 75 418 87 c 1
 343 9 280 -23 202 -23 c 0
 100 -23 34 38 34 132 c 0
 34 238 97 287 294 303 c 0
 362 309 381 323 381 362 c 2
 381 384 l 2
 381 435 340 462 263 462 c 0
 186 462 148 433 141 369 c 1
 57 369 l 1
 62 511 174 539 265 539 c 0
 350 539 409 511 440 457 c 1
 476 508 541 539 613 539 c 0
 710 539 790 486 824 401 c 0
 839 362 845 314 845 234 c 1
 459 234 l 1
221 50 m 0
 328 50 381 135 381 157 c 2
 381 258 l 1
 282 215 121 249 121 134 c 0
 121 82 159 50 221 50 c 0
461 302 m 1
 755 302 l 1
 755 397 696 462 611 462 c 0
 527 462 468 399 461 302 c 1
EndSplineSet
Validated: 3073
EndChar

StartChar: uni04D8
Encoding: 1240 1240 730
Width: 722
Flags: MW
LayerCount: 2
Fore
SplineSet
155 252 m 1
 168 161 191 59 347 59 c 0
 462 59 543 132 572 252 c 1
 155 252 l 1
677 356 m 0
 677 207 611 -23 348 -23 c 0
 224 -23 48 23 47 334 c 1
 583 334 l 1
 584 342 584 349 584 357 c 0
 584 544 496 659 355 659 c 0
 236 659 179 605 158 503 c 1
 63 503 l 1
 92 663 184 741 344 741 c 0
 610 741 677 508 677 356 c 0
EndSplineSet
Validated: 3073
EndChar

StartChar: afii10846
Encoding: 1241 1241 731
Width: 556
Flags: MW
LayerCount: 2
Fore
SplineSet
426 282 m 1
 423 428 334 462 272 462 c 0
 205 462 158 426 135 357 c 1
 51 357 l 1
 72 471 155 539 275 539 c 0
 422 539 513 433 513 261 c 0
 513 89 419 -23 273 -23 c 0
 175 -23 95 29 61 115 c 0
 46 154 40 202 40 282 c 1
 426 282 l 1
424 214 m 1
 130 214 l 1
 129 212 129 210 129 208 c 0
 129 122 192 54 274 54 c 0
 358 54 417 117 424 214 c 1
EndSplineSet
Validated: 3073
EndChar

StartChar: uni04E8
Encoding: 1256 1256 746
Width: 778
Flags: MW
LayerCount: 2
Fore
SplineSet
742 353 m 0
 742 143 608 -23 390 -23 c 0
 180 -23 38 131 38 359 c 0
 38 587 180 741 389 741 c 0
 603 741 742 588 742 353 c 0
648 385 m 1
 638 552 538 659 389 659 c 0
 243 659 141 550 132 385 c 1
 648 385 l 1
647 315 m 1
 133 315 l 1
 149 160 248 59 390 59 c 0
 532 59 632 161 647 315 c 1
EndSplineSet
Validated: 3073
EndChar

StartChar: uni04E9
Encoding: 1257 1257 747
Width: 556
Flags: MW
LayerCount: 2
Fore
SplineSet
272 539 m 0
 423 539 510 435 510 254 c 0
 510 82 420 -23 273 -23 c 0
 124 -23 36 82 36 258 c 0
 36 434 125 539 272 539 c 0
422 290 m 1
 412 399 358 462 273 462 c 0
 188 462 133 397 124 290 c 1
 422 290 l 1
421 220 m 1
 125 220 l 1
 135 116 190 54 273 54 c 0
 356 54 411 117 421 220 c 1
EndSplineSet
Validated: 3073
EndChar

StartChar: uni0531
Encoding: 1329 1329 762
Width: 720
Flags: HMW
LayerCount: 2
Fore
SplineSet
345 73 m 0
 508 73 538 161 538 303 c 2
 538 716 l 1
 633 716 l 1
 633 120 l 1
 720 27 l 1
 661 -41 l 1
 570 60 l 1
 521 5 399 -12 353 -12 c 0
 127 -12 70 106 70 302 c 2
 70 716 l 1
 164 716 l 1
 164 303 l 2
 164 197.542 167 73 345 73 c 0
EndSplineSet
Validated: 3073
EndChar

StartChar: uni0532
Encoding: 1330 1330 763
Width: 696
Flags: HMW
LayerCount: 2
Fore
SplineSet
353 726 m 0
 577 726 633 595 633 412 c 2
 633 330 l 1
 538 330 l 1
 538 411 l 2
 538 551 512.012 641 345 641 c 0
 177 641 165 532 165 372 c 2
 165 372 165 281 165 243 c 1
 630 243 l 1
 630 150 l 1
 165 150 l 1
 165 0 l 1
 70 0 l 1
 70 412 l 2
 70 597 121 726 353 726 c 0
EndSplineSet
Validated: 3073
EndChar

StartChar: uni0533
Encoding: 1331 1331 764
Width: 750
Flags: HMW
LayerCount: 2
Fore
SplineSet
720 134 m 1
 613 134 l 1
 613 -1 l 1
 518 -1 l 1
 518 134 l 1
 303 134 l 2
 79 134 60 348 60 412 c 0
 60 576.076 78.2217 726 340 726 c 0
 473 726 555 682 596 591 c 0
 608 565 610 523 610 483 c 2
 610 483 610 280.6 610 230 c 1
 720 230 l 1
 720 134 l 1
517 507 m 2
 517 587 447 639 348 641 c 0
 140.773 641 152.42 507.502 150 447 c 0
 150 262 256 230 337 230 c 2
 517 230 l 1
 517 507 l 2
EndSplineSet
Validated: 3073
EndChar

StartChar: uni0534
Encoding: 1332 1332 765
Width: 725
Flags: HMW
LayerCount: 2
Fore
SplineSet
340 729 m 0
 566 729 623 606 623 415 c 2
 623 239 l 1
 705 239 l 1
 705 145 l 1
 623 145 l 1
 623 1 l 1
 528 1 l 1
 528 414 l 2
 528 546 508 640 348 644 c 0
 185 644 155 556 155 414 c 2
 155 333 l 1
 60 333 l 1
 60 415 l 2
 60 541.275 75.2783 729 340 729 c 0
EndSplineSet
Validated: 3073
EndChar

StartChar: uni0535
Encoding: 1333 1333 766
Width: 699
Flags: HMW
LayerCount: 2
Fore
SplineSet
345 76 m 0
 509 76 538 163 538 305 c 2
 538 386 l 1
 633 386 l 1
 633 305 l 2
 633 128 584 -7 353 -10 c 0
 125 -10 70 115 70 305 c 2
 70 733 l 1
 165 733 l 1
 165 581 l 1
 630 581 l 1
 630 488 l 1
 165 488 l 1
 165 305 l 2
 165 210.447 166.64 76 345 76 c 0
EndSplineSet
Validated: 3073
EndChar

StartChar: uni0536
Encoding: 1334 1334 767
Width: 751
Flags: HMW
LayerCount: 2
Fore
SplineSet
655 469 m 0
 655 267 529 160 472 131 c 1
 595 131 l 2
 648 131 728 119 731 0 c 1
 648 0 l 1
 648 38 625 51 579 52 c 2
 156 52 l 1
 156 1 l 1
 66 1 l 1
 66 184 l 1
 156 184 l 1
 156 129 l 1
 283 129 l 2
 309.198 129 582 184.743 582 445 c 0
 582 617 444 660 363 660 c 0
 254.002 660 145 588.281 145 440 c 1
 333 440 l 1
 333 359 l 1
 50 359 l 1
 50 369.5 50 388 50 388 c 2
 50 576.075 114.4 735 372 735 c 0
 502.212 735 655 655.353 655 469 c 0
EndSplineSet
Validated: 3073
EndChar

StartChar: uni0537
Encoding: 1335 1335 768
Width: 446
Flags: HMW
LayerCount: 2
Fore
SplineSet
320 79 m 1
 320 0 l 1
 70 0 l 1
 70 721 l 1
 166 721 l 1
 166 488 l 1
 416 488 l 1
 416 411 l 1
 166 411 l 1
 166 79 l 1
 320 79 l 1
EndSplineSet
Validated: 3073
EndChar

StartChar: uni0538
Encoding: 1336 1336 769
Width: 703
Flags: HMW
LayerCount: 2
Fore
SplineSet
633 415 m 2
 633 274 l 1
 538 274 l 1
 538 414 l 2
 538 552 512 642 345 644 c 0
 190 644 164 554.015 164 414 c 2
 164 87 l 1
 633 87 l 1
 633 0 l 1
 70 0 l 1
 70 415 l 2
 70 600 121 729 353 729 c 0
 577.245 729 633 599.791 633 415 c 2
EndSplineSet
Validated: 3073
EndChar

StartChar: uni0539
Encoding: 1337 1337 770
Width: 790
Flags: HMW
LayerCount: 2
Fore
SplineSet
462 368 m 2
 373 368 347 346 347 218 c 0
 347 108 366 78 488 76 c 0
 590 76 641 122 641 213 c 2
 641 368 l 1
 462 368 l 2
736 206 m 2
 736 119.463 696.088 -2 469 -2 c 0
 276.222 -2 254 110.06 254 216 c 0
 254 379 296 448 461 448 c 2
 641 448 l 1
 641 514 l 2
 641 592 614 647 493 650 c 2
 314 650 l 2
 248 650 165 640 165 514 c 2
 165 0 l 1
 70 0 l 1
 70 523 l 2
 70 687 211 728 308 728 c 2
 499 728 l 2
 638 728 736 646 736 523 c 2
 736 448 l 1
 790 448 l 1
 790 370 l 1
 736 370 l 1
 736 206 l 2
EndSplineSet
Validated: 3073
EndChar

StartChar: uni053A
Encoding: 1338 1338 771
Width: 656
Flags: HMW
LayerCount: 2
Fore
SplineSet
540 195 m 2
 540 74 448 -7 302 -10 c 0
 163 -10 65 68 65 195 c 2
 65 321 l 2
 65 444 157 523 302 526 c 2
 445 526 l 1
 445 718 l 1
 537 718 l 1
 537 526 l 1
 636 526 l 1
 636 451 l 1
 540 451 l 1
 540 195 l 2
302 65 m 0
 386 65 442 90 445 202 c 2
 445 451 l 1
 325 451 295 451 295 451 c 2
 216 451 161.854 423.993 160 309 c 2
 160 202 l 2
 160 119 196 65 302 65 c 0
EndSplineSet
Validated: 3073
EndChar

StartChar: uni053B
Encoding: 1339 1339 772
Width: 697
Flags: HMW
LayerCount: 2
Fore
SplineSet
538 257 m 2
 538 394 511 486 358 486 c 0
 267 486 185 456 171 381 c 0
 167 360 164 329 164 286 c 0
 164 0 l 1
 70 0 l 1
 70 732 l 1
 168 732 l 1
 168 518 l 1
 182 551 291 575 346 575 c 0
 577 575 632 443 632 257 c 2
 632 186 l 1
 538 186 l 1
 538 257 l 2
EndSplineSet
Validated: 3073
EndChar

StartChar: uni053C
Encoding: 1340 1340 773
Width: 390
Flags: HMW
LayerCount: 2
Fore
SplineSet
70 0 m 1
 70 716 l 1
 165 716 l 1
 165 94 l 1
 350 94 l 1
 350 0 l 1
 70 0 l 1
EndSplineSet
Validated: 3073
EndChar

StartChar: uni053D
Encoding: 1341 1341 774
Width: 852
Flags: HMW
LayerCount: 2
Fore
SplineSet
548 73 m 0
 628.65 73 692 96 692 303 c 2
 692 527 l 1
 787 527 l 1
 787 302 l 2
 787 66 686 -12 547 -12 c 0
 316 -12 272 117 272 303 c 2
 272 303 272 411 272 448 c 1
 165 448 l 1
 165 0 l 1
 70 0 l 1
 70 723 l 1
 165 723 l 1
 165 528 l 1
 368 528 l 1
 368 303 l 2
 368 165 390 77 548 73 c 0
EndSplineSet
Validated: 3073
EndChar

StartChar: uni053E
Encoding: 1342 1342 775
Width: 791
Flags: HMW
LayerCount: 2
Fore
SplineSet
118 762 m 1
 122 712 174 707 214 707 c 2
 629 707 l 2
 687 707 734 693 759 662 c 1
 768 646 l 1
 703 583 l 1
 695 626 666 627 642 627 c 2
 516 628 l 1
 517.586 628 708.303 563.383 712 312 c 0
 712 123.572 549.791 -4 375 -4 c 0
 190 -4 47 142 47 330 c 0
 47 528.514 227.123 628.854 240 631 c 1
 159 632 l 2
 97 632 35 650 35 713 c 0
 35 716 35 718 35 721 c 1
 118 762 l 1
627 316 m 0
 627 466 521 582 384 582 c 0
 240.179 582 130 450.832 130 312 c 0
 130 185.285 237.473 72.0696 372 70 c 0
 501.29 70 624.862 174.893 627 316 c 0
EndSplineSet
Validated: 3073
EndChar

StartChar: uni053F
Encoding: 1343 1343 776
Width: 698
Flags: HMW
LayerCount: 2
Fore
SplineSet
356 159 m 0
 127 159 70 286 70 476 c 2
 70 733 l 1
 164 733 l 1
 164 477 l 2
 164 366.78 171.146 251.347 345 247 c 0
 532.208 247 538 344.017 538 477 c 2
 538 553 l 1
 633 553 l 1
 632 1 l 1
 535 1 l 1
 535 216 l 1
 524 193 470 159 356 159 c 0
EndSplineSet
Validated: 3073
EndChar

StartChar: uni0540
Encoding: 1344 1344 777
Width: 585
Flags: HMW
LayerCount: 2
Fore
SplineSet
501 725 m 0
 524 725 550 721 564 710 c 1
 564 607 l 1
 556.652 616.043 543.934 636.805 511 639 c 0
 479 639 452 613 435 593 c 2
 164 265 l 1
 548 89 l 1
 548 -74 l 1
 516 -74 l 1
 500 15 425 46 398 59 c 2
 20 229 l 1
 392 669 l 2
 416 699 451 725 501 725 c 0
EndSplineSet
Validated: 3073
EndChar

StartChar: uni0541
Encoding: 1345 1345 778
Width: 656
Flags: HMW
LayerCount: 2
Fore
SplineSet
331 653 m 0
 242 653 172 591 172 495 c 2
 172 434 l 1
 77 436 l 1
 77 502 l 2
 77 612.287 175.561 728 331 728 c 0
 487 728 588 629 591 482 c 2
 591 419 l 2
 591 285 517 162 404 84 c 1
 435 58 458 23 485 -8 c 1
 412 -42 l 1
 383 -18 360 4 337 36 c 1
 251.301 -9.23047 227 -9.59961 199 -11 c 0
 79.7998 -11 50 64 50 106 c 0
 50 189 96 235 173 237 c 0
 202.833 237 295.683 228.529 350 138 c 1
 432 190 498 308 498 429 c 2
 498 473 l 2
 498 626 362 653 331 653 c 0
189 156 m 0
 158 156 136 144.056 136 108 c 0
 136 84 157 64 198 64 c 0
 227 64 256 83 279 99 c 1
 265 118 234 156 189 156 c 0
EndSplineSet
Validated: 3073
EndChar

StartChar: uni0542
Encoding: 1346 1346 779
Width: 651
Flags: HMW
LayerCount: 2
Fore
SplineSet
302 728 m 0
 444 728 539 645 539 523 c 2
 539 75 l 1
 636 75 l 1
 636 0 l 1
 444 0 l 1
 444 517 l 2
 444 594 418 650 302 653 c 0
 222 653 160 626 160 517 c 2
 160 313 l 1
 65 313 l 1
 65 523 l 2
 65 642 158 728 302 728 c 0
EndSplineSet
Validated: 3073
EndChar

StartChar: uni0543
Encoding: 1347 1347 780
Width: 658
Flags: HMW
LayerCount: 2
Fore
SplineSet
618 0 m 1
 40 0 l 1
 40 342.274 245.242 535.374 249 536 c 1
 234 547 201 563 177 572 c 1
 237 643 l 1
 274 630 292 629 326 606 c 1
 373 648 462 696 523 724 c 1
 589 657 l 1
 517 625 457 595 403 557 c 1
 412.928 557 618 333.323 618 0 c 1
530 96 m 1
 512.825 165.711 469.065 357.029 335 496 c 1
 329.06 496 183.922 316.349 143 96 c 1
 530 96 l 1
EndSplineSet
Validated: 3073
EndChar

StartChar: uni0544
Encoding: 1348 1348 781
Width: 759
Flags: HMW
LayerCount: 2
Fore
SplineSet
348 75 m 0
 503 75 529 170 529 304 c 2
 529 729 l 1
 728 729 l 1
 729 636 l 1
 623 635 l 1
 623 304 l 2
 623 110 566 -10 340 -10 c 0
 116 -10 60 121 60 304 c 2
 60 728 l 1
 155 728 l 1
 155 304 l 2
 155 162 184 75 348 75 c 0
EndSplineSet
Validated: 3073
EndChar

StartChar: uni0545
Encoding: 1349 1349 782
Width: 595
Flags: HMW
LayerCount: 2
Fore
SplineSet
443 386 m 1
 493 380 550 315 550 203 c 0
 550 66 436 -12 294 -12 c 0
 99.8594 -12 45 119.228 45 194 c 1
 138 194 l 1
 138 74.2939 296.978 63 297 63 c 0
 311.977 63 456 67.8818 456 209 c 0
 456 335.999 349.944 352 303 352 c 2
 71 352 l 1
 71 429 l 1
 302 429 l 2
 355 429 433 444 435 544 c 0
 435 631 348 653 295 653 c 0
 227 653 171 616 171 556 c 1
 75 556 l 1
 75 623 119 728 296 728 c 0
 481 728 528 619 528 541 c 0
 528 434.667 472.878 397.951 443 386 c 1
EndSplineSet
Validated: 3073
EndChar

StartChar: uni0546
Encoding: 1350 1350 783
Width: 772
Flags: HMW
LayerCount: 2
Fore
SplineSet
447 -9 m 0
 221 -9 169 102 164 305 c 2
 164 635 l 1
 10 635 l 1
 10 729 l 1
 259 729 l 1
 259 305 l 2
 259 209.262 262.165 76 439 76 c 0
 603 76 632 163 632 305 c 2
 632 454 l 1
 727 454 l 1
 727 305 l 2
 727 125 675 -9 447 -9 c 0
EndSplineSet
Validated: 3073
EndChar

StartChar: uni0547
Encoding: 1351 1351 784
Width: 603
Flags: HMW
LayerCount: 2
Fore
SplineSet
40 333 m 2
 40 497 134 590 232 625 c 1
 92 655 l 1
 92 739 l 1
 514 642 l 1
 514 559 l 1
 458 571 445 574 382 587 c 1
 237 587 138 522.138 138 333 c 2
 138 242 l 2
 138 129.299 204.486 70.4242 301 63 c 0
 324.779 63 460 75.5317 460 221 c 2
 460 285 l 1
 556 285 l 1
 556 215 l 2
 556 103.858 459.777 -12 301 -12 c 0
 93 -12 40 162 40 215 c 2
 40 333 l 2
EndSplineSet
Validated: 3073
EndChar

StartChar: uni0548
Encoding: 1352 1352 785
Width: 703
Flags: HMW
LayerCount: 2
Fore
SplineSet
633 415 m 2
 633 1 l 1
 538 1 l 1
 538 414 l 2
 538 552 512 642 345 644 c 0
 190 644 166 554 164 414 c 2
 164 1 l 1
 70 1 l 1
 70 415 l 2
 70 600 121 729 353 729 c 0
 577.245 729 633 599.791 633 415 c 2
EndSplineSet
Validated: 3073
EndChar

StartChar: uni0549
Encoding: 1353 1353 786
Width: 648
Flags: MW
LayerCount: 2
Fore
SplineSet
583 386 m 2
 583 218 448 129 335 108 c 1
 486 68 l 1
 488 -14 l 1
 86 91 l 1
 86 176 l 1
 217 139 l 1
 387 154 486 244 486 402 c 2
 486 487 l 2
 486 620 392 644 320 653 c 0
 225 653 163 592 161 495 c 2
 161 431 l 1
 66 430 l 1
 66 502 l 2
 66 562 96 617 130 653 c 0
 171 694 233 728 320 728 c 0
 541 728 580 548 582 502 c 2
 583 386 l 2
EndSplineSet
Validated: 3073
EndChar

StartChar: uni054A
Encoding: 1354 1354 787
Width: 698
Flags: HMW
LayerCount: 2
Fore
SplineSet
628 415 m 2
 628 1 l 1
 533 1 l 1
 533 414 l 2
 533 597 475 622 388 645 c 1
 388 507.065 388 347.981 388 223 c 9
 291 223 l 1
 291 644 l 1
 172.964 644 160.06 505.13 159 414 c 2
 159 372 l 1
 65 372 l 1
 65 415 l 2
 65 600 116 729 348 729 c 0
 572.245 729 628 599.791 628 415 c 2
EndSplineSet
Validated: 3073
EndChar

StartChar: uni054B
Encoding: 1355 1355 788
Width: 744
Flags: HMW
LayerCount: 2
Fore
SplineSet
521 281 m 1
 540 320 563 381 565 438 c 0
 565 615.6 436.3 660 332 660 c 0
 163 660 125 502 125 434 c 1
 229.814 434 477.457 429.645 521 281 c 1
638 469 m 0
 638 267 512 160 455 131 c 1
 578 131 l 2
 665 131 712 89 714 0 c 1
 631 0 l 1
 631 38 608 51 562 52 c 2
 139 52 l 1
 139 0 l 1
 49 0 l 1
 49 184 l 1
 139 184 l 1
 139 129 l 1
 266 129 l 2
 347 129 441 164 441 237 c 0
 441 349.226 236.435 355 162 355 c 0
 68.3584 357.341 55.252 356.583 45 360 c 1
 45 449 l 2
 45 554.369 102.8 735 334 735 c 0
 409 735 638 714 638 469 c 0
EndSplineSet
Validated: 3073
EndChar

StartChar: uni054C
Encoding: 1356 1356 789
Width: 738
Flags: HMW
LayerCount: 2
Fore
SplineSet
633 415 m 2
 633 250 l 1
 708 250 l 1
 708 169 l 1
 630 169 l 1
 630 1 l 1
 538 1 l 1
 538 414 l 2
 538 552 512 642 345 644 c 0
 190 644 166 554 164 414 c 2
 164 1 l 1
 70 1 l 1
 70 415 l 2
 70 600 121 729 353 729 c 0
 577.245 729 633 599.791 633 415 c 2
EndSplineSet
Validated: 3073
EndChar

StartChar: uni054D
Encoding: 1357 1357 790
Width: 703
Flags: HMW
LayerCount: 2
Fore
SplineSet
345 73 m 0
 508 73 538 161 538 303 c 2
 538 716 l 1
 633 716 l 1
 633 302 l 2
 633 131 586 -12 353 -12 c 0
 127 -12 70 106 70 302 c 2
 70 716 l 1
 164 716 l 1
 164 303 l 2
 164 197.542 171 73 345 73 c 0
EndSplineSet
Validated: 3073
EndChar

StartChar: uni054E
Encoding: 1358 1358 791
Width: 739
Flags: HMW
LayerCount: 2
Fore
SplineSet
351 159 m 0
 122 159 65 286 65 476 c 2
 65 577 l 1
 159 577 l 1
 159 477 l 2
 159 366.78 159 247 340 247 c 0
 527.208 247 533 344.017 533 477 c 2
 533 729 l 1
 628 729 l 1
 628 95 l 1
 718 95 l 1
 718 1 l 1
 530 1 l 1
 530 216 l 1
 519 193 465 159 351 159 c 0
EndSplineSet
Validated: 3073
EndChar

StartChar: uni054F
Encoding: 1359 1359 792
Width: 660
Flags: HMW
LayerCount: 2
Fore
SplineSet
523 194 m 0
 523 390 88 251 72 531 c 0
 72 659 188 728 324 728 c 0
 580.21 728 593 542.476 593 514 c 1
 502 514 l 1
 494 606 434 643 328 645 c 0
 234 645 164 611 164 537 c 0
 164 358 615 474 615 202 c 0
 615 78 499 -12 350 -12 c 0
 106 -12 45 134 45 232 c 1
 134 232 l 1
 140.366 159.146 178 73 346 73 c 0
 434 73 523 112 523 194 c 0
EndSplineSet
Validated: 3073
EndChar

StartChar: uni0550
Encoding: 1360 1360 793
Width: 693
Flags: HMW
LayerCount: 2
Fore
SplineSet
633 415 m 2
 633 294 l 1
 538 294 l 1
 538 414 l 2
 538 552 512 642 345 644 c 0
 190 644 166 554 164 414 c 2
 164 1 l 1
 70 1 l 1
 70 415 l 2
 70 600 121 729 353 729 c 0
 577.245 729 633 599.791 633 415 c 2
EndSplineSet
Validated: 3073
EndChar

StartChar: uni0551
Encoding: 1361 1361 794
Width: 623
Flags: HMW
LayerCount: 2
Fore
SplineSet
79 544 m 0
 79 615 114 728 312 728 c 0
 459 728 546 672 546 544 c 0
 546 468 505 426 458 406 c 1
 506 394 569 324 569 211 c 0
 569 81 467 -12 313 -12 c 0
 162 -12 60 75 60 203 c 1
 153 203 l 1
 153 119 216 63 313 63 c 0
 374 63 475 90 475 211 c 0
 475 342 363 359 314 359 c 0
 245 359 198 341 175 306 c 1
 69 307 l 1
 76 329 90 372 164 404 c 1
 128.397 416.715 79 450 79 544 c 0
170 544 m 0
 170 480 232 432 312 432 c 0
 384 432 452 463 452 544 c 0
 452 630 368 652 311 652 c 0
 236 652 170 610 170 544 c 0
EndSplineSet
Validated: 3073
EndChar

StartChar: uni0552
Encoding: 1362 1362 795
Width: 385
Flags: HMW
LayerCount: 2
Fore
SplineSet
70 723 m 1
 165 723 l 1
 165 475 l 1
 345 475 l 1
 345 395 l 1
 165 395 l 1
 165 0 l 1
 70 0 l 1
 70 723 l 1
EndSplineSet
Validated: 3073
EndChar

StartChar: uni0553
Encoding: 1363 1363 796
Width: 788
Flags: HMW
LayerCount: 2
Fore
SplineSet
348 48 m 1
 281 56 45 103 45 362 c 0
 45 612 272 660 348 670 c 1
 348 725 l 1
 442 725 l 1
 442 670 l 1
 481.928 670 743 632.033 743 362 c 0
 743 111 517 55 442 48 c 1
 442 1 l 1
 348 1 l 1
 348 48 l 1
348 591 m 1
 293 585 144 548 140 360 c 0
 140 216 224 150 348 126 c 1
 348 591 l 1
442 126 m 1
 497 136 645 168 651 360 c 0
 651 499 568 574 442 591 c 1
 442 126 l 1
EndSplineSet
Validated: 3073
EndChar

StartChar: uni0554
Encoding: 1364 1364 797
Width: 632
Flags: HMW
LayerCount: 2
Fore
SplineSet
355 728 m 0
 495 728 582 651 588 521 c 0
 588 368 511 275 365 275 c 0
 273 275 227 314 211 335 c 1
 211 199 l 1
 592 199 l 1
 592 121 l 1
 210 121 l 1
 210 0 l 1
 117 0 l 1
 117 121 l 1
 30 121 l 1
 30 199 l 1
 117 199 l 1
 117 523 l 2
 117 646 212 728 355 728 c 0
355 653 m 0
 276 653 212 602 212 518 c 2
 212 472 l 2
 212 401 288 352 366 352 c 0
 452 352 494 405 494 511 c 0
 494 625 409 651 355 653 c 0
EndSplineSet
Validated: 3073
EndChar

StartChar: uni0555
Encoding: 1365 1365 798
Width: 775
Flags: HMW
LayerCount: 2
Fore
SplineSet
730 357 m 0
 730 137 587 -12 388 -12 c 0
 178 -12 48 150 45 349 c 0
 45 584 183 727 388 729 c 0
 587 729 727 583 730 357 c 0
389 647 m 0
 294 647 143 602 143 347 c 0
 143 179 241 69 387 69 c 0
 485 69 632 127 632 357 c 0
 632 589 482 647 389 647 c 0
EndSplineSet
Validated: 3073
EndChar

StartChar: uni0556
Encoding: 1366 1366 799
Width: 714
Flags: HMW
LayerCount: 2
Fore
SplineSet
579 273 m 2
 579 410 490 433 437 433 c 2
 391 433 l 1
 391 67 l 1
 437 67 l 2
 494 67 579 97 579 218 c 2
 579 273 l 2
156 578 m 0
 156 524 203 507 265 507 c 2
 299 507 l 1
 299 653 l 1
 258 653 l 2
 197 653 156 636 156 578 c 0
674 212 m 2
 674 88 584 -5 437 -8 c 2
 304 -8 l 2
 75.7871 -8 40 101.8 40 175 c 1
 133 175 l 1
 133 114 171 66 300 66 c 1
 300 434 l 1
 255 435 l 2
 198 435 87 461 87 576 c 0
 87 703 173 725 296 725 c 2
 391 725 l 1
 391 508 l 1
 437 508 l 2
 579 508 667 429 674 298 c 2
 674 212 l 2
EndSplineSet
Validated: 3073
EndChar

StartChar: uni055A
Encoding: 1370 1370 800
Width: 222
Flags: MW
LayerCount: 2
Fore
SplineSet
61 621 m 1
 61 723 l 1
 155 723 l 1
 155 643 l 2
 155 579 149 527 74 489 c 1
 53 523 l 1
 87 536 106 571 106 621 c 1
 61 621 l 1
EndSplineSet
Validated: 3073
EndChar

StartChar: uni055B
Encoding: 1371 1371 801
Width: 200
Flags: HMW
LayerCount: 2
Fore
SplineSet
30 588 m 5
 118 718 l 5
 173 718 l 5
 68 588 l 5
 30 588 l 5
EndSplineSet
Validated: 3073
EndChar

StartChar: uni055C
Encoding: 1372 1372 802
Width: 333
Flags: HMW
LayerCount: 2
Fore
SplineSet
27 632 m 1
 41 655 81 685 120 685 c 0
 151.5 685 181 682 214 682 c 0
 255 682 284 708 306 730 c 1
 306 675 l 1
 287 655 259 627 214 627 c 0
 163 627 161.5 630 120 630 c 0
 71 630 47 606 27 577 c 1
 27 632 l 1
EndSplineSet
Validated: 3073
EndChar

StartChar: uni055E
Encoding: 1374 1374 804
Width: 333
Flags: HMW
LayerCount: 2
Fore
SplineSet
13 639 m 2
 13 700 48 793 180 793 c 0
 259 793 305 744 305 683 c 0
 305 624 267 588 211 588 c 0
 155 588 126 620 126 685 c 1
 181 685 l 1
 181 656.5 196 643 213 643 c 0
 236 643 250 655.5 250 684 c 0
 250 723 223.5 739 178 739 c 0
 115 739 68 715 68 638 c 2
 68 638 68 607 68 596 c 5
 13 596 l 5
 13 639 l 2
EndSplineSet
Validated: 3073
EndChar

StartChar: uni0561
Encoding: 1377 1377 805
Width: 833
Flags: HMW
LayerCount: 2
Fore
SplineSet
552 66 m 0
 648 66 680 138 680 251 c 2
 680 524 l 1
 768 524 l 1
 768 1 l 1
 689 1 l 1
 689 74 l 1
 663 29 604 -10 532 -10 c 0
 455 -10 405 23 386 81 c 1
 345 20 292 -10 226 -10 c 0
 118 -10 65 50 65 164 c 2
 65 524 l 1
 153 524 l 1
 153 193 l 2
 153 121.692 164 66 245 66 c 1
 294 66 372 89 372 219 c 2
 372 524 l 1
 460 524 l 1
 460 183 l 2
 460 111 482 66 552 66 c 0
EndSplineSet
Validated: 3073
EndChar

StartChar: uni0562
Encoding: 1378 1378 806
Width: 551
Flags: HMW
LayerCount: 2
Fore
SplineSet
491 195 m 1
 403 195 l 1
 403 293 l 2
 403 370.977 402.958 460 296 460 c 0
 185.462 460 158 376.209 158 283 c 6
 158 66 l 5
 489 66 l 1
 489 0 l 1
 158 0 l 5
 158 -200 l 5
 70 -200 l 1
 70 524 l 1
 149 524 l 1
 149 447 l 1
 189 506 244 535 313 535 c 0
 373 535 430 508 458 474 c 0
 482 442 491 389 491 326 c 2
 491 195 l 1
EndSplineSet
Validated: 3073
EndChar

StartChar: uni0563
Encoding: 1379 1379 807
Width: 572
Flags: HMW
LayerCount: 2
Fore
SplineSet
35 268 m 0
 35 432 123 535 254 535 c 0
 332 535 370 505 405 456 c 1
 405 524 l 1
 485 524 l 5
 485 66 l 5
 561 66 l 1
 561 0 l 1
 485 0 l 5
 485 -200 l 5
 397 -200 l 1
 397 59 l 1
 369 24 323 -5 261 -7 c 0
 125 -7 35 111 35 268 c 0
267 66 m 0
 327 66 405 105 405 261 c 0
 405 386 347 466 263 466 c 0
 210 466 125 427 125 269 c 0
 125 107 207 66 267 66 c 0
EndSplineSet
Validated: 3073
EndChar

StartChar: uni0564
Encoding: 1380 1380 808
Width: 569
Flags: HMW
LayerCount: 2
Fore
SplineSet
148 444 m 1
 165 468 201 534 313 534 c 0
 401 534 454 487 459 404 c 2
 459 62 l 1
 559 62 l 1
 559 0 l 1
 459 0 l 1
 459 -200 l 1
 371 -200 l 5
 371 366 l 6
 371 428 346 458 293 459 c 0
 193 459 153 382 153 289 c 0
 153 0 l 1
 65 0 l 1
 65 524 l 1
 148 524 l 1
 148 444 l 1
EndSplineSet
Validated: 3073
EndChar

StartChar: uni0565
Encoding: 1381 1381 809
Width: 546
Flags: HMW
LayerCount: 2
Fore
SplineSet
261 65 m 0
 366 65 399 138 399 236 c 2
 399 333 l 1
 486 333 l 1
 486 0 l 1
 407 0 l 1
 407 74 l 1
 369 18 315 -11 242 -11 c 0
 67.3906 -11 65 123.94 65 200 c 2
 65 719 l 1
 153 721 l 5
 153 483 l 5
 490 483 l 5
 490 417 l 5
 153 417 l 5
 153 204 l 6
 153 121 175 65 261 65 c 0
EndSplineSet
Validated: 3073
EndChar

StartChar: uni0566
Encoding: 1382 1382 810
Width: 581
Flags: HMW
LayerCount: 2
Fore
SplineSet
236 5 m 0
 119 5 35 121 35 264 c 0
 35 412 109 537 250 537 c 0
 334 537 377 492 390 470 c 1
 390 524 l 1
 472 524 l 1
 472 -141 l 1
 571 -141 l 1
 571 -200 l 1
 387 -200 l 1
 387 81 l 1
 360 39 308 5 236 5 c 0
124 268 m 0
 124 159 171 81 263 75 c 0
 346 75 388 176 390 266 c 0
 390 370 353 468 258 468 c 0
 159 468 124 371 124 268 c 0
EndSplineSet
Validated: 3073
EndChar

StartChar: uni0567
Encoding: 1383 1383 811
Width: 353
Flags: HMW
LayerCount: 2
Fore
SplineSet
294 74 m 1
 294 -121 l 1
 218 -119 l 1
 218 0 l 1
 70 0 l 1
 70 721 l 1
 156 721 l 1
 156 467 l 5
 333 467 l 5
 333 401 l 1
 156 401 l 1
 156 74 l 1
 294 74 l 1
EndSplineSet
Validated: 3073
EndChar

StartChar: uni0568
Encoding: 1384 1384 812
Width: 551
Flags: HMW
LayerCount: 2
Fore
SplineSet
291 454 m 0
 186 454 153 375.021 153 277 c 2
 153 -136 l 5
 482 -136 l 5
 482 -200 l 1
 65 -200 l 1
 65 518 l 1
 144 518 l 1
 144 441 l 1
 184 500 239 529 309 529 c 0
 450.6 529 486 436.412 486 320 c 2
 486 -1 l 1
 398 -1 l 1
 398 287 l 2
 398 382 390 454 291 454 c 0
EndSplineSet
Validated: 3073
EndChar

StartChar: uni0569
Encoding: 1385 1385 813
Width: 568
Flags: HMW
LayerCount: 2
Fore
SplineSet
514 169 m 2
 514 73 439 6 348 4 c 0
 259 4 210 56 210 145 c 0
 210 226 274.978 295 365 295 c 2
 426 295 l 1
 426 360 l 2
 426 434.169 388 474 306 476 c 0
 173 476 156 350.064 156 319 c 2
 156 -200 l 1
 70 -200 l 1
 70 524 l 1
 148 524 l 1
 148 459 l 1
 188.858 540.715 280.843 536.24 293 537 c 0
 481.098 537 513 424.419 513 372 c 2
 513 292 l 1
 554 292 l 1
 554 232 l 1
 514 232 l 1
 514 169 l 2
348 69 m 0
 403 69 428 109 428 170 c 2
 428 234 l 1
 356 234 l 2
 312 234 288 192 286 142 c 0
 286 98 302 69 348 69 c 0
EndSplineSet
Validated: 3073
EndChar

StartChar: uni056A
Encoding: 1386 1386 814
Width: 569
Flags: HMW
LayerCount: 2
Fore
SplineSet
35 269 m 0
 35 396 103 524 242 524 c 2
 382 524 l 1
 382 734 l 1
 471 734 l 1
 471 524 l 1
 569 524 l 1
 569 456 l 1
 471 456 l 1
 471 221 l 2
 471 82 374 -3 251 -3 c 0
 78.2002 -3 35 165.178 35 269 c 0
259 67 m 0
 367 67 385 167 385 311 c 2
 385 311 385 340 385 456 c 1
 263 456 l 2
 161 456 128 372 125 267 c 0
 125 186 142 69 259 67 c 0
EndSplineSet
Validated: 3073
EndChar

StartChar: uni056B
Encoding: 1387 1387 815
Width: 552
Flags: HMW
LayerCount: 2
Fore
SplineSet
295 455 m 0
 240 455 158 429 158 284 c 6
 158 -200 l 5
 70 -200 l 1
 70 716 l 1
 158 716 l 1
 158 459 l 1
 199 506 251 530 313 530 c 0
 456 530 492 446 492 329 c 2
 492 0 l 1
 404 0 l 1
 404 329 l 2
 404 412 371 453 295 455 c 0
EndSplineSet
Validated: 3073
EndChar

StartChar: uni056C
Encoding: 1388 1388 816
Width: 276
Flags: HMW
LayerCount: 2
Fore
SplineSet
256 -143 m 1
 256 -200 l 1
 70 -200 l 1
 70 524 l 1
 158 524 l 5
 158 -143 l 5
 256 -143 l 1
EndSplineSet
Validated: 3073
EndChar

StartChar: uni056D
Encoding: 1389 1389 817
Width: 795
Flags: HMW
LayerCount: 2
Fore
SplineSet
504 63 m 0
 608 63 642 133 642 234 c 2
 642 524 l 1
 730 524 l 1
 730 -1 l 1
 651 -1 l 1
 651 73 l 1
 613 16 558.007 -13 486 -13 c 0
 318 -13 309.549 96.0024 309 219 c 2
 308 443 l 1
 158 443 l 5
 158 -200 l 5
 70 -200 l 1
 70 713 l 1
 158 713 l 5
 158 524 l 5
 397 524 l 1
 397 202 l 2
 397 125 412 67 504 63 c 0
EndSplineSet
Validated: 3073
EndChar

StartChar: uni056E
Encoding: 1390 1390 818
Width: 535
Flags: HMW
LayerCount: 2
Fore
SplineSet
413 452 m 1
 435 436 463 381 472 270 c 0
 472 111.477 420.547 -8 261 -8 c 0
 125 -8 35 108 35 264 c 0
 35 428.873 141.525 523 241 523 c 2
 263 524 l 1
 228 548 201 587 199 633 c 0
 199 673 227 712 284 748 c 1
 335 696 l 1
 295 681 276 661 275 634 c 0
 275 584 347 535 369 520 c 1
 515 520 l 1
 515 452 l 1
 413 452 l 1
388 265 m 0
 388 302 373 462 287 462 c 0
 162 462 123 391 123 262 c 0
 123 151 159 62 262 62 c 0
 369 62 386 184 388 265 c 0
EndSplineSet
Validated: 3073
EndChar

StartChar: uni056F
Encoding: 1391 1391 819
Width: 553
Flags: HMW
LayerCount: 2
Fore
SplineSet
268 71 m 0
 321 71 405 97 405 242 c 2
 405 524 l 1
 493 524 l 1
 493 -200 l 1
 405 -200 l 1
 405 66 l 1
 364 19 312 -4 249 -5 c 0
 101 -5 72 85 70 197 c 2
 70 721 l 1
 158 721 l 1
 158 197 l 2
 158 115 192 71 268 71 c 0
EndSplineSet
Validated: 3073
EndChar

StartChar: uni0570
Encoding: 1392 1392 820
Width: 537
Flags: HMW
LayerCount: 2
Fore
SplineSet
295 455 m 0
 240 455 158 429 158 284 c 2
 158 0 l 1
 70 0 l 1
 70 716 l 1
 158 716 l 1
 158 459 l 1
 199 506 251 530 313 530 c 0
 456 530 492 446 492 329 c 2
 492 0 l 1
 404 0 l 1
 404 329 l 2
 404 412 371 453 295 455 c 0
EndSplineSet
Validated: 3073
EndChar

StartChar: uni0571
Encoding: 1393 1393 821
Width: 512
Flags: HMW
LayerCount: 2
Fore
SplineSet
325 665 m 0
 386 665 396 642 396 620 c 0
 396 586 336 542 306 517 c 1
 408 497 467 400 467 276 c 2
 467 0 l 1
 390 0 l 1
 390 63 l 1
 381 39 342 -14 255 -14 c 0
 119 -14 35 106 35 260 c 0
 35 444 270 551 299 602 c 1
 299 615 173 602 162 645 c 0
 162 680 188 719 203 736 c 1
 275 736 l 1
 270 715 254 699 254 688 c 0
 254 671.729 289 665 325 665 c 0
124 256 m 0
 124 153 162.98 56 263 56 c 0
 384 56 396 207 396 258 c 0
 396 370 344 453 267 453 c 0
 181.842 453 124 345.282 124 256 c 0
EndSplineSet
Validated: 3073
EndChar

StartChar: uni0572
Encoding: 1394 1394 822
Width: 568
Flags: HMW
LayerCount: 2
Fore
SplineSet
312 530 m 0
 429 530 458 447 458 400 c 2
 458 -137 l 1
 558 -137 l 1
 558 -200 l 1
 373 -200 l 1
 373 362 l 2
 373 424 346 454 292 455 c 0
 207 455 166 406 153 317 c 6
 153 0 l 5
 65 0 l 1
 65 524 l 1
 147 524 l 1
 147 437 l 1
 188 488 217 530 312 530 c 0
EndSplineSet
Validated: 3073
EndChar

StartChar: uni0573
Encoding: 1395 1395 823
Width: 552
Flags: HMW
LayerCount: 2
Fore
SplineSet
44 31 m 2
 44 224 152 390 205 461 c 1
 141 510 l 1
 190 574 l 1
 252 524 l 1
 311 595 390 676 458 731 c 1
 507 683 l 1
 442 619 381 552 319 486 c 1
 470.509 318.2 498 142 498 31 c 2
 498 31 498 13.4333 498 0 c 1
 44 0 l 1
 44 10.75 44 31 44 31 c 2
401 70 m 5
 365.893 326.284 271.142 422 271 422 c 1
 264 400 154 247 154 70 c 1
 401 70 l 5
EndSplineSet
Validated: 3073
EndChar

StartChar: uni0574
Encoding: 1396 1396 824
Width: 531
Flags: HMW
LayerCount: 2
Fore
SplineSet
373 436 m 6
 373 524 236 546 236 659 c 0
 236 735 309 744 380 744 c 2
 380 744 445.5 744 457 744 c 1
 457 676 l 1
 373 676 l 2
 342 676 319 670.5 319 653 c 0
 319 597.57 461 540.594 461 433 c 2
 461 0 l 1
 377 0 l 1
 377 56 l 1
 315.58 16.5156 287.406 -10 212 -10 c 0
 124 -10 66 44 65 115 c 2
 65 524 l 1
 153 524 l 1
 153 153 l 2
 153 95 174 65 231 65 c 0
 354 65 368 148 373 214 c 6
 373 436 l 6
EndSplineSet
Validated: 3073
EndChar

StartChar: uni0575
Encoding: 1397 1397 825
Width: 249
Flags: HMW
LayerCount: 2
Fore
SplineSet
38 -123 m 0
 90 -123 91 -75 91 -21 c 2
 91 -21 91 339 91 524 c 1
 179 524 l 1
 179 -18 l 2
 179 -138 150 -200 49 -200 c 0
 24 -200 1 -198 -20 -191 c 1
 -3 -116 l 1
 16 -121 29 -123 38 -123 c 0
EndSplineSet
Validated: 3073
EndChar

StartChar: uni0576
Encoding: 1398 1398 826
Width: 527
Flags: HMW
LayerCount: 2
Fore
SplineSet
255 63 m 0
 351 63 368 164 374 198 c 2
 374 524 l 1
 462 524 l 1
 462 0 l 1
 382 0 l 1
 382 83 l 1
 322 19 270.5 -10 216 -10 c 0
 127 -10 70 45 70 112 c 2
 70 556 l 2
 70 602 105 745 252 745 c 2
 317 745 l 1
 317 684 l 1
 183 684 158 639 158 556 c 6
 158 148 l 6
 158 81 195.5 63 255 63 c 0
EndSplineSet
Validated: 3073
EndChar

StartChar: uni0577
Encoding: 1399 1399 827
Width: 405
Flags: HMW
LayerCount: 2
Fore
SplineSet
291 341 m 0
 291 393 257 451 200 451 c 0
 166 451 134 433 103 395 c 1
 60 453 l 1
 95 496 141 527 205 529 c 0
 297 529 378 450 378 357 c 0
 378 315 361 274 334 234 c 0
 167 -21 124 -44 124 -98 c 0
 127 -119 159 -129 220 -129 c 2
 220 -129 323 -129 375 -129 c 1
 375 -195 l 1
 169 -195 118 -195 118 -195 c 2
 47 -195 35 -144 35 -109 c 0
 35 -39 139 74 250 241 c 0
 288 299 291 309 291 341 c 0
EndSplineSet
Validated: 3073
EndChar

StartChar: uni0578
Encoding: 1400 1400 828
Width: 551
Flags: HMW
LayerCount: 2
Fore
SplineSet
291 460 m 0
 188 460 155 388 153 283 c 2
 153 -1 l 1
 65 -1 l 1
 65 524 l 1
 144 524 l 1
 144 447 l 1
 184 506 239 535 309 535 c 0
 466.928 535 486 418.766 486 326 c 2
 486 -1 l 1
 398 -1 l 1
 398 293 l 2
 398 376.778 394.801 460 291 460 c 0
EndSplineSet
Validated: 3073
EndChar

StartChar: uni0579
Encoding: 1401 1401 829
Width: 390
Flags: HMW
LayerCount: 2
Fore
SplineSet
219 201 m 0
 219 251 103 283 85 342 c 0
 85 377 171 491 202 531 c 1
 288 512 l 1
 245.521 461.145 176 384.393 176 354 c 0
 176 331.778 307 262.671 307 207 c 0
 307 193 300 175 284 153 c 2
 215 59 l 2
 152 -27 124 -63 124 -94 c 0
 124 -114 135 -136 220 -136 c 2
 220 -136 298.16 -136 357 -136 c 1
 357 -199 l 1
 220 -199 l 2
 107.246 -199 35 -192 35 -99 c 0
 35 -67 58 -34 74 -11 c 2
 213 184 l 2
 216 188 218 194 219 201 c 0
EndSplineSet
Validated: 3073
EndChar

StartChar: uni057A
Encoding: 1402 1402 830
Width: 833
Flags: HMW
LayerCount: 2
Fore
SplineSet
552 66 m 0
 648 66 680 138 680 251 c 2
 680 524 l 1
 768 524 l 1
 768 -200 l 5
 689 -200 l 5
 689 74 l 1
 663 29 604 -10 532 -10 c 0
 455 -10 405 23 386 81 c 1
 345 20 292 -10 226 -10 c 0
 118 -10 65 50 65 164 c 2
 65 524 l 1
 153 524 l 1
 153 193 l 2
 153 134 160 66 245 66 c 0
 294 66 372 89 372 219 c 2
 372 524 l 1
 460 524 l 1
 460 183 l 2
 460 111 482 66 552 66 c 0
EndSplineSet
Validated: 3073
EndChar

StartChar: uni057B
Encoding: 1403 1403 831
Width: 509
Flags: HMW
LayerCount: 2
Fore
SplineSet
239 532 m 0
 423 526 461 391 463 312 c 0
 463 251 445 142 304 18 c 2
 249 -26 l 2
 199 -67 176 -87 176 -104 c 0
 176 -128 207 -138 283 -138 c 2
 283 -138 360 -138 413 -138 c 1
 413 -201 l 1
 234 -201 215 -201 215 -201 c 2
 153 -201 82 -191 82 -129 c 0
 82 -60 199 -22 199 52 c 0
 199 158 38 146 38 333 c 0
 38 525 198 532 239 532 c 0
234 458 m 0
 152 458 131 404 126 328 c 0
 126 206 251 201 253 53 c 1
 253 53 369 170 369 307 c 4
 369 386 347 458 234 458 c 0
EndSplineSet
Validated: 3073
EndChar

StartChar: uni057C
Encoding: 1404 1404 832
Width: 523
Flags: HMW
LayerCount: 2
Fore
SplineSet
253 63 m 1
 268.938 63 401 231.775 401 344 c 4
 401 409 363 460 291 460 c 0
 187 460 153 386 153 283 c 2
 153 0 l 1
 65 0 l 1
 65 524 l 1
 144 524 l 1
 144 447 l 1
 184 506 238 535 308 535 c 0
 452.432 535 488 418.15 488 361 c 0
 488 296 442.547 214.059 426 195 c 2
 314 66 l 1
 430 66 l 1
 430 0 l 1
 253 0 l 1
 253 63 l 1
EndSplineSet
Validated: 3073
EndChar

StartChar: uni057D
Encoding: 1405 1405 833
Width: 545
Flags: HMW
LayerCount: 2
Fore
SplineSet
260 64 m 0
 363 64 397 137 397 241 c 2
 397 523 l 1
 485 523 l 1
 485 0 l 1
 407 0 l 1
 407 76 l 1
 367 18 312 -12 242 -12 c 0
 70 -12 65 130 65 197 c 2
 65 523 l 1
 153 523 l 1
 153 231 l 2
 153 128 160 64 260 64 c 0
EndSplineSet
Validated: 3073
EndChar

StartChar: uni057E
Encoding: 1406 1406 834
Width: 584
Flags: HMW
LayerCount: 2
Fore
SplineSet
263 71 m 0
 316 71 400 97 400 242 c 2
 400 716 l 1
 488 716 l 1
 488 -144 l 5
 574 -144 l 5
 574 -200 l 1
 400 -200 l 1
 400 66 l 1
 359 19 307 -4 244 -5 c 0
 96 -5 67 85 65 197 c 2
 65 524 l 1
 153 524 l 1
 153 197 l 2
 153 115 187 71 263 71 c 0
EndSplineSet
Validated: 3073
EndChar

StartChar: uni057F
Encoding: 1407 1407 835
Width: 879
Flags: HMW
LayerCount: 2
Fore
SplineSet
260 63 m 0
 363 63 397 137 397 240 c 2
 397 524 l 1
 482 524 l 1
 482 447 l 1
 522 506 576 535 646 535 c 0
 812.893 535 824 404.953 824 326 c 2
 824 -1 l 1
 736 -1 l 1
 736 293 l 2
 736 370.977 735.958 460 629 460 c 0
 509.335 460 491 361.169 491 283 c 2
 491 -1 l 1
 407 -1 l 1
 407 75 l 1
 367 17 312 -13 242 -13 c 0
 100.4 -13 65 80.7637 65 196 c 2
 65 524 l 1
 153 524 l 1
 153 230 l 2
 153 135 165 63 260 63 c 0
EndSplineSet
Validated: 3073
EndChar

StartChar: uni0580
Encoding: 1408 1408 836
Width: 552
Flags: HMW
LayerCount: 2
Fore
SplineSet
291 460 m 0
 188 460 153 388.02 153 283 c 2
 153 -200 l 1
 65 -200 l 1
 65 524 l 1
 144 524 l 1
 144 447 l 1
 184 506 239 535 309 535 c 0
 466.928 535 486 418.766 486 326 c 2
 486 -1 l 1
 398 -1 l 1
 398 293 l 2
 398 376.778 394.801 460 291 460 c 0
EndSplineSet
Validated: 3073
EndChar

StartChar: uni0581
Encoding: 1409 1409 837
Width: 552
Flags: HMW
LayerCount: 2
Fore
SplineSet
35 264 m 0
 35 409 112 535 260 535 c 0
 321 535 371 511 411 461 c 1
 411 524 l 1
 492 524 l 1
 492 70 l 2
 492 -44.3945 484.245 -200 258 -200 c 0
 172 -200 53 -187 53 -45 c 1
 138 -44 l 1
 145 -105 194 -132 257 -134 c 0
 411.033 -134 401.155 -35.3096 403 68 c 1
 365 23 317 0 259 0 c 0
 113 0 37 119 35 264 c 0
266 469 m 0
 208 469 126 422 126 271 c 0
 126 104 211 66 268 66 c 0
 330 66 410 114 410 268 c 0
 410 422 322 469 266 469 c 0
EndSplineSet
Validated: 3073
EndChar

StartChar: uni0582
Encoding: 1410 1410 838
Width: 301
Flags: HMW
LayerCount: 2
Fore
SplineSet
155 524 m 1
 155 66 l 5
 281 66 l 5
 281 0 l 1
 70 0 l 1
 70 524 l 1
 155 524 l 1
EndSplineSet
Validated: 3073
EndChar

StartChar: uni0583
Encoding: 1411 1411 839
Width: 884
Flags: HMW
LayerCount: 2
Fore
SplineSet
260 63 m 0
 371 63 396 143 398 240 c 2
 398 723 l 1
 482 723 l 1
 482 447 l 1
 522 506 577 535 647 535 c 0
 823.95 535 824 389.796 824 326 c 2
 824 -1 l 1
 736 -1 l 1
 736 293 l 2
 736 393 729 460 629 460 c 0
 525 460 492 383 492 283 c 2
 492 -200 l 1
 407 -200 l 1
 407 75 l 1
 367 17 313 -13 243 -13 c 0
 100.6 -13 65 80.96 65 196 c 2
 65 524 l 1
 153 524 l 1
 153 230 l 2
 153 148.086 153.43 63 260 63 c 0
EndSplineSet
Validated: 3073
EndChar

